<svg preserveAspectRatio="none" width="100%" height="100%" overflow="visible" style="display: block;" viewBox="0 0 47 47" fill="none" xmlns="http://www.w3.org/2000/svg">
<g id="SEE MORE">
<circle id="Ellipse 13" cx="23.5" cy="23.5" r="23" fill="var(--fill-0, #D8FF16)" fill-opacity="0.14" stroke="var(--stroke-0, #D8FF16)"/>
<path id="ARROW (Stroke)" d="M14.5 22.5633H28.9197C27.2611 21.4699 25.4547 19.7812 24.3124 17.244L26.1361 16.5C27.2396 18.9507 29.0796 20.4747 30.666 21.3925C31.4589 21.8512 32.1812 22.1543 32.7009 22.3412C32.9601 22.4344 33.1676 22.4979 33.3063 22.5375C33.3756 22.5574 33.4277 22.5716 33.4603 22.5799C33.4765 22.5841 33.4879 22.5867 33.4942 22.5882C33.4973 22.589 33.5 22.5892 33.5 22.5892H33.4981C33.4981 22.5892 33.497 22.5906 33.4961 22.5938L33.4535 24.4302L33.4545 24.4339H33.4564C33.4564 24.4339 33.4545 24.4342 33.4516 24.4348C33.4458 24.4359 33.4344 24.4379 33.4186 24.4413C33.3871 24.4479 33.3364 24.4597 33.2685 24.4763C33.132 24.5097 32.9266 24.5645 32.67 24.6478C32.1556 24.8146 31.4396 25.0926 30.6534 25.5328C29.0848 26.4111 27.2479 27.9269 26.1419 30.5L24.3065 29.7846C25.4091 27.2195 27.1373 25.5371 28.7609 24.4514H14.5V22.5633Z" fill="var(--fill-0, white)"/>
</g>
</svg>
