<svg preserveAspectRatio="none" width="100%" height="100%" overflow="visible" style="display: block;" viewBox="0 0 95.938 95.938" fill="none" xmlns="http://www.w3.org/2000/svg">
<g id="Star 3">
<mask id="path-1-inside-1_0_8" fill="white">
<path d="M47.969 0L57.2026 25.6773L81.8882 14.0498L70.2608 38.7355L95.938 47.969L70.2608 57.2026L81.8882 81.8882L57.2026 70.2608L47.969 95.938L38.7355 70.2608L14.0498 81.8882L25.6773 57.2026L0 47.969L25.6773 38.7355L14.0498 14.0498L38.7355 25.6773L47.969 0Z"/>
</mask>
<path d="M47.969 0L57.2026 25.6773L81.8882 14.0498L70.2608 38.7355L95.938 47.969L70.2608 57.2026L81.8882 81.8882L57.2026 70.2608L47.969 95.938L38.7355 70.2608L14.0498 81.8882L25.6773 57.2026L0 47.969L25.6773 38.7355L14.0498 14.0498L38.7355 25.6773L47.969 0Z" fill="var(--fill-0, #D4AF37)"/>
<path d="M47.969 0L57.2026 25.6773L81.8882 14.0498L70.2608 38.7355L95.938 47.969L70.2608 57.2026L81.8882 81.8882L57.2026 70.2608L47.969 95.938L38.7355 70.2608L14.0498 81.8882L25.6773 57.2026L0 47.969L25.6773 38.7355L14.0498 14.0498L38.7355 25.6773L47.969 0Z" fill="url(#paint0_linear_0_8)"/>
<path d="M48.2595 -0.104453C48.0658 -0.0348176 47.8722 0.0348176 47.6786 0.104453C50.1408 6.95173 52.6031 13.799 55.0654 20.6463C55.681 22.3581 56.2965 24.0699 56.9121 25.7817L57.027 26.1012L57.3341 25.9565C65.5627 22.0807 73.7912 18.2049 82.0198 14.3291L81.609 13.9183C77.7332 22.1468 73.8574 30.3754 69.9815 38.6039L69.8369 38.9111L70.1563 39.0259C78.7154 42.1038 87.2745 45.1816 95.8336 48.2595V47.6786C87.2745 50.7564 78.7154 53.8343 70.1563 56.9121L69.8369 57.027L69.9815 57.3341C73.8574 65.5627 77.7332 73.7912 81.609 82.0198L82.0198 81.609C73.7912 77.7332 65.5627 73.8574 57.3341 69.9815L57.027 69.8369L56.9121 70.1563C56.9121 70.1563 56.9121 70.1563 56.9121 70.1563C53.8343 78.7154 50.7564 87.2745 47.6786 95.8336H48.2595C45.1816 87.2745 42.1038 78.7154 39.0259 70.1563L38.9111 69.8369L38.6039 69.9815C30.3754 73.8574 22.1468 77.7332 13.9183 81.609L14.3291 82.0198C18.2049 73.7912 22.0807 65.5627 25.9565 57.3341L26.1012 57.027L25.7817 56.9121C17.2226 53.8343 8.66354 50.7564 0.104453 47.6786V48.2595C8.66354 45.1816 17.2226 42.1038 25.7817 39.0259L26.1012 38.9111L25.9565 38.6039C22.0807 30.3754 18.2049 22.1468 14.3291 13.9183L13.9183 14.3291C22.1468 18.2049 30.3754 22.0807 38.6039 25.9565L38.9111 26.1012L39.0259 25.7817C39.6415 24.0699 40.2571 22.3581 40.8727 20.6463C43.3349 13.799 45.7972 6.95172 48.2595 0.104453C48.0658 0.0348176 47.8722 -0.0348176 47.6786 -0.104453C45.2163 6.74282 42.754 13.5901 40.2917 20.4374C39.6761 22.1492 39.0606 23.861 38.445 25.5728L38.867 25.398C30.6385 21.5222 22.4099 17.6464 14.1813 13.7705L13.4048 13.4048L13.7705 14.1813C17.6464 22.4099 21.5222 30.6385 25.398 38.867L25.5728 38.445C17.0137 41.5229 8.45464 44.6007 -0.104453 47.6786L-0.912208 47.969L-0.104453 48.2595C8.45464 51.3373 17.0137 54.4152 25.5728 57.493L25.398 57.071C21.5222 65.2996 17.6464 73.5282 13.7705 81.7567L13.4048 82.5333L14.1813 82.1675C22.4099 78.2917 30.6385 74.4159 38.867 70.54L38.445 70.3652C41.5229 78.9243 44.6007 87.4834 47.6786 96.0425L47.969 96.8503L48.2595 96.0425C51.3373 87.4834 54.4152 78.9243 57.493 70.3652C57.493 70.3652 57.493 70.3652 57.493 70.3652L57.071 70.54C65.2996 74.4159 73.5282 78.2917 81.7567 82.1675L82.5333 82.5333L82.1675 81.7567C78.2917 73.5282 74.4159 65.2996 70.54 57.071L70.3652 57.493C78.9243 54.4152 87.4834 51.3373 96.0425 48.2595L96.8503 47.969L96.0425 47.6786C87.4834 44.6007 78.9243 41.5229 70.3652 38.445L70.54 38.867C74.4159 30.6385 78.2917 22.4099 82.1675 14.1813L82.5333 13.4048L81.7567 13.7705C73.5282 17.6464 65.2996 21.5222 57.071 25.398L57.493 25.5728C56.8775 23.861 56.2619 22.1492 55.6463 20.4374C53.1841 13.5901 50.7218 6.74282 48.2595 -0.104453ZM47.6786 0.104453L48.2595 -0.104453L47.969 -0.912208L47.6786 -0.104453L48.2595 0.104453H47.6786Z" fill="var(--stroke-0, #FF1654)" mask="url(#path-1-inside-1_0_8)"/>
</g>
<defs>
<linearGradient id="paint0_linear_0_8" x1="81.6977" y1="82.8818" x2="15.0068" y2="14.9288" gradientUnits="userSpaceOnUse">
<stop stop-color="#D4AF37"/>
<stop offset="1" stop-color="#0F0404"/>
</linearGradient>
</defs>
</svg>
