<svg preserveAspectRatio="none" width="100%" height="100%" overflow="visible" style="display: block;" viewBox="0 0 95.9381 95.9381" fill="none" xmlns="http://www.w3.org/2000/svg">
<g id="Star 3">
<mask id="path-1-inside-1_0_13" fill="white">
<path d="M47.969 0L57.2026 25.6773L81.8883 14.0498L70.2608 38.7355L95.9381 47.969L70.2608 57.2026L81.8883 81.8883L57.2026 70.2608L47.969 95.9381L38.7355 70.2608L14.0498 81.8883L25.6773 57.2026L0 47.969L25.6773 38.7355L14.0498 14.0498L38.7355 25.6773L47.969 0Z"/>
</mask>
<path d="M47.969 0L57.2026 25.6773L81.8883 14.0498L70.2608 38.7355L95.9381 47.969L70.2608 57.2026L81.8883 81.8883L57.2026 70.2608L47.969 95.9381L38.7355 70.2608L14.0498 81.8883L25.6773 57.2026L0 47.969L25.6773 38.7355L14.0498 14.0498L38.7355 25.6773L47.969 0Z" fill="var(--fill-0, #CD7F32)"/>
<path d="M47.969 0L57.2026 25.6773L81.8883 14.0498L70.2608 38.7355L95.9381 47.969L70.2608 57.2026L81.8883 81.8883L57.2026 70.2608L47.969 95.9381L38.7355 70.2608L14.0498 81.8883L25.6773 57.2026L0 47.969L25.6773 38.7355L14.0498 14.0498L38.7355 25.6773L47.969 0Z" fill="url(#paint0_linear_0_13)"/>
<path d="M48.4395 -0.169193C48.1259 -0.0563977 47.8122 0.0563977 47.4985 0.169193C49.9608 7.01647 52.4231 13.8637 54.8854 20.711C55.5009 22.4228 56.1165 24.1346 56.7321 25.8465L56.9182 26.3639L57.4156 26.1296C65.6442 22.2538 73.8727 18.378 82.1013 14.5021L81.4359 13.8367C77.5601 22.0653 73.6843 30.2939 69.8085 38.5224L69.5741 39.0199L70.0916 39.206C78.6507 42.2838 87.2098 45.3617 95.7689 48.4395V47.4985C87.2098 50.5764 78.6507 53.6542 70.0916 56.7321L69.5741 56.9182L69.8085 57.4156C73.6843 65.6442 77.5601 73.8727 81.4359 82.1013L82.1013 81.4359C73.8727 77.5601 65.6442 73.6843 57.4156 69.8085L56.9182 69.5741L56.7321 70.0916C56.7321 70.0916 56.7321 70.0916 56.7321 70.0916C53.6542 78.6507 50.5764 87.2098 47.4985 95.7689H48.4395C45.3617 87.2098 42.2838 78.6507 39.206 70.0916L39.0199 69.5741L38.5224 69.8085C30.2939 73.6843 22.0653 77.5601 13.8367 81.4359L14.5021 82.1013C18.378 73.8727 22.2538 65.6442 26.1296 57.4156L26.3639 56.9182L25.8465 56.7321C17.2874 53.6542 8.72829 50.5764 0.169193 47.4985V48.4395C8.72829 45.3617 17.2874 42.2838 25.8465 39.206L26.3639 39.0199L26.1296 38.5224C22.2538 30.2939 18.378 22.0653 14.5021 13.8367L13.8367 14.5021C22.0653 18.378 30.2939 22.2538 38.5224 26.1296L39.0199 26.3639L39.206 25.8465C39.8216 24.1346 40.4371 22.4228 41.0527 20.711C43.515 13.8637 45.9773 7.01647 48.4395 0.169193C48.1259 0.0563977 47.8122 -0.0563977 47.4985 -0.169193C45.0362 6.67808 42.574 13.5254 40.1117 20.3726C39.4961 22.0844 38.8805 23.7963 38.265 25.5081L38.9485 25.2249C30.72 21.3491 22.4914 17.4733 14.2629 13.5975L13.005 13.005L13.5975 14.2629C17.4733 22.4914 21.3491 30.72 25.2249 38.9485L25.5081 38.265C16.949 41.3428 8.3899 44.4207 -0.169193 47.4985L-1.4776 47.969L-0.169193 48.4395C8.38989 51.5174 16.949 54.5952 25.5081 57.6731L25.2249 56.9895C21.3491 65.2181 17.4733 73.4466 13.5975 81.6752L13.005 82.9331L14.2629 82.3406C22.4914 78.4648 30.72 74.5889 38.9485 70.7131L38.265 70.43C41.3428 78.9891 44.4207 87.5482 47.4985 96.1072L47.969 97.4157L48.4395 96.1072C51.5174 87.5482 54.5952 78.9891 57.6731 70.43C57.6731 70.43 57.6731 70.43 57.6731 70.43L56.9895 70.7131C65.2181 74.5889 73.4466 78.4648 81.6752 82.3406L82.9331 82.9331L82.3406 81.6752C78.4648 73.4466 74.5889 65.2181 70.7131 56.9895L70.43 57.6731C78.9891 54.5952 87.5482 51.5174 96.1072 48.4395L97.4157 47.969L96.1072 47.4985C87.5482 44.4207 78.9891 41.3428 70.43 38.265L70.7131 38.9485C74.5889 30.72 78.4648 22.4914 82.3406 14.2629L82.9331 13.005L81.6752 13.5975C73.4466 17.4733 65.2181 21.3491 56.9895 25.2249L57.6731 25.5081C57.0575 23.7963 56.4419 22.0844 55.8264 20.3726C53.3641 13.5253 50.9018 6.67808 48.4395 -0.169193ZM47.4985 0.169193L48.4395 -0.169193L47.969 -1.4776L47.4985 -0.169193L48.4395 0.169193H47.4985Z" fill="var(--stroke-0, #FF1654)" mask="url(#path-1-inside-1_0_13)"/>
</g>
<defs>
<linearGradient id="paint0_linear_0_13" x1="81.6977" y1="82.8818" x2="15.0068" y2="14.9288" gradientUnits="userSpaceOnUse">
<stop stop-color="#CD7F32"/>
<stop offset="1" stop-color="#0F0404"/>
</linearGradient>
</defs>
</svg>
