<svg preserveAspectRatio="none" width="100%" height="100%" overflow="visible" style="display: block;" viewBox="0 0 95.938 95.938" fill="none" xmlns="http://www.w3.org/2000/svg">
<g id="Star 3">
<mask id="path-1-inside-1_0_20" fill="white">
<path d="M47.969 0L57.2026 25.6773L81.8882 14.0498L70.2608 38.7355L95.938 47.969L70.2608 57.2026L81.8882 81.8882L57.2026 70.2608L47.969 95.938L38.7355 70.2608L14.0498 81.8882L25.6773 57.2026L0 47.969L25.6773 38.7355L14.0498 14.0498L38.7355 25.6773L47.969 0Z"/>
</mask>
<path d="M47.969 0L57.2026 25.6773L81.8882 14.0498L70.2608 38.7355L95.938 47.969L70.2608 57.2026L81.8882 81.8882L57.2026 70.2608L47.969 95.938L38.7355 70.2608L14.0498 81.8882L25.6773 57.2026L0 47.969L25.6773 38.7355L14.0498 14.0498L38.7355 25.6773L47.969 0Z" fill="url(#paint0_linear_0_20)"/>
<path d="M48.2621 -0.105388C48.0667 -0.0351294 47.8713 0.0351294 47.676 0.105388C50.1382 6.95266 52.6005 13.7999 55.0628 20.6472C55.6784 22.359 56.2939 24.0708 56.9095 25.7827L57.0254 26.105L57.3353 25.959C65.5638 22.0832 73.7924 18.2074 82.021 14.3316L81.6065 13.9171C77.7307 22.1456 73.8549 30.3742 69.979 38.6028L69.8331 38.9126L70.1554 39.0285C78.7145 42.1064 87.2736 45.1842 95.8327 48.2621V47.676C87.2736 50.7538 78.7145 53.8317 70.1554 56.9095L69.8331 57.0254L69.979 57.3353C73.8549 65.5638 77.7307 73.7924 81.6065 82.021L82.021 81.6065C73.7924 77.7307 65.5638 73.8549 57.3353 69.979L57.0254 69.8331L56.9095 70.1554C56.9095 70.1554 56.9095 70.1554 56.9095 70.1554C53.8316 78.7145 50.7538 87.2736 47.676 95.8327H48.2621C45.1842 87.2736 42.1064 78.7145 39.0285 70.1554L38.9126 69.8331L38.6028 69.979C30.3742 73.8549 22.1456 77.7307 13.9171 81.6065L14.3316 82.021C18.2074 73.7924 22.0832 65.5638 25.959 57.3353L26.105 57.0254L25.7827 56.9095C17.2236 53.8317 8.66448 50.7538 0.105388 47.676V48.2621C8.66448 45.1842 17.2236 42.1064 25.7827 39.0285L26.105 38.9126L25.959 38.6028C22.0832 30.3742 18.2074 22.1457 14.3316 13.9171L13.9171 14.3316C22.1456 18.2074 30.3742 22.0832 38.6028 25.959L38.9126 26.105L39.0285 25.7827C39.6441 24.0708 40.2597 22.359 40.8753 20.6472C43.3375 13.7999 45.7998 6.95266 48.2621 0.105388C48.0667 0.0351294 47.8713 -0.0351294 47.676 -0.105388C45.2137 6.74188 42.7514 13.5892 40.2891 20.4364C39.6735 22.1482 39.058 23.8601 38.4424 25.5719L38.8682 25.3955C30.6396 21.5197 22.4111 17.6439 14.1825 13.768L13.399 13.399L13.768 14.1825C17.6439 22.4111 21.5197 30.6396 25.3955 38.8682L25.5719 38.4424C17.0128 41.5203 8.4537 44.5981 -0.105388 47.676L-0.920378 47.969L-0.105388 48.2621C8.4537 51.3399 17.0128 54.4178 25.5719 57.4956L25.3955 57.0699C21.5197 65.2984 17.6439 73.527 13.768 81.7555L13.399 82.539L14.1825 82.17C22.4111 78.2942 30.6396 74.4184 38.8682 70.5425L38.4424 70.3662C41.5203 78.9253 44.5981 87.4843 47.676 96.0434L47.969 96.8584L48.2621 96.0434C51.3399 87.4844 54.4178 78.9253 57.4956 70.3662C57.4956 70.3662 57.4956 70.3662 57.4956 70.3662L57.0699 70.5425C65.2984 74.4184 73.527 78.2942 81.7555 82.17L82.539 82.539L82.17 81.7555C78.2942 73.527 74.4184 65.2984 70.5425 57.0699L70.3662 57.4956C78.9253 54.4178 87.4843 51.3399 96.0434 48.2621L96.8584 47.969L96.0434 47.676C87.4843 44.5981 78.9253 41.5203 70.3662 38.4424L70.5425 38.8682C74.4184 30.6396 78.2942 22.4111 82.17 14.1825L82.539 13.399L81.7555 13.768C73.527 17.6439 65.2984 21.5197 57.0699 25.3955L57.4956 25.5719C56.8801 23.8601 56.2645 22.1482 55.6489 20.4364C53.1867 13.5892 50.7244 6.74189 48.2621 -0.105388ZM47.676 0.105388L48.2621 -0.105388L47.969 -0.920378L47.676 -0.105388L48.2621 0.105388H47.676Z" fill="var(--stroke-0, #9C9C9C)" mask="url(#path-1-inside-1_0_20)"/>
</g>
<defs>
<linearGradient id="paint0_linear_0_20" x1="81.6977" y1="82.8818" x2="15.0068" y2="14.9288" gradientUnits="userSpaceOnUse">
<stop stop-color="#9C9C9C"/>
<stop offset="1" stop-color="#0F0404"/>
</linearGradient>
</defs>
</svg>
