<svg preserveAspectRatio="none" width="100%" height="100%" overflow="visible" style="display: block;" viewBox="0 0 63.958 63.958" fill="none" xmlns="http://www.w3.org/2000/svg">
<g id="Star 3">
<mask id="path-1-inside-1_0_14" fill="white">
<path d="M31.979 0L38.1346 17.118L54.5915 9.36643L46.84 25.8234L63.958 31.979L46.84 38.1346L54.5915 54.5915L38.1346 46.84L31.979 63.958L25.8234 46.84L9.36643 54.5915L17.118 38.1346L0 31.979L17.118 25.8234L9.36643 9.36643L25.8234 17.118L31.979 0Z"/>
</mask>
<path d="M31.979 0L38.1346 17.118L54.5915 9.36643L46.84 25.8234L63.958 31.979L46.84 38.1346L54.5915 54.5915L38.1346 46.84L31.979 63.958L25.8234 46.84L9.36643 54.5915L17.118 38.1346L0 31.979L17.118 25.8234L9.36643 9.36643L25.8234 17.118L31.979 0Z" fill="url(#paint0_linear_0_14)"/>
<path d="M32.1726 -0.0696343C32.0435 -0.0232114 31.9144 0.0232114 31.7853 0.0696343C33.4268 4.63443 35.0683 9.19923 36.7098 13.764C37.1202 14.9052 37.5306 16.0464 37.941 17.1876L38.0176 17.4006L38.2223 17.3041C43.7079 14.7203 49.1936 12.1364 54.6792 9.55259L54.4054 9.27874C51.8215 14.7644 49.2377 20.25 46.6538 25.7357L46.5574 25.9404L46.7704 26.017C52.4763 28.0689 58.1823 30.1208 63.8883 32.1726V31.7853C58.1823 33.8372 52.4763 35.8891 46.7704 37.941L46.5574 38.0176L46.6538 38.2223C49.2377 43.7079 51.8215 49.1936 54.4054 54.6792L54.6792 54.4054C49.1936 51.8215 43.7079 49.2377 38.2223 46.6538C38.2223 46.6538 38.2223 46.6538 38.2223 46.6538L38.0176 46.5574L37.941 46.7704C35.8891 52.4763 33.8372 58.1823 31.7853 63.8883H32.1726C30.1208 58.1823 28.0689 52.4763 26.017 46.7704L25.9404 46.5574L25.7357 46.6538C20.25 49.2377 14.7644 51.8215 9.27874 54.4054L9.55259 54.6792C12.1364 49.1936 14.7203 43.7079 17.3041 38.2223L17.4006 38.0176L17.1876 37.941C11.4816 35.8891 5.77563 33.8372 0.0696343 31.7853V32.1726C5.77563 30.1208 11.4816 28.0689 17.1876 26.017L17.4006 25.9404L17.3041 25.7357C14.7203 20.25 12.1364 14.7644 9.55259 9.27874L9.27874 9.55259C14.7644 12.1364 20.25 14.7203 25.7357 17.3041L25.9404 17.4006L26.017 17.1876C26.4274 16.0464 26.8378 14.9052 27.2481 13.764C28.8896 9.19923 30.5311 4.63443 32.1726 0.0696343C32.0435 0.0232114 31.9144 -0.0232114 31.7853 -0.0696343C30.1438 4.49516 28.5023 9.05996 26.8608 13.6248C26.4505 14.766 26.0401 15.9072 25.6297 17.0484L25.911 16.9318C20.4254 14.348 14.9398 11.7641 9.45412 9.18026L8.93641 8.93641L9.18026 9.45412C11.7641 14.9398 14.348 20.4254 16.9318 25.911L17.0484 25.6297C11.3424 27.6816 5.63636 29.7335 -0.0696343 31.7853L-0.608132 31.979L-0.0696343 32.1726C5.63636 34.2245 11.3424 36.2764 17.0484 38.3283L16.9318 38.0469C14.348 43.5326 11.7641 49.0182 9.18026 54.5039L8.93641 55.0216L9.45412 54.7777C14.9398 52.1939 20.4254 49.61 25.911 47.0261L25.6297 46.9096C27.6816 52.6156 29.7335 58.3216 31.7853 64.0276L31.979 64.5661L32.1726 64.0276C34.2245 58.3216 36.2764 52.6156 38.3283 46.9096L38.0469 47.0261C38.0469 47.0261 38.0469 47.0261 38.0469 47.0261C43.5326 49.61 49.0182 52.1939 54.5039 54.7777L55.0216 55.0216L54.7777 54.5039C52.1939 49.0182 49.61 43.5326 47.0261 38.0469L46.9096 38.3283C52.6156 36.2764 58.3216 34.2245 64.0276 32.1726L64.5661 31.979L64.0276 31.7853C58.3216 29.7335 52.6156 27.6816 46.9096 25.6297L47.0261 25.911C49.61 20.4254 52.1939 14.9398 54.7777 9.45412L55.0216 8.93641L54.5039 9.18026C49.0182 11.7641 43.5326 14.348 38.0469 16.9318L38.3283 17.0484C37.9179 15.9072 37.5075 14.766 37.0971 13.6248C35.4556 9.05996 33.8141 4.49516 32.1726 -0.0696343ZM31.7853 0.0696343L32.1726 -0.0696343L31.979 -0.608132L31.7853 -0.0696343L32.1726 0.0696343H31.7853Z" fill="var(--stroke-0, #9C9C9C)" mask="url(#path-1-inside-1_0_14)"/>
</g>
<defs>
<linearGradient id="paint0_linear_0_14" x1="54.4645" y1="55.2539" x2="10.0044" y2="9.95245" gradientUnits="userSpaceOnUse">
<stop stop-color="#9C9C9C"/>
<stop offset="1" stop-color="#0F0404"/>
</linearGradient>
</defs>
</svg>
