<svg preserveAspectRatio="none" width="100%" height="100%" overflow="visible" style="display: block;" viewBox="0 0 424.916 225.084" fill="none" xmlns="http://www.w3.org/2000/svg">
<g id="star shape" opacity="0.03" filter="url(#filter0_f_0_13)">
<path d="M174.401 84.1469L216.709 8.23752L255.329 79.4026L241.761 83.4692L257.904 85.1237L417.573 99.7753L257.904 147.405L216.709 216.988L167.556 152.149L196.116 147.405L164.959 147.179L7.34401 99.7753L174.401 84.1469Z" fill="var(--fill-0, #FF1654)"/>
<path d="M174.401 84.1469L216.709 8.23752L255.329 79.4026L241.761 83.4692L257.904 85.1237L417.573 99.7753L257.904 147.405L216.709 216.988L167.556 152.149L196.116 147.405L164.959 147.179L7.34401 99.7753L174.401 84.1469Z" stroke="url(#paint0_linear_0_13)"/>
</g>
<defs>
<filter id="filter0_f_0_13" x="0" y="3.57628e-07" width="424.916" height="225.084" filterUnits="userSpaceOnUse" color-interpolation-filters="sRGB">
<feFlood flood-opacity="0" result="BackgroundImageFix"/>
<feBlend mode="normal" in="SourceGraphic" in2="BackgroundImageFix" result="shape"/>
<feGaussianBlur stdDeviation="3.6" result="effect1_foregroundBlur_0_13"/>
</filter>
<linearGradient id="paint0_linear_0_13" x1="212.459" y1="8.23752" x2="212.459" y2="216.988" gradientUnits="userSpaceOnUse">
<stop stop-color="#FF1654"/>
<stop offset="1" stop-color="#0F0404"/>
</linearGradient>
</defs>
</svg>
