<svg preserveAspectRatio="none" width="100%" height="100%" overflow="visible" style="display: block;" viewBox="0 0 23 32" fill="none" xmlns="http://www.w3.org/2000/svg">
<path id="ARROW (Stroke)" d="M13.0388 0V24.2859C14.8352 21.4925 17.6095 18.4501 21.7778 16.5261L23 19.5977C18.9739 21.4561 16.4702 24.5551 14.9623 27.227C14.2087 28.5623 13.7108 29.7789 13.4038 30.6542C13.2507 31.0907 13.1463 31.4401 13.0812 31.6738C13.0486 31.7905 13.0252 31.8782 13.0115 31.9331C13.0047 31.9604 13.0004 31.9796 12.9979 31.9902C12.9967 31.9955 12.9964 32 12.9964 32V31.9967C12.9964 31.9967 12.994 31.9949 12.9888 31.9935L9.97182 31.9217L9.96576 31.9233V31.9266C9.96576 31.9266 9.96517 31.9233 9.96424 31.9184C9.96237 31.9087 9.95912 31.8895 9.95364 31.863C9.94266 31.8098 9.92341 31.7245 9.89609 31.6101C9.84114 31.3802 9.75115 31.0343 9.61438 30.602C9.3403 29.7358 8.88355 28.5298 8.16041 27.2058C6.7174 24.5638 4.22731 21.4701 0 19.6075L1.17529 16.5163C5.3894 18.3732 8.15328 21.2838 9.93698 24.0184V0H13.0388Z" fill="var(--fill-0, white)"/>
</svg>
