<svg preserveAspectRatio="none" width="100%" height="100%" overflow="visible" style="display: block;" viewBox="0 0 63.1071 63.1071" fill="none" xmlns="http://www.w3.org/2000/svg">
<g id="FW ARROW">
<circle id="Ellipse 3" cx="31.5535" cy="31.5535" r="31.0535" fill="var(--fill-0, #FF1654)" fill-opacity="0.2" stroke="var(--stroke-0, #FF1654)"/>
<path id="ARROW (Stroke)" d="M33.2177 15.9668V40.2023C35.0705 37.4147 37.932 34.3786 42.2311 32.4586L43.4917 35.5239C39.3392 37.3784 36.7569 40.471 35.2016 43.1374C34.4243 44.4699 33.9109 45.684 33.5942 46.5575C33.4363 46.9931 33.3287 47.3418 33.2615 47.5749C33.2279 47.6914 33.2037 47.779 33.1896 47.8337C33.1826 47.861 33.1781 47.8801 33.1755 47.8907C33.1743 47.896 33.1742 47.8996 33.174 47.9005V47.8972C33.1733 47.897 33.1716 47.8954 33.1662 47.894L30.0545 47.8223L30.0482 47.824V47.8272C30.0481 47.8267 30.0476 47.824 30.0466 47.8191C30.0447 47.8093 30.0414 47.7902 30.0357 47.7637C30.0244 47.7107 30.0045 47.6255 29.9763 47.5114C29.9197 47.282 29.8269 46.9368 29.6858 46.5054C29.4031 45.6409 28.932 44.4375 28.1862 43.1162C26.6979 40.4797 24.1296 37.3924 19.7695 35.5336L20.9817 32.4489C25.3282 34.3019 28.1788 37.2065 30.0185 39.9354V15.9668H33.2177Z" fill="var(--fill-0, white)"/>
</g>
</svg>
