<svg width="24" height="32" viewBox="0 0 24 32" fill="none" xmlns="http://www.w3.org/2000/svg">
<path d="M13.4761 0V24.2859C15.3328 21.4924 18.2002 18.4501 22.5082 16.5261L23.7714 19.5977C19.6103 21.4561 17.0226 24.5551 15.4641 27.227C14.6852 28.5623 14.1707 29.7789 13.8534 30.6542C13.6951 31.0907 13.5873 31.4401 13.5199 31.6737C13.4863 31.7905 13.462 31.8782 13.4479 31.9331C13.4409 31.9604 13.4364 31.9796 13.4338 31.9902C13.4326 31.9955 13.4325 31.9991 13.4323 32V31.9967C13.4316 31.9965 13.4299 31.9949 13.4244 31.9934L10.3063 31.9217L10.3 31.9233V31.9266C10.2999 31.926 10.2994 31.9233 10.2984 31.9184C10.2965 31.9086 10.2931 31.8895 10.2875 31.8629C10.2761 31.8097 10.2562 31.7244 10.228 31.6101C10.1712 31.3802 10.0782 31.0343 9.93684 30.602C9.65357 29.7357 9.1815 28.5298 8.43411 27.2058C6.9427 24.5638 4.36909 21.4701 0 19.6075L1.21471 16.5163C5.57016 18.3731 8.42674 21.2838 10.2703 24.0183V0H13.4761Z" fill="white"/>
</svg>
