<svg width="24" height="32" viewBox="0 0 24 32" fill="none" xmlns="http://www.w3.org/2000/svg">
<path d="M13.4761 32V7.71415C15.3328 10.5076 18.2002 13.5499 22.5082 15.4739L23.7714 12.4023C19.6103 10.5439 17.0226 7.44489 15.4641 4.77303C14.6852 3.43774 14.1707 2.22112 13.8534 1.3458C13.6951 0.909286 13.5873 0.559887 13.5199 0.326276C13.4863 0.209519 13.462 0.121796 13.4479 0.0669072C13.4409 0.0396386 13.4364 0.0204166 13.4338 0.00981456C13.4326 0.00452215 13.4325 0.000932718 13.4323 2.67583e-05V0.00328936C13.4316 0.00353401 13.4299 0.0051376 13.4244 0.00655196L10.3063 0.0783273L10.3 0.076695V0.0734324C10.2999 0.0739504 10.2994 0.076718 10.2984 0.0815899C10.2965 0.0913701 10.2931 0.11051 10.2875 0.13705C10.2761 0.190252 10.2562 0.275572 10.228 0.389893C10.1712 0.619799 10.0782 0.965684 9.93684 1.398C9.65357 2.26427 9.1815 3.47018 8.43411 4.79423C6.9427 7.43623 4.36909 10.5299 0 12.3925L1.21471 15.4837C5.57016 13.6269 8.42674 10.7162 10.2703 7.98167V32H13.4761Z" fill="white"/>
</svg>
