<svg width="174" height="37" viewBox="0 0 174 37" fill="none" xmlns="http://www.w3.org/2000/svg">
<path d="M0.52932 0.00772378H7.37934V1.2921H1.96938V5.38655H7.17695V6.67871H1.96938V11.0689H7.37934V12.3533H0.52932V0.00772378ZM14.4793 7.03678C14.4793 5.86916 14.3522 5.07778 14.0979 4.66262C13.8436 4.24747 13.3091 4.03989 12.4944 4.03989C11.6692 4.03989 11.0647 4.26044 10.6807 4.70154C10.4108 5.0181 10.237 5.43066 10.1591 5.93922V12.3533H8.72684V3.12915H10.1591V3.99319C10.1591 4.0347 10.1513 4.07622 10.1358 4.11774L9.83219 4.74046L9.83997 4.74825C9.98008 4.49916 10.1591 4.25266 10.3771 4.00876C10.9479 3.35489 11.7756 3.02796 12.8602 3.02796C12.9329 3.02796 13.0081 3.03055 13.0859 3.03574C14.2276 3.08764 14.9827 3.45349 15.3511 4.1333C15.7196 4.81312 15.9038 5.77835 15.9038 7.02899V12.3533H14.4793V7.03678ZM20.5645 12.3533C19.7394 12.3533 19.1712 12.208 18.8598 11.9174C18.5536 11.6268 18.4005 11.0819 18.4005 10.2828V4.19558H16.8126V3.12915H17.2096C17.4172 3.12915 17.6066 3.09283 17.7778 3.02018C17.9543 2.94233 18.1048 2.83855 18.2293 2.70881C18.359 2.57389 18.4576 2.41561 18.5251 2.23398C18.5977 2.05235 18.6341 1.85256 18.6341 1.6346V-6.06992e-05H20.0586V1.6346C20.0586 1.86813 20.0274 2.07051 19.9652 2.24176C19.9029 2.40783 19.8173 2.54794 19.7083 2.66211C19.6045 2.77627 19.4851 2.86449 19.3502 2.92677C19.2153 2.98385 19.0752 3.02018 18.9299 3.03574V3.12915H23.0632V4.19558H19.8328V9.94025C19.8328 10.4696 19.9262 10.8147 20.1131 10.9755C20.3051 11.1364 20.6035 11.2168 21.0082 11.2168C21.5272 11.2168 22.2148 11.2143 23.071 11.2091V12.3533C22.0902 12.3533 21.2547 12.3533 20.5645 12.3533ZM29.6909 6.632C29.6909 5.64602 29.5767 4.97139 29.3484 4.60813C29.1201 4.23969 28.6219 4.05546 27.8539 4.05546C27.0703 4.05546 26.5072 4.26304 26.1647 4.67819C25.8689 5.03626 25.7029 5.49033 25.6665 6.04041V12.3533H24.2343V3.05131H25.6665V3.90756C25.6665 3.94389 25.6613 3.98281 25.651 4.02433L25.3863 4.50694L25.4564 4.65484L25.4719 4.63927C25.6017 4.36423 25.7755 4.10995 25.9935 3.87643C26.5072 3.32635 27.3064 3.05131 28.391 3.05131C29.5015 3.05131 30.2332 3.3523 30.5861 3.95427C30.9442 4.55105 31.1232 5.44363 31.1232 6.632H29.6909ZM35.4598 11.3103H35.5532L37.8028 3.12915H39.2974L36.6118 12.3533C36.1189 13.7856 35.6778 14.5692 35.2885 14.7041C34.9045 14.8442 33.9678 14.9143 32.4785 14.9143C32.4266 14.9143 32.3721 14.9143 32.315 14.9143V13.7078C33.6383 13.7078 34.3882 13.6662 34.5646 13.5832C34.7359 13.5002 34.972 13.0902 35.273 12.3533H34.658L31.9414 3.12915H33.4359L35.4831 10.1816C35.5143 10.2905 35.535 10.4021 35.5454 10.5163L35.4598 11.3103ZM45.6171 4.19558H43.9435V3.12915H46.1075L46.1153 3.04353C46.0789 3.03834 46.0348 3.02277 45.9829 2.99682C45.9103 2.99682 45.8117 2.97607 45.6871 2.93455C45.5678 2.88785 45.4484 2.8126 45.3291 2.70881C45.2149 2.60502 45.1163 2.46491 45.0333 2.28847C44.9502 2.10684 44.9087 1.8811 44.9087 1.61125C44.9087 1.00928 45.0956 0.591532 45.4692 0.358009C45.8428 0.124485 46.4085 0.00772378 47.1661 0.00772378H49.8906V1.06636H47.314C46.5979 1.06636 46.2398 1.38811 46.2398 2.03159C46.2398 2.04197 46.2424 2.21322 46.2476 2.54534C46.2528 2.87747 46.6394 3.07207 47.4074 3.12915H49.9061V4.19558H47.0416V12.3533H45.6171V4.19558ZM58.0503 8.81156C57.9828 9.85463 57.7986 10.6253 57.4976 11.1234C57.1966 11.6216 56.81 11.9641 56.3378 12.1509C55.8707 12.3378 55.1546 12.4312 54.1893 12.4312C52.6221 12.4312 51.5739 12.0861 51.0446 11.3959C50.5101 10.7057 50.2428 9.48099 50.2428 7.72178C50.2428 5.91068 50.5152 4.67819 51.0601 4.02433C51.605 3.37046 52.6403 3.04353 54.166 3.04353C55.7124 3.04353 56.7477 3.37046 57.2719 4.02433C57.8012 4.67819 58.0658 5.79651 58.0658 7.37928L58.058 7.8074H51.6284C51.6543 9.36942 51.8308 10.3632 52.1577 10.7887C52.5106 11.2506 53.1878 11.4815 54.1893 11.4815C54.8121 11.4815 55.2558 11.4296 55.5204 11.3258C55.7903 11.2168 56.0238 10.9652 56.221 10.5708C56.4234 10.1712 56.5583 9.58478 56.6258 8.81156H58.0503ZM56.6413 6.9745C56.6361 5.75499 56.4597 4.95323 56.112 4.56921C55.7643 4.1852 55.1182 3.99319 54.1738 3.99319C53.2137 3.99319 52.5495 4.19558 52.181 4.60035C51.8489 4.9688 51.6673 5.76018 51.6362 6.9745H56.6413ZM67.0354 8.81156C66.968 9.85463 66.7838 10.6253 66.4828 11.1234C66.1818 11.6216 65.7952 11.9641 65.3229 12.1509C64.8559 12.3378 64.1398 12.4312 63.1745 12.4312C61.6073 12.4312 60.5591 12.0861 60.0297 11.3959C59.4952 10.7057 59.228 9.48099 59.228 7.72178C59.228 5.91068 59.5004 4.67819 60.0453 4.02433C60.5902 3.37046 61.6255 3.04353 63.1512 3.04353C64.6976 3.04353 65.7329 3.37046 66.257 4.02433C66.7863 4.67819 67.051 5.79651 67.051 7.37928L67.0432 7.8074H60.6135C60.6395 9.36942 60.8159 10.3632 61.1429 10.7887C61.4957 11.2506 62.173 11.4815 63.1745 11.4815C63.7973 11.4815 64.2409 11.4296 64.5056 11.3258C64.7755 11.2168 65.009 10.9652 65.2062 10.5708C65.4086 10.1712 65.5435 9.58478 65.6109 8.81156H67.0354ZM65.6265 6.9745C65.6213 5.75499 65.4449 4.95323 65.0972 4.56921C64.7495 4.1852 64.1034 3.99319 63.159 3.99319C62.1989 3.99319 61.5347 4.19558 61.1662 4.60035C60.8341 4.9688 60.6525 5.76018 60.6213 6.9745H65.6265Z" fill="white"/>
<path d="M103.248 0.00772378H107.685C108.78 0.00772378 109.554 0.319088 110.005 0.941817C110.462 1.56455 110.69 2.71659 110.69 4.39796C110.69 6.07933 110.462 7.23138 110.005 7.85411C109.554 8.47684 108.78 8.7882 107.685 8.7882H104.696V12.3533H103.248V0.00772378ZM107.343 7.58945C108.054 7.58945 108.552 7.4182 108.837 7.0757C109.123 6.72801 109.266 5.83543 109.266 4.39796C109.266 2.96569 109.123 2.0757 108.837 1.72801C108.552 1.38032 108.054 1.20648 107.343 1.20648H104.688V7.58945H107.343ZM117.451 6.632C117.451 5.64602 117.336 4.97139 117.108 4.60813C116.88 4.23969 116.382 4.05546 115.614 4.05546C114.83 4.05546 114.267 4.26304 113.924 4.67819C113.629 5.03626 113.463 5.49033 113.426 6.04041V12.3533H111.994V3.05131H113.426V3.90756C113.426 3.94389 113.421 3.98281 113.411 4.02433L113.146 4.50694L113.216 4.65484L113.232 4.63927C113.361 4.36423 113.535 4.10995 113.753 3.87643C114.267 3.32635 115.066 3.05131 116.151 3.05131C117.261 3.05131 117.993 3.3523 118.346 3.95427C118.704 4.55105 118.883 5.44363 118.883 6.632H117.451ZM121.823 0.607101V2.06273H120.39V0.607101H121.823ZM120.39 3.12137H121.823V12.3533H120.39V3.12137ZM129.607 11.248V12.3533H123.224V11.3414L128.104 3.89978L128.019 3.85308L127.536 4.17222C127.479 4.21374 127.401 4.2345 127.303 4.2345H123.286V3.12915H129.521V4.14887L124.711 11.6061L124.804 11.6372L125.255 11.3103C125.313 11.2687 125.39 11.248 125.489 11.248H129.607ZM138.467 8.81156C138.399 9.85463 138.215 10.6253 137.914 11.1234C137.613 11.6216 137.227 11.9641 136.754 12.1509C136.287 12.3378 135.571 12.4312 134.606 12.4312C133.039 12.4312 131.99 12.0861 131.461 11.3959C130.927 10.7057 130.659 9.48099 130.659 7.72178C130.659 5.91068 130.932 4.67819 131.477 4.02433C132.022 3.37046 133.057 3.04353 134.582 3.04353C136.129 3.04353 137.164 3.37046 137.688 4.02433C138.218 4.67819 138.482 5.79651 138.482 7.37928L138.475 7.8074H132.045C132.071 9.36942 132.247 10.3632 132.574 10.7887C132.927 11.2506 133.604 11.4815 134.606 11.4815C135.229 11.4815 135.672 11.4296 135.937 11.3258C136.207 11.2168 136.44 10.9652 136.638 10.5708C136.84 10.1712 136.975 9.58478 137.042 8.81156H138.467ZM137.058 6.9745C137.053 5.75499 136.876 4.95323 136.529 4.56921C136.181 4.1852 135.535 3.99319 134.59 3.99319C133.63 3.99319 132.966 4.19558 132.598 4.60035C132.265 4.9688 132.084 5.76018 132.053 6.9745H137.058Z" fill="white"/>
<ellipse cx="7.39491" cy="28.8761" rx="7.39491" ry="7.39491" fill="#FF1654"/>
<path d="M18.9714 32.3607C18.9714 31.1401 19.3762 30.1874 20.1857 29.5024C21.0015 28.8174 22.2594 28.2413 23.9594 27.7743C25.6097 27.3197 26.5874 26.9834 26.8925 26.7655C27.1976 26.5475 27.3502 26.1801 27.3502 25.6632C27.3502 25.0094 27.2039 24.6233 26.9112 24.505C26.6185 24.3866 26.1919 24.3275 25.6315 24.3275C24.9589 24.3275 24.4234 24.4147 24.0248 24.589C23.6325 24.7634 23.4363 25.2772 23.4363 26.1303H18.934C18.934 24.3057 19.5038 22.9637 20.6434 22.1043C21.783 21.2388 23.455 20.806 25.6595 20.806C27.9075 20.806 29.508 21.2388 30.4607 22.1043C31.4197 22.9637 31.8992 24.1095 31.8992 25.5418C31.8992 26.9803 31.4509 28.0763 30.5541 28.8298C29.6636 29.5771 28.5303 30.1687 27.154 30.6046C25.9833 30.9284 25.1177 31.1682 24.5573 31.3239C24.003 31.4733 23.7259 31.685 23.7259 31.959H31.8712V35.5927H18.9714V32.3607ZM36.5824 32.6596V35.5927H32.4163V32.6596H36.5824ZM37.1607 32.3607C37.1607 31.1401 37.5654 30.1874 38.375 29.5024C39.1908 28.8174 40.4487 28.2413 42.1487 27.7743C43.799 27.3197 44.7766 26.9834 45.0818 26.7655C45.3869 26.5475 45.5395 26.1801 45.5395 25.6632C45.5395 25.0094 45.3931 24.6233 45.1005 24.505C44.8078 24.3866 44.3812 24.3275 43.8207 24.3275C43.1482 24.3275 42.6127 24.4147 42.2141 24.589C41.8218 24.7634 41.6256 25.2772 41.6256 26.1303H37.1233C37.1233 24.3057 37.6931 22.9637 38.8327 22.1043C39.9723 21.2388 41.6443 20.806 43.8488 20.806C46.0968 20.806 47.6972 21.2388 48.65 22.1043C49.609 22.9637 50.0885 24.1095 50.0885 25.5418C50.0885 26.9803 49.6402 28.0763 48.7434 28.8298C47.8529 29.5771 46.7196 30.1687 45.3433 30.6046C44.1726 30.9284 43.307 31.1682 42.7465 31.3239C42.1923 31.4733 41.9152 31.685 41.9152 31.959H50.0605V35.5927H37.1607V32.3607ZM56.9855 35.7421C54.8246 35.7421 53.2211 35.191 52.1749 34.0888C51.1287 32.9803 50.6056 31.5636 50.6056 29.8386V26.7001C50.6056 24.9751 51.1318 23.5615 52.1842 22.4593C53.2429 21.3571 54.8433 20.806 56.9855 20.806C59.1339 20.806 60.7312 21.3571 61.7774 22.4593C62.8298 23.5615 63.356 24.9751 63.356 26.7001V29.8386C63.356 31.5636 62.8298 32.9803 61.7774 34.0888C60.7312 35.191 59.1339 35.7421 56.9855 35.7421ZM56.9855 32.2206C57.6331 32.2206 58.1002 31.9902 58.3866 31.5294C58.6731 31.0685 58.8163 30.6264 58.8163 30.2029V26.3358C58.8163 25.9061 58.6731 25.464 58.3866 25.0094C58.1064 24.5486 57.6393 24.3181 56.9855 24.3181C56.3005 24.3181 55.8179 24.5454 55.5376 25C55.2636 25.4546 55.1266 25.8999 55.1266 26.3358V30.2029C55.1266 30.6388 55.2636 31.0841 55.5376 31.5387C55.8179 31.9933 56.3005 32.2206 56.9855 32.2206Z" fill="white"/>
<path d="M77.8411 28.3032H87.2933C86.2061 27.6345 85.022 26.6016 84.2732 25.0499L85.4687 24.5948C86.192 26.0937 87.3981 27.0258 88.438 27.5872C88.9577 27.8677 89.4313 28.0531 89.7719 28.1674C89.9418 28.2244 90.0778 28.2632 90.1687 28.2875C90.2142 28.2996 90.2483 28.3083 90.2697 28.3134C90.2803 28.3159 90.2878 28.3175 90.2919 28.3185C90.294 28.3189 90.2957 28.319 90.2957 28.319H90.2944C90.2944 28.319 90.2937 28.3199 90.2932 28.3219L90.2652 29.445L90.2659 29.4473H90.2671C90.2671 29.4473 90.2659 29.4475 90.264 29.4478C90.2602 29.4485 90.2527 29.4498 90.2424 29.4518C90.2217 29.4559 90.1885 29.4631 90.144 29.4732C90.0545 29.4937 89.9199 29.5272 89.7516 29.5781C89.4145 29.6801 88.9451 29.8502 88.4298 30.1194C87.4015 30.6566 86.1974 31.5836 85.4725 33.1574L84.2694 32.7198C84.9921 31.151 86.1249 30.122 87.1892 29.458H77.8411V28.3032Z" fill="white"/>
<path d="M136.521 32.7624H129.468V29.2315L134.83 20.806H141.033V29.3436H142.807V32.7624H141.033V35.5927H136.521V32.7624ZM136.521 29.3436V25.7473L137.464 23.9725L137.24 23.8231L133.905 29.3436H136.521ZM147.482 32.6596V35.5927H143.316V32.6596H147.482ZM154.402 35.7421C152.242 35.7421 150.638 35.191 149.592 34.0888C148.546 32.9803 148.023 31.5636 148.023 29.8386V26.7001C148.023 24.9751 148.549 23.5615 149.601 22.4593C150.66 21.3571 152.26 20.806 154.402 20.806C156.551 20.806 158.148 21.3571 159.194 22.4593C160.247 23.5615 160.773 24.9751 160.773 26.7001V29.8386C160.773 31.5636 160.247 32.9803 159.194 34.0888C158.148 35.191 156.551 35.7421 154.402 35.7421ZM154.402 32.2206C155.05 32.2206 155.517 31.9902 155.804 31.5294C156.09 31.0685 156.233 30.6264 156.233 30.2029V26.3358C156.233 25.9061 156.09 25.464 155.804 25.0094C155.523 24.5486 155.056 24.3181 154.402 24.3181C153.717 24.3181 153.235 24.5454 152.955 25C152.681 25.4546 152.544 25.8999 152.544 26.3358V30.2029C152.544 30.6388 152.681 31.0841 152.955 31.5387C153.235 31.9933 153.717 32.2206 154.402 32.2206ZM167.629 35.7421C165.469 35.7421 163.865 35.191 162.819 34.0888C161.773 32.9803 161.25 31.5636 161.25 29.8386V26.7001C161.25 24.9751 161.776 23.5615 162.828 22.4593C163.887 21.3571 165.487 20.806 167.629 20.806C169.778 20.806 171.375 21.3571 172.421 22.4593C173.474 23.5615 174 24.9751 174 26.7001V29.8386C174 31.5636 173.474 32.9803 172.421 34.0888C171.375 35.191 169.778 35.7421 167.629 35.7421ZM167.629 32.2206C168.277 32.2206 168.744 31.9902 169.031 31.5294C169.317 31.0685 169.46 30.6264 169.46 30.2029V26.3358C169.46 25.9061 169.317 25.464 169.031 25.0094C168.75 24.5486 168.283 24.3181 167.629 24.3181C166.944 24.3181 166.462 24.5454 166.182 25C165.908 25.4546 165.771 25.8999 165.771 26.3358V30.2029C165.771 30.6388 165.908 31.0841 166.182 31.5387C166.462 31.9933 166.944 32.2206 167.629 32.2206Z" fill="white"/>
<path d="M120.654 36.271H102.75V21.4812L106.48 28.8761L105.734 32.9433L112.011 21.4812L116.178 28.8761L115.805 32.9433L120.654 21.4812V36.271Z" fill="#FF1654"/>
</svg>
