<svg width="224" height="47" viewBox="0 0 224 47" fill="none" xmlns="http://www.w3.org/2000/svg">
<path d="M0.681886 0.010022H9.5063V1.6646H2.53702V6.93919H9.24557V8.60379H2.53702V14.2594H9.5063V15.914H0.681886V0.010022ZM18.6527 9.06507C18.6527 7.56091 18.4889 6.54142 18.1613 6.00661C17.8338 5.4718 17.1452 5.20439 16.0956 5.20439C15.0327 5.20439 14.2539 5.48851 13.7592 6.05675C13.4115 6.46454 13.1876 6.99601 13.0873 7.65116V15.914H11.2422V4.03114H13.0873V5.14422C13.0873 5.1977 13.0773 5.25119 13.0572 5.30467L12.6661 6.10689L12.6762 6.11691C12.8567 5.79603 13.0873 5.47848 13.3681 5.16428C14.1034 4.32195 15.1697 3.90078 16.5669 3.90078C16.6605 3.90078 16.7574 3.90413 16.8577 3.91081C18.3285 3.97766 19.3011 4.44897 19.7758 5.32472C20.2504 6.20048 20.4878 7.44392 20.4878 9.05504V15.914H18.6527V9.06507ZM26.4919 15.914C25.4289 15.914 24.6969 15.7268 24.2958 15.3525C23.9014 14.9781 23.7042 14.2762 23.7042 13.2466V5.40494H21.6585V4.03114H22.1699C22.4373 4.03114 22.6813 3.98435 22.9019 3.89076C23.1292 3.79048 23.3231 3.65678 23.4836 3.48965C23.6507 3.31583 23.7777 3.11194 23.8646 2.87796C23.9582 2.64397 24.005 2.3866 24.005 2.10582V-6.21608e-06H25.8401V2.10582C25.8401 2.40665 25.8 2.66737 25.7197 2.88798C25.6395 3.10191 25.5292 3.28241 25.3888 3.42948C25.2551 3.57655 25.1014 3.6902 24.9275 3.77042C24.7537 3.84396 24.5732 3.89076 24.386 3.91081V4.03114H29.7108V5.40494H25.5493V12.8054C25.5493 13.4873 25.6696 13.9319 25.9103 14.1391C26.1576 14.3463 26.542 14.45 27.0635 14.45C27.732 14.45 28.6178 14.4466 29.7208 14.4399V15.914C28.4573 15.914 27.381 15.914 26.4919 15.914ZM38.2488 8.54363C38.2488 7.27345 38.1017 6.40438 37.8075 5.93641C37.5134 5.46177 36.8716 5.22445 35.8822 5.22445C34.8728 5.22445 34.1474 5.49185 33.7062 6.02666C33.3251 6.48794 33.1112 7.07289 33.0644 7.78152V15.914H31.2193V3.93087H33.0644V5.03392C33.0644 5.08071 33.0577 5.13085 33.0444 5.18433L32.7034 5.80605L32.7937 5.99658L32.8137 5.97653C32.9809 5.62221 33.2048 5.29464 33.4856 4.99381C34.1474 4.28518 35.1769 3.93087 36.5741 3.93087C38.0048 3.93087 38.9474 4.31861 39.402 5.09409C39.8632 5.86288 40.0939 7.01273 40.0939 8.54363H38.2488ZM45.6804 14.5703H45.8008L48.6988 4.03114H50.6241L47.1645 15.914C46.5294 17.7591 45.9612 18.7686 45.4598 18.9424C44.9651 19.1229 43.7584 19.2131 41.8398 19.2131C41.7729 19.2131 41.7027 19.2131 41.6292 19.2131V17.6588C43.3339 17.6588 44.2999 17.6054 44.5272 17.4984C44.7478 17.3914 45.052 16.8633 45.4398 15.914H44.6476L41.1479 4.03114H43.0732L45.7105 13.1163C45.7506 13.2567 45.7774 13.4004 45.7907 13.5475L45.6804 14.5703ZM58.7654 5.40494H56.6094V4.03114H59.3971L59.4071 3.92084C59.3603 3.91415 59.3035 3.8941 59.2367 3.86067C59.1431 3.86067 59.0161 3.83393 58.8556 3.78045C58.7019 3.72028 58.5481 3.62335 58.3943 3.48965C58.2473 3.35594 58.1202 3.17544 58.0133 2.94815C57.9063 2.71417 57.8528 2.42336 57.8528 2.07574C57.8528 1.30026 58.0935 0.762102 58.5748 0.46127C59.0562 0.160438 59.7848 0.010022 60.7609 0.010022H64.2706V1.37379H60.9514C60.0289 1.37379 59.5676 1.78827 59.5676 2.61723C59.5676 2.6306 59.5709 2.85121 59.5776 3.27906C59.5843 3.70691 60.0823 3.95761 61.0717 4.03114H64.2906V5.40494H60.6004V15.914H58.7654V5.40494ZM74.7822 11.3514C74.6953 12.6951 74.4579 13.6879 74.0702 14.3296C73.6825 14.9714 73.1844 15.4126 72.5761 15.6533C71.9744 15.894 71.0518 16.0143 69.8084 16.0143C67.7895 16.0143 66.4391 15.5697 65.7572 14.6806C65.0686 13.7915 64.7243 12.2138 64.7243 9.94751C64.7243 7.61439 65.0753 6.02666 65.7773 5.18433C66.4792 4.342 67.8129 3.92084 69.7783 3.92084C71.7705 3.92084 73.1042 4.342 73.7794 5.18433C74.4613 6.02666 74.8022 7.46732 74.8022 9.50629L74.7922 10.0578H66.5093C66.5427 12.07 66.77 13.3503 67.1912 13.8984C67.6458 14.4934 68.5182 14.7909 69.8084 14.7909C70.6106 14.7909 71.1822 14.7241 71.5232 14.5904C71.8708 14.45 72.1716 14.1257 72.4256 13.6177C72.6864 13.1029 72.8602 12.3475 72.9471 11.3514H74.7822ZM72.9671 8.98485C72.9605 7.41384 72.7332 6.38098 72.2853 5.88628C71.8374 5.39158 71.0051 5.14422 69.7884 5.14422C68.5516 5.14422 67.6959 5.40495 67.2213 5.92639C66.7934 6.40103 66.5594 7.42052 66.5193 8.98485H72.9671ZM86.3572 11.3514C86.2702 12.6951 86.0329 13.6879 85.6452 14.3296C85.2574 14.9714 84.7594 15.4126 84.151 15.6533C83.5494 15.894 82.6268 16.0143 81.3834 16.0143C79.3645 16.0143 78.0141 15.5697 77.3322 14.6806C76.6436 13.7915 76.2993 12.2138 76.2993 9.94751C76.2993 7.61439 76.6503 6.02666 77.3522 5.18433C78.0542 4.342 79.3879 3.92084 81.3533 3.92084C83.3455 3.92084 84.6792 4.342 85.3544 5.18433C86.0363 6.02666 86.3772 7.46732 86.3772 9.50629L86.3672 10.0578H78.0843C78.1177 12.07 78.345 13.3503 78.7662 13.8984C79.2207 14.4934 80.0932 14.7909 81.3834 14.7909C82.1856 14.7909 82.7572 14.7241 83.0981 14.5904C83.4458 14.45 83.7466 14.1257 84.0006 13.6177C84.2614 13.1029 84.4352 12.3475 84.5221 11.3514H86.3572ZM84.5421 8.98485C84.5354 7.41384 84.3081 6.38098 83.8602 5.88628C83.4123 5.39158 82.58 5.14422 81.3633 5.14422C80.1266 5.14422 79.2709 5.40495 78.7962 5.92639C78.3684 6.40103 78.1344 7.42052 78.0943 8.98485H84.5421Z" fill="white"/>
<path d="M133.008 0.010022H138.724C140.134 0.010022 141.13 0.411131 141.712 1.21335C142.3 2.01557 142.594 3.49967 142.594 5.66567C142.594 7.83166 142.3 9.31576 141.712 10.118C141.13 10.9202 140.134 11.3213 138.724 11.3213H134.873V15.914H133.008V0.010022ZM138.282 9.77704C139.198 9.77704 139.84 9.55643 140.208 9.11521C140.576 8.6673 140.759 7.51745 140.759 5.66567C140.759 3.82056 140.576 2.67406 140.208 2.22615C139.84 1.77825 139.198 1.55429 138.282 1.55429H134.863V9.77704H138.282ZM151.304 8.54363C151.304 7.27345 151.157 6.40438 150.862 5.93641C150.568 5.46177 149.927 5.22445 148.937 5.22445C147.928 5.22445 147.202 5.49185 146.761 6.02666C146.38 6.48794 146.166 7.07289 146.119 7.78152V15.914H144.274V3.93087H146.119V5.03392C146.119 5.08071 146.113 5.13085 146.099 5.18433L145.758 5.80605L145.849 5.99658L145.869 5.97653C146.036 5.62221 146.26 5.29464 146.54 4.99381C147.202 4.28518 148.232 3.93087 149.629 3.93087C151.06 3.93087 152.002 4.31861 152.457 5.09409C152.918 5.86288 153.149 7.01273 153.149 8.54363H151.304ZM156.936 0.782158V2.65735H155.091V0.782158H156.936ZM155.091 4.02112H156.936V15.914H155.091V4.02112ZM166.964 14.4901V15.914H158.741V14.6104L165.028 5.02389L164.918 4.96373L164.296 5.37486C164.223 5.42834 164.122 5.45508 163.995 5.45508H158.821V4.03114H166.853V5.34478L160.656 14.9514L160.776 14.9915L161.358 14.5703C161.432 14.5168 161.532 14.4901 161.659 14.4901H166.964ZM178.377 11.3514C178.29 12.6951 178.053 13.6879 177.665 14.3296C177.278 14.9714 176.78 15.4126 176.171 15.6533C175.57 15.894 174.647 16.0143 173.404 16.0143C171.385 16.0143 170.034 15.5697 169.352 14.6806C168.664 13.7915 168.319 12.2138 168.319 9.94751C168.319 7.61439 168.67 6.02666 169.372 5.18433C170.074 4.342 171.408 3.92084 173.373 3.92084C175.366 3.92084 176.699 4.342 177.375 5.18433C178.056 6.02666 178.397 7.46732 178.397 9.50629L178.387 10.0578H170.104C170.138 12.07 170.365 13.3503 170.786 13.8984C171.241 14.4934 172.113 14.7909 173.404 14.7909C174.206 14.7909 174.777 14.7241 175.118 14.5904C175.466 14.45 175.767 14.1257 176.021 13.6177C176.282 13.1029 176.455 12.3475 176.542 11.3514H178.377ZM176.562 8.98485C176.556 7.41384 176.328 6.38098 175.88 5.88628C175.432 5.39158 174.6 5.14422 173.383 5.14422C172.147 5.14422 171.291 5.40495 170.816 5.92639C170.389 6.40103 170.155 7.42052 170.114 8.98485H176.562Z" fill="white"/>
<circle cx="9.52635" cy="37.4736" r="9.52635" fill="#FF1654"/>
<path d="M32.6102 46.1898C29.8265 46.1898 27.7608 45.4798 26.4131 44.0599C25.0653 42.6319 24.3915 40.8069 24.3915 38.5847V34.5415C24.3915 32.3194 25.0693 30.4984 26.4251 29.0784C27.7889 27.6585 29.8506 26.9485 32.6102 26.9485C35.3779 26.9485 37.4355 27.6585 38.7833 29.0784C40.139 30.4984 40.8169 32.3194 40.8169 34.5415V38.5847C40.8169 40.8069 40.139 42.6319 38.7833 44.0599C37.4355 45.4798 35.3779 46.1898 32.6102 46.1898ZM32.6102 41.6532C33.4445 41.6532 34.0462 41.3564 34.4152 40.7627C34.7842 40.1691 34.9687 39.5995 34.9687 39.054V34.0722C34.9687 33.5187 34.7842 32.9491 34.4152 32.3635C34.0542 31.7699 33.4525 31.4731 32.6102 31.4731C31.7278 31.4731 31.106 31.7659 30.745 32.3515C30.3921 32.9371 30.2156 33.5107 30.2156 34.0722V39.054C30.2156 39.6156 30.3921 40.1892 30.745 40.7748C31.106 41.3604 31.7278 41.6532 32.6102 41.6532ZM46.7976 42.2188V45.9972H41.4308V42.2188H46.7976ZM47.4944 31.9303V26.9485H64.2568V31.8581L56.8323 45.9972H50.5268L59.3232 30.017L58.9501 29.7884L57.7949 31.7979C57.7548 31.8862 57.6786 31.9303 57.5663 31.9303H47.4944ZM72.8879 46.1657C70.5694 46.1657 68.6602 45.6603 67.16 44.6495C65.6599 43.6387 64.9098 42.0824 64.9098 39.9806H70.7339C70.766 40.9673 70.9986 41.5128 71.4318 41.6171C71.8731 41.7214 72.4667 41.7735 73.2128 41.7735C73.9909 41.7735 74.5886 41.6733 75.0057 41.4727C75.4229 41.2722 75.6315 40.5622 75.6315 39.3428C75.6315 38.2518 75.4189 37.614 74.9937 37.4295C74.5685 37.237 73.9749 37.1407 73.2128 37.1407C72.4747 37.1407 71.8891 37.1969 71.4559 37.3092C71.0227 37.4135 70.782 37.7143 70.7339 38.2117H64.9098L65.5596 26.9485H81.0224V31.6415H70.7339V33.5067C70.7339 33.5628 70.7058 33.611 70.6497 33.6511L68.592 34.6258L68.7604 34.9988L70.7339 34.1083V34.1565C72.1859 33.5388 73.7382 33.2299 75.3908 33.2299C77.26 33.2299 78.7561 33.6992 79.8792 34.6378C81.0023 35.5684 81.5639 37.0846 81.5639 39.1864C81.5639 41.7054 80.8098 43.4983 79.3016 44.5653C77.8015 45.6322 75.6635 46.1657 72.8879 46.1657Z" fill="white"/>
<path d="M100.277 36.7357H112.454C111.053 35.8741 109.528 34.5436 108.563 32.5446L110.103 31.9584C111.035 33.8893 112.589 35.09 113.929 35.8132C114.598 36.1746 115.208 36.4134 115.647 36.5606C115.866 36.634 116.041 36.6841 116.158 36.7153C116.217 36.7309 116.261 36.7422 116.288 36.7487C116.302 36.752 116.312 36.7541 116.317 36.7553C116.32 36.7559 116.322 36.756 116.322 36.756H116.32C116.32 36.756 116.319 36.7571 116.318 36.7596L116.282 38.2065L116.283 38.2095H116.285C116.285 38.2095 116.283 38.2097 116.281 38.2102C116.276 38.2111 116.266 38.2126 116.253 38.2153C116.226 38.2205 116.184 38.2298 116.126 38.2429C116.011 38.2692 115.838 38.3124 115.621 38.378C115.186 38.5094 114.582 38.7285 113.918 39.0753C112.593 39.7673 111.042 40.9615 110.108 42.9889L108.558 42.4252C109.489 40.4042 110.949 39.0787 112.32 38.2233H100.277V36.7357Z" fill="white"/>
<path d="M166.882 41.2802H172.032V33.1697L173.644 32.6042L173.524 32.2191L166.882 34.2287V29.0423L173.067 26.9485H177.844V41.2802H182.766V45.9972H166.882V41.2802ZM188.792 42.2188V45.9972H183.425V42.2188H188.792ZM198.574 42.3511H189.489V37.8026L196.396 26.9485H204.386V37.947H206.672V42.3511H204.386V45.9972H198.574V42.3511ZM198.574 37.947V33.3141L199.789 31.0278L199.5 30.8353L195.205 37.947H198.574ZM215.546 46.1898C212.762 46.1898 210.696 45.4798 209.349 44.0599C208.001 42.6319 207.327 40.8069 207.327 38.5847V34.5415C207.327 32.3194 208.005 30.4984 209.361 29.0784C210.725 27.6585 212.786 26.9485 215.546 26.9485C218.314 26.9485 220.371 27.6585 221.719 29.0784C223.075 30.4984 223.753 32.3194 223.753 34.5415V38.5847C223.753 40.8069 223.075 42.6319 221.719 44.0599C220.371 45.4798 218.314 46.1898 215.546 46.1898ZM215.546 41.6532C216.38 41.6532 216.982 41.3564 217.351 40.7627C217.72 40.1691 217.904 39.5995 217.904 39.054V34.0722C217.904 33.5187 217.72 32.9491 217.351 32.3635C216.99 31.7699 216.388 31.4731 215.546 31.4731C214.663 31.4731 214.042 31.7659 213.681 32.3515C213.328 32.9371 213.151 33.5107 213.151 34.0722V39.054C213.151 39.6156 213.328 40.1892 213.681 40.7748C214.042 41.3604 214.663 41.6532 215.546 41.6532Z" fill="white"/>
<path d="M155.43 47H132.366V27.9473L137.171 37.4736L136.21 42.7131L144.296 27.9473L149.664 37.4736L149.183 42.7131L155.43 27.9473V47Z" fill="#FF1654"/>
</svg>
