<svg width="274" height="65" viewBox="0 0 274 65" fill="none" xmlns="http://www.w3.org/2000/svg">
<g filter="url(#filter0_ii_84_258)">
<rect width="274" height="65" rx="32.5" fill="#FF1654" fill-opacity="0.23"/>
</g>
<rect x="0.5" y="0.5" width="273" height="64" rx="32" stroke="#FF1654"/>
<path d="M71.0702 41.06C68.8702 41.06 67.2862 40.656 66.3182 39.848C65.3502 39.032 64.8662 37.26 64.8662 34.532H67.0982C67.0982 36.7 67.4302 38.032 68.0942 38.528C68.7582 39.024 69.7422 39.272 71.0462 39.272C72.3422 39.272 73.3302 39.076 74.0102 38.684C74.6902 38.292 75.0302 37.456 75.0302 36.176C75.0302 34.72 74.6342 33.768 73.8422 33.32C73.0582 32.864 71.8902 32.544 70.3382 32.36C68.4102 32.048 67.0182 31.572 66.1622 30.932C65.3062 30.292 64.8782 29.1 64.8782 27.356C64.8782 25.1 65.3822 23.64 66.3902 22.976C67.3982 22.304 68.9462 21.968 71.0342 21.968C73.1782 21.968 74.7422 22.368 75.7262 23.168C76.7182 23.96 77.2142 25.704 77.2142 28.4H74.9822C74.9822 26.2 74.6382 24.876 73.9502 24.428C73.2702 23.98 72.2942 23.756 71.0222 23.756C69.7262 23.756 68.7342 23.932 68.0462 24.284C67.3662 24.628 67.0262 25.56 67.0262 27.08C67.0262 28.424 67.4382 29.3 68.2622 29.708C69.0942 30.116 70.2422 30.412 71.7062 30.596C73.7062 30.908 75.1222 31.396 75.9542 32.06C76.7942 32.716 77.2142 33.976 77.2142 35.84C77.2142 37.864 76.7222 39.24 75.7382 39.968C74.7622 40.696 73.2062 41.06 71.0702 41.06ZM90.9435 35.54C90.8395 37.148 90.5555 38.336 90.0915 39.104C89.6275 39.872 89.0315 40.4 88.3035 40.688C87.5835 40.976 86.4795 41.12 84.9915 41.12C82.5755 41.12 80.9595 40.588 80.1435 39.524C79.3195 38.46 78.9075 36.572 78.9075 33.86C78.9075 31.068 79.3275 29.168 80.1675 28.16C81.0075 27.152 82.6035 26.648 84.9555 26.648C87.3395 26.648 88.9355 27.152 89.7435 28.16C90.5595 29.168 90.9675 30.892 90.9675 33.332L90.9555 33.992H81.0435C81.0835 36.4 81.3555 37.932 81.8595 38.588C82.4035 39.3 83.4475 39.656 84.9915 39.656C85.9515 39.656 86.6355 39.576 87.0435 39.416C87.4595 39.248 87.8195 38.86 88.1235 38.252C88.4355 37.636 88.6435 36.732 88.7475 35.54H90.9435ZM88.7715 32.708C88.7635 30.828 88.4915 29.592 87.9555 29C87.4195 28.408 86.4235 28.112 84.9675 28.112C83.4875 28.112 82.4635 28.424 81.8955 29.048C81.3835 29.616 81.1035 30.836 81.0555 32.708H88.7715ZM104.795 35.54C104.691 37.148 104.407 38.336 103.943 39.104C103.479 39.872 102.883 40.4 102.155 40.688C101.435 40.976 100.331 41.12 98.8431 41.12C96.4271 41.12 94.8111 40.588 93.9951 39.524C93.1711 38.46 92.7591 36.572 92.7591 33.86C92.7591 31.068 93.1791 29.168 94.0191 28.16C94.8591 27.152 96.4551 26.648 98.8071 26.648C101.191 26.648 102.787 27.152 103.595 28.16C104.411 29.168 104.819 30.892 104.819 33.332L104.807 33.992H94.8951C94.9351 36.4 95.2071 37.932 95.7111 38.588C96.2551 39.3 97.2991 39.656 98.8431 39.656C99.8031 39.656 100.487 39.576 100.895 39.416C101.311 39.248 101.671 38.86 101.975 38.252C102.287 37.636 102.495 36.732 102.599 35.54H104.795ZM102.623 32.708C102.615 30.828 102.343 29.592 101.807 29C101.271 28.408 100.275 28.112 98.8191 28.112C97.3391 28.112 96.3151 28.424 95.7471 29.048C95.2351 29.616 94.9551 30.836 94.9071 32.708H102.623ZM118.726 41.108C116.694 41.108 115.21 40.812 114.274 40.22C113.346 39.628 112.882 38.364 112.882 36.428H115.018C115.018 37.86 115.354 38.752 116.026 39.104C116.706 39.456 117.634 39.632 118.81 39.632C119.946 39.632 120.794 39.504 121.354 39.248C121.914 38.984 122.194 38.372 122.194 37.412C122.194 36.236 121.802 35.516 121.018 35.252C120.242 34.98 119.218 34.756 117.946 34.58C116.522 34.364 115.33 34.004 114.37 33.5C113.41 32.988 112.93 31.956 112.93 30.404C112.93 28.932 113.378 27.94 114.274 27.428C115.178 26.916 116.562 26.66 118.426 26.66C120.506 26.66 122.002 26.956 122.914 27.548C123.834 28.14 124.294 29.348 124.294 31.172H122.17C122.17 29.82 121.838 28.976 121.174 28.64C120.518 28.296 119.582 28.124 118.366 28.124C117.254 28.124 116.426 28.244 115.882 28.484C115.346 28.716 115.078 29.368 115.078 30.44C115.078 31.472 115.474 32.128 116.266 32.408C117.058 32.688 118.078 32.924 119.326 33.116C120.75 33.324 121.938 33.66 122.89 34.124C123.85 34.58 124.33 35.632 124.33 37.28C124.33 38.76 123.906 39.768 123.058 40.304C122.21 40.84 120.766 41.108 118.726 41.108ZM138.1 35.54C137.996 37.148 137.712 38.336 137.248 39.104C136.784 39.872 136.188 40.4 135.46 40.688C134.74 40.976 133.636 41.12 132.148 41.12C129.732 41.12 128.116 40.588 127.3 39.524C126.476 38.46 126.064 36.572 126.064 33.86C126.064 31.068 126.484 29.168 127.324 28.16C128.164 27.152 129.76 26.648 132.112 26.648C134.496 26.648 136.092 27.152 136.9 28.16C137.716 29.168 138.124 30.892 138.124 33.332L138.112 33.992H128.2C128.24 36.4 128.512 37.932 129.016 38.588C129.56 39.3 130.604 39.656 132.148 39.656C133.108 39.656 133.792 39.576 134.2 39.416C134.616 39.248 134.976 38.86 135.28 38.252C135.592 37.636 135.8 36.732 135.904 35.54H138.1ZM135.928 32.708C135.92 30.828 135.648 29.592 135.112 29C134.576 28.408 133.58 28.112 132.124 28.112C130.644 28.112 129.62 28.424 129.052 29.048C128.54 29.616 128.26 30.836 128.212 32.708H135.928ZM145.855 41.12C143.583 41.12 142.003 40.672 141.115 39.776C140.227 38.88 139.783 36.924 139.783 33.908C139.783 30.94 140.227 28.992 141.115 28.064C142.003 27.128 143.583 26.66 145.855 26.66C148.095 26.66 149.587 27.092 150.331 27.956C151.083 28.812 151.491 30.276 151.555 32.348H149.419C149.395 30.708 149.159 29.608 148.711 29.048C148.263 28.488 147.311 28.208 145.855 28.208C144.375 28.208 143.355 28.532 142.795 29.18C142.235 29.82 141.955 31.396 141.955 33.908C141.955 36.46 142.239 38.044 142.807 38.66C143.375 39.268 144.391 39.572 145.855 39.572C147.311 39.572 148.263 39.312 148.711 38.792C149.159 38.264 149.395 37.156 149.419 35.468H151.555C151.491 37.588 151.083 39.06 150.331 39.884C149.587 40.708 148.095 41.12 145.855 41.12ZM158.827 41C157.555 41 156.679 40.776 156.199 40.328C155.727 39.88 155.491 39.04 155.491 37.808V28.424H153.043V26.78H153.655C153.975 26.78 154.267 26.724 154.531 26.612C154.803 26.492 155.035 26.332 155.227 26.132C155.427 25.924 155.579 25.68 155.683 25.4C155.795 25.12 155.851 24.812 155.851 24.476V21.956H158.047V24.476C158.047 24.836 157.999 25.148 157.903 25.412C157.807 25.668 157.675 25.884 157.507 26.06C157.347 26.236 157.163 26.372 156.955 26.468C156.747 26.556 156.531 26.612 156.307 26.636V26.78H162.679V28.424H157.699V37.28C157.699 38.096 157.843 38.628 158.131 38.876C158.427 39.124 158.887 39.248 159.511 39.248C160.311 39.248 161.371 39.244 162.691 39.236V41C161.179 41 159.891 41 158.827 41ZM166.957 22.892V25.136H164.749V22.892H166.957ZM164.749 26.768H166.957V41H164.749V26.768ZM175.273 41.108C173.129 41.108 171.573 40.604 170.605 39.596C169.637 38.58 169.153 36.664 169.153 33.848C169.153 31.04 169.637 29.136 170.605 28.136C171.573 27.136 173.129 26.636 175.273 26.636C177.425 26.636 178.981 27.136 179.941 28.136C180.909 29.136 181.393 31.04 181.393 33.848C181.393 36.664 180.909 38.58 179.941 39.596C178.981 40.604 177.425 41.108 175.273 41.108ZM175.285 39.584C176.717 39.584 177.725 39.264 178.309 38.624C178.901 37.976 179.197 36.388 179.197 33.86C179.197 31.332 178.901 29.752 178.309 29.12C177.725 28.48 176.717 28.16 175.285 28.16C173.853 28.16 172.841 28.48 172.249 29.12C171.657 29.752 171.361 31.332 171.361 33.86C171.361 36.388 171.657 37.976 172.249 38.624C172.841 39.264 173.853 39.584 175.285 39.584ZM192.267 32.804C192.267 31.004 192.071 29.784 191.679 29.144C191.287 28.504 190.463 28.184 189.207 28.184C187.935 28.184 187.003 28.524 186.411 29.204C185.995 29.692 185.727 30.328 185.607 31.112V41H183.399V26.78H185.607V28.112C185.607 28.176 185.595 28.24 185.571 28.304L185.103 29.264L185.115 29.276C185.331 28.892 185.607 28.512 185.943 28.136C186.823 27.128 188.099 26.624 189.771 26.624C189.883 26.624 189.999 26.628 190.119 26.636C191.879 26.716 193.043 27.28 193.611 28.328C194.179 29.376 194.463 30.864 194.463 32.792V41H192.267V32.804ZM202.14 41.108C200.108 41.108 198.624 40.812 197.688 40.22C196.76 39.628 196.296 38.364 196.296 36.428H198.432C198.432 37.86 198.768 38.752 199.44 39.104C200.12 39.456 201.048 39.632 202.224 39.632C203.36 39.632 204.208 39.504 204.768 39.248C205.328 38.984 205.608 38.372 205.608 37.412C205.608 36.236 205.216 35.516 204.432 35.252C203.656 34.98 202.632 34.756 201.36 34.58C199.936 34.364 198.744 34.004 197.784 33.5C196.824 32.988 196.344 31.956 196.344 30.404C196.344 28.932 196.792 27.94 197.688 27.428C198.592 26.916 199.976 26.66 201.84 26.66C203.92 26.66 205.416 26.956 206.328 27.548C207.248 28.14 207.708 29.348 207.708 31.172H205.584C205.584 29.82 205.252 28.976 204.588 28.64C203.932 28.296 202.996 28.124 201.78 28.124C200.668 28.124 199.84 28.244 199.296 28.484C198.76 28.716 198.492 29.368 198.492 30.44C198.492 31.472 198.888 32.128 199.68 32.408C200.472 32.688 201.492 32.924 202.74 33.116C204.164 33.324 205.352 33.66 206.304 34.124C207.264 34.58 207.744 35.632 207.744 37.28C207.744 38.76 207.32 39.768 206.472 40.304C205.624 40.84 204.18 41.108 202.14 41.108Z" fill="white"/>
<path d="M28.754 22.8745V38.8661C30.028 37.0267 31.9956 35.0234 34.9517 33.7565L35.8185 35.7791C32.9632 37.0028 31.1876 39.0434 30.1181 40.8028C29.5837 41.682 29.2306 42.4831 29.0129 43.0595C28.9043 43.347 28.8303 43.577 28.7841 43.7309C28.761 43.8077 28.7443 43.8655 28.7347 43.9016C28.7299 43.9196 28.7268 43.9323 28.725 43.9392C28.7241 43.9427 28.7241 43.9451 28.7239 43.9457V43.9435C28.7234 43.9434 28.7223 43.9423 28.7186 43.9414L26.5789 43.8941L26.5746 43.8952V43.8973C26.5745 43.897 26.5742 43.8952 26.5735 43.892C26.5722 43.8855 26.5699 43.8729 26.566 43.8555C26.5582 43.8204 26.5446 43.7642 26.5252 43.689C26.4862 43.5376 26.4224 43.3098 26.3254 43.0252C26.131 42.4547 25.8071 41.6607 25.2942 40.7888C24.2708 39.0491 22.5049 37.012 19.5068 35.7855L20.3404 33.7501C23.329 34.9728 25.2892 36.8893 26.5542 38.69V22.8745H28.754Z" fill="white"/>
<path d="M246.168 22.8745V38.8661C247.391 37.0267 249.279 35.0234 252.116 33.7565L252.948 35.7791C250.208 37.0028 248.504 39.0434 247.477 40.8028C246.965 41.682 246.626 42.4832 246.417 43.0595C246.313 43.347 246.242 43.577 246.197 43.7309C246.175 43.8077 246.159 43.8655 246.15 43.9016C246.145 43.9196 246.142 43.9323 246.141 43.9392C246.14 43.9427 246.14 43.9451 246.139 43.9457V43.9435C246.139 43.9434 246.138 43.9423 246.134 43.9414L244.081 43.8941L244.077 43.8952V43.8973C244.077 43.897 244.077 43.8952 244.076 43.892C244.075 43.8855 244.072 43.8729 244.069 43.8555C244.061 43.8204 244.048 43.7642 244.03 43.689C243.992 43.5376 243.931 43.3098 243.838 43.0252C243.651 42.4547 243.34 41.6607 242.848 40.7888C241.866 39.0491 240.172 37.012 237.295 35.7855L238.095 33.7501C240.962 34.9728 242.843 36.8893 244.057 38.69V22.8745H246.168Z" fill="white"/>
<defs>
<filter id="filter0_ii_84_258" x="0" y="-4" width="274" height="73" filterUnits="userSpaceOnUse" color-interpolation-filters="sRGB">
<feFlood flood-opacity="0" result="BackgroundImageFix"/>
<feBlend mode="normal" in="SourceGraphic" in2="BackgroundImageFix" result="shape"/>
<feColorMatrix in="SourceAlpha" type="matrix" values="0 0 0 0 0 0 0 0 0 0 0 0 0 0 0 0 0 0 127 0" result="hardAlpha"/>
<feOffset dy="4"/>
<feGaussianBlur stdDeviation="2"/>
<feComposite in2="hardAlpha" operator="arithmetic" k2="-1" k3="1"/>
<feColorMatrix type="matrix" values="0 0 0 0 1 0 0 0 0 1 0 0 0 0 1 0 0 0 0.14 0"/>
<feBlend mode="normal" in2="shape" result="effect1_innerShadow_84_258"/>
<feColorMatrix in="SourceAlpha" type="matrix" values="0 0 0 0 0 0 0 0 0 0 0 0 0 0 0 0 0 0 127 0" result="hardAlpha"/>
<feOffset dy="-4"/>
<feGaussianBlur stdDeviation="2"/>
<feComposite in2="hardAlpha" operator="arithmetic" k2="-1" k3="1"/>
<feColorMatrix type="matrix" values="0 0 0 0 0 0 0 0 0 0 0 0 0 0 0 0 0 0 0.25 0"/>
<feBlend mode="normal" in2="effect1_innerShadow_84_258" result="effect2_innerShadow_84_258"/>
</filter>
</defs>
</svg>
