<svg width="24" height="32" viewBox="0 0 24 32" fill="none" xmlns="http://www.w3.org/2000/svg">
<path d="M13.4762 32V7.71405C15.3328 10.5075 18.2002 13.5499 22.5083 15.4739L23.7715 12.4022C19.6103 10.5438 17.0227 7.4448 15.4642 4.77292C14.6853 3.43763 14.1707 2.221 13.8534 1.34568C13.6952 0.909167 13.5873 0.559767 13.52 0.326154C13.4863 0.209398 13.4621 0.121674 13.448 0.0667852C13.441 0.0395164 13.4365 0.0202943 13.4339 0.00969228C13.4326 0.00439985 13.4325 0.000810398 13.4323 -9.55657e-05V0.00316705C13.4316 0.0034117 13.4299 0.00501529 13.4245 0.00642966L10.3063 0.0782053L10.3 0.076573V0.0733104C10.2999 0.0738284 10.2994 0.0765959 10.2985 0.0814679C10.2965 0.0912481 10.2932 0.110388 10.2875 0.136929C10.2762 0.19013 10.2563 0.275451 10.228 0.389773C10.1712 0.619679 10.0782 0.965566 9.93688 1.39788C9.65361 2.26416 9.18154 3.47007 8.43414 4.79413C6.94272 7.43613 4.3691 10.5299 0 12.3925L1.21472 15.4837C5.57018 13.6268 8.42677 10.7161 10.2703 7.98158V32H13.4762Z" fill="white"/>
</svg>
