<svg width="24" height="32" viewBox="0 0 24 32" fill="none" xmlns="http://www.w3.org/2000/svg">
<path d="M13.4762 0V24.2859C15.3328 21.4925 18.2002 18.4501 22.5083 16.5261L23.7715 19.5978C19.6103 21.4562 17.0227 24.5552 15.4642 27.2271C14.6853 28.5624 14.1707 29.779 13.8534 30.6543C13.6952 31.0908 13.5873 31.4402 13.52 31.6738C13.4863 31.7906 13.4621 31.8783 13.448 31.9332C13.441 31.9605 13.4365 31.9797 13.4339 31.9903C13.4326 31.9956 13.4325 31.9992 13.4323 32.0001V31.9968C13.4316 31.9966 13.4299 31.995 13.4245 31.9936L10.3063 31.9218L10.3 31.9234V31.9267C10.2999 31.9262 10.2994 31.9234 10.2985 31.9185C10.2965 31.9088 10.2932 31.8896 10.2875 31.8631C10.2762 31.8099 10.2563 31.7245 10.228 31.6102C10.1712 31.3803 10.0782 31.0344 9.93688 30.6021C9.65361 29.7358 9.18154 28.5299 8.43414 27.2059C6.94272 24.5639 4.3691 21.4701 0 19.6075L1.21472 16.5163C5.57018 18.3732 8.42677 21.2839 10.2703 24.0184V0H13.4762Z" fill="white"/>
</svg>
