<svg width="24" height="32" viewBox="0 0 24 32" fill="none" xmlns="http://www.w3.org/2000/svg">
<path d="M13.3897 0V24.2859C15.2345 21.4924 18.0835 18.4501 22.3639 16.5261L23.619 19.5977C19.4845 21.4561 16.9135 24.5551 15.365 27.227C14.5911 28.5623 14.0798 29.7789 13.7645 30.6542C13.6073 31.0907 13.5002 31.4401 13.4333 31.6737C13.3998 31.7905 13.3757 31.8782 13.3617 31.9331C13.3548 31.9604 13.3503 31.9796 13.3477 31.9902C13.3464 31.9955 13.3464 31.9991 13.3462 32V31.9967C13.3455 31.9965 13.3438 31.9949 13.3384 31.9934L10.2402 31.9217L10.234 31.9233V31.9266C10.2339 31.926 10.2334 31.9233 10.2324 31.9184C10.2305 31.9086 10.2272 31.8895 10.2215 31.8629C10.2103 31.8097 10.1905 31.7244 10.1624 31.6101C10.106 31.3802 10.0136 31.0343 9.87315 30.602C9.59169 29.7357 9.12265 28.5298 8.38004 27.2058C6.89819 24.5638 4.34108 21.4701 0 19.6075L1.20693 16.5163C5.53445 18.3731 8.37272 21.2838 10.2044 24.0183V0H13.3897Z" fill="white"/>
</svg>
