<svg width="303" height="65" viewBox="0 0 303 65" fill="none" xmlns="http://www.w3.org/2000/svg">
<g filter="url(#filter0_ii_9_119)">
<rect width="303" height="65" rx="32.5" fill="#FF1654" fill-opacity="0.23"/>
</g>
<rect x="0.5" y="0.5" width="302" height="64" rx="32" stroke="#FF1654"/>
<path d="M78.4648 31.0754L78.7048 31.1954L87.3148 19.3904H90.4948L82.7548 30.2804L90.5398 43.1804H87.3598L80.8048 32.9054L79.0198 35.3504V43.1804H76.2598V19.3904H79.0198V28.8554C79.0198 29.0254 78.9998 29.2104 78.9598 29.4104C78.9198 29.6004 78.8648 29.7704 78.7948 29.9204L78.4648 31.0754ZM103.817 32.9354C103.817 30.6854 103.572 29.1604 103.082 28.3604C102.592 27.5604 101.562 27.1604 99.9917 27.1604C98.4017 27.1604 97.2367 27.5854 96.4967 28.4354C95.9767 29.0454 95.6417 29.8404 95.4917 30.8204V43.1804H92.7317V25.4054H95.4917V27.0704C95.4917 27.1504 95.4767 27.2304 95.4467 27.3104L94.8617 28.5104L94.8767 28.5254C95.1467 28.0454 95.4917 27.5704 95.9117 27.1004C97.0117 25.8404 98.6067 25.2104 100.697 25.2104C100.837 25.2104 100.982 25.2154 101.132 25.2254C103.332 25.3254 104.787 26.0304 105.497 27.3404C106.207 28.6504 106.562 30.5104 106.562 32.9204V43.1804H103.817V32.9354ZM116.383 43.3154C113.703 43.3154 111.758 42.6854 110.548 41.4254C109.338 40.1554 108.733 37.7604 108.733 34.2404C108.733 30.7304 109.338 28.3504 110.548 27.1004C111.758 25.8504 113.703 25.2254 116.383 25.2254C119.073 25.2254 121.018 25.8504 122.218 27.1004C123.428 28.3504 124.033 30.7304 124.033 34.2404C124.033 37.7604 123.428 40.1554 122.218 41.4254C121.018 42.6854 119.073 43.3154 116.383 43.3154ZM116.398 41.4104C118.188 41.4104 119.448 41.0104 120.178 40.2104C120.918 39.4004 121.288 37.4154 121.288 34.2554C121.288 31.0954 120.918 29.1204 120.178 28.3304C119.448 27.5304 118.188 27.1304 116.398 27.1304C114.608 27.1304 113.343 27.5304 112.603 28.3304C111.863 29.1204 111.493 31.0954 111.493 34.2554C111.493 37.4154 111.863 39.4004 112.603 40.2104C113.343 41.0104 114.608 41.4104 116.398 41.4104ZM133.094 43.1804H129.329L125.609 25.4054H128.459L131.129 39.8354C131.149 39.9454 131.164 40.0604 131.174 40.1804C131.194 40.3004 131.214 40.4104 131.234 40.5104L131.249 41.5304H131.429L131.459 40.5104C131.479 40.4104 131.499 40.3004 131.519 40.1804C131.539 40.0604 131.559 39.9504 131.579 39.8504L135.104 25.4054H137.939L141.494 39.8654C141.544 40.0854 141.584 40.3104 141.614 40.5404L141.644 41.5154H141.809L141.824 40.5404C141.844 40.4404 141.859 40.3304 141.869 40.2104C141.889 40.0904 141.909 39.9804 141.929 39.8804L144.509 25.4054H147.359L143.684 43.1804H139.949L136.784 29.6504C136.754 29.5504 136.729 29.4404 136.709 29.3204C136.699 29.2004 136.684 29.0904 136.664 28.9904L136.574 27.5804H136.409L136.319 28.9754C136.309 29.0854 136.294 29.2004 136.274 29.3204C136.254 29.4304 136.234 29.5404 136.214 29.6504L133.094 43.1804ZM159.893 43.1804H157.148V19.3904H161.678L166.793 37.1354C166.813 37.2454 166.833 37.3754 166.853 37.5254C166.883 37.6654 166.898 37.7904 166.898 37.9004L166.958 40.1804H167.168L167.213 37.9004C167.223 37.7904 167.238 37.6654 167.258 37.5254C167.278 37.3754 167.298 37.2454 167.318 37.1354L172.418 19.3904H176.888V43.1804H174.143V28.3604C174.143 28.2404 174.148 28.1104 174.158 27.9704C174.178 27.8204 174.198 27.6854 174.218 27.5654L174.623 21.6704H174.413L168.698 43.1804H165.353L159.623 21.6704H159.413L159.833 27.7154C159.883 27.9654 159.908 28.2204 159.908 28.4804L159.893 43.1804ZM187.135 43.3154C184.455 43.3154 182.51 42.6854 181.3 41.4254C180.09 40.1554 179.485 37.7604 179.485 34.2404C179.485 30.7304 180.09 28.3504 181.3 27.1004C182.51 25.8504 184.455 25.2254 187.135 25.2254C189.825 25.2254 191.77 25.8504 192.97 27.1004C194.18 28.3504 194.785 30.7304 194.785 34.2404C194.785 37.7604 194.18 40.1554 192.97 41.4254C191.77 42.6854 189.825 43.3154 187.135 43.3154ZM187.15 41.4104C188.94 41.4104 190.2 41.0104 190.93 40.2104C191.67 39.4004 192.04 37.4154 192.04 34.2554C192.04 31.0954 191.67 29.1204 190.93 28.3304C190.2 27.5304 188.94 27.1304 187.15 27.1304C185.36 27.1304 184.095 27.5304 183.355 28.3304C182.615 29.1204 182.245 31.0954 182.245 34.2554C182.245 37.4154 182.615 39.4004 183.355 40.2104C184.095 41.0104 185.36 41.4104 187.15 41.4104ZM207.807 32.1554C207.807 30.2554 207.587 28.9554 207.147 28.2554C206.707 27.5454 205.747 27.1904 204.267 27.1904C202.757 27.1904 201.672 27.5904 201.012 28.3904C200.442 29.0804 200.122 29.9554 200.052 31.0154V43.1804H197.292V25.2554H200.052V26.9054C200.052 26.9754 200.042 27.0504 200.022 27.1304L199.512 28.0604L199.647 28.3454L199.677 28.3154C199.927 27.7854 200.262 27.2954 200.682 26.8454C201.672 25.7854 203.212 25.2554 205.302 25.2554C207.442 25.2554 208.852 25.8354 209.532 26.9954C210.222 28.1454 210.567 29.8654 210.567 32.1554H207.807ZM227.329 36.3554C227.199 38.3654 226.844 39.8504 226.264 40.8104C225.684 41.7704 224.939 42.4304 224.029 42.7904C223.129 43.1504 221.749 43.3304 219.889 43.3304C216.869 43.3304 214.849 42.6654 213.829 41.3354C212.799 40.0054 212.284 37.6454 212.284 34.2554C212.284 30.7654 212.809 28.3904 213.859 27.1304C214.909 25.8704 216.904 25.2404 219.844 25.2404C222.824 25.2404 224.819 25.8704 225.829 27.1304C226.849 28.3904 227.359 30.5454 227.359 33.5954L227.344 34.4204H214.954C215.004 37.4304 215.344 39.3454 215.974 40.1654C216.654 41.0554 217.959 41.5004 219.889 41.5004C221.089 41.5004 221.944 41.4004 222.454 41.2004C222.974 40.9904 223.424 40.5054 223.804 39.7454C224.194 38.9754 224.454 37.8454 224.584 36.3554H227.329ZM224.614 32.8154C224.604 30.4654 224.264 28.9204 223.594 28.1804C222.924 27.4404 221.679 27.0704 219.859 27.0704C218.009 27.0704 216.729 27.4604 216.019 28.2404C215.379 28.9504 215.029 30.4754 214.969 32.8154H224.614Z" fill="white"/>
<path d="M45.753 21.0549V37.0465C47.027 35.2072 48.9946 33.2038 51.9507 31.9369L52.8176 33.9595C49.9622 35.1832 48.1866 37.2238 47.1172 38.9832C46.5827 39.8625 46.2296 40.6636 46.0119 41.2399C45.9033 41.5274 45.8293 41.7574 45.7831 41.9113C45.76 41.9882 45.7434 42.0459 45.7337 42.0821C45.7289 42.1 45.7258 42.1127 45.724 42.1197C45.7231 42.1231 45.7231 42.1255 45.723 42.1261V42.1239C45.7225 42.1238 45.7213 42.1227 45.7176 42.1218L43.5779 42.0745L43.5736 42.0756V42.0778C43.5736 42.0774 43.5732 42.0756 43.5725 42.0724C43.5712 42.066 43.5689 42.0533 43.565 42.0359C43.5572 42.0008 43.5436 41.9447 43.5242 41.8694C43.4852 41.718 43.4214 41.4902 43.3244 41.2056C43.13 40.6351 42.8061 39.8411 42.2933 38.9692C41.2699 37.2296 39.5039 35.1924 36.5059 33.9659L37.3394 31.9305C40.328 33.1532 42.2882 35.0698 43.5532 36.8704V21.0549H45.753Z" fill="white"/>
<path d="M263.167 21.0549V37.0465C264.39 35.2072 266.278 33.2038 269.115 31.9369L269.947 33.9595C267.207 35.1832 265.503 37.2238 264.476 38.9832C263.964 39.8625 263.625 40.6636 263.416 41.2399C263.312 41.5274 263.241 41.7574 263.196 41.9113C263.174 41.9882 263.158 42.0459 263.149 42.0821C263.144 42.1 263.141 42.1127 263.14 42.1197C263.139 42.1231 263.139 42.1255 263.139 42.1261V42.124C263.138 42.1238 263.137 42.1227 263.133 42.1218L261.08 42.0745L261.076 42.0756V42.0778C261.076 42.0774 261.076 42.0756 261.075 42.0724C261.074 42.066 261.071 42.0534 261.068 42.0359C261.06 42.0008 261.047 41.9447 261.029 41.8694C260.991 41.718 260.93 41.4902 260.837 41.2056C260.65 40.6352 260.339 39.8411 259.847 38.9692C258.865 37.2296 257.171 35.1924 254.294 33.966L255.094 31.9305C257.962 33.1532 259.842 35.0698 261.056 36.8704V21.0549H263.167Z" fill="white"/>
<defs>
<filter id="filter0_ii_9_119" x="0" y="-4" width="303" height="73" filterUnits="userSpaceOnUse" color-interpolation-filters="sRGB">
<feFlood flood-opacity="0" result="BackgroundImageFix"/>
<feBlend mode="normal" in="SourceGraphic" in2="BackgroundImageFix" result="shape"/>
<feColorMatrix in="SourceAlpha" type="matrix" values="0 0 0 0 0 0 0 0 0 0 0 0 0 0 0 0 0 0 127 0" result="hardAlpha"/>
<feOffset dy="4"/>
<feGaussianBlur stdDeviation="2"/>
<feComposite in2="hardAlpha" operator="arithmetic" k2="-1" k3="1"/>
<feColorMatrix type="matrix" values="0 0 0 0 1 0 0 0 0 1 0 0 0 0 1 0 0 0 0.14 0"/>
<feBlend mode="normal" in2="shape" result="effect1_innerShadow_9_119"/>
<feColorMatrix in="SourceAlpha" type="matrix" values="0 0 0 0 0 0 0 0 0 0 0 0 0 0 0 0 0 0 127 0" result="hardAlpha"/>
<feOffset dy="-4"/>
<feGaussianBlur stdDeviation="2"/>
<feComposite in2="hardAlpha" operator="arithmetic" k2="-1" k3="1"/>
<feColorMatrix type="matrix" values="0 0 0 0 0 0 0 0 0 0 0 0 0 0 0 0 0 0 0.25 0"/>
<feBlend mode="normal" in2="effect1_innerShadow_9_119" result="effect2_innerShadow_9_119"/>
</filter>
</defs>
</svg>
