<svg width="24" height="32" viewBox="0 0 24 32" fill="none" xmlns="http://www.w3.org/2000/svg">
<path d="M13.3897 32V7.71415C15.2345 10.5076 18.0835 13.5499 22.3639 15.4739L23.619 12.4023C19.4845 10.5439 16.9135 7.44489 15.365 4.77303C14.5911 3.43774 14.0798 2.22112 13.7645 1.3458C13.6073 0.909286 13.5002 0.559887 13.4333 0.326276C13.3998 0.209519 13.3757 0.121796 13.3617 0.0669072C13.3548 0.0396386 13.3503 0.0204166 13.3477 0.00981456C13.3464 0.00452215 13.3464 0.000932718 13.3462 2.67583e-05V0.00328936C13.3455 0.00353401 13.3438 0.0051376 13.3384 0.00655196L10.2402 0.0783273L10.234 0.076695V0.0734324C10.2339 0.0739504 10.2334 0.076718 10.2324 0.0815899C10.2305 0.0913701 10.2272 0.11051 10.2215 0.13705C10.2103 0.190252 10.1905 0.275572 10.1624 0.389893C10.106 0.619799 10.0136 0.965684 9.87315 1.398C9.59169 2.26427 9.12265 3.47018 8.38004 4.79423C6.89819 7.43623 4.34108 10.5299 0 12.3925L1.20693 15.4837C5.53445 13.6269 8.37272 10.7162 10.2044 7.98167V32H13.3897Z" fill="white"/>
</svg>
