<svg width="2271" height="1281" viewBox="0 0 2271 1281" fill="none" xmlns="http://www.w3.org/2000/svg">
<path d="M308.867 1120.97L94.307 1280.6L-3.01528e-06 1178.57L129.191 1092.08L173.262 1120.03L96.0296 1036.48L537.061 833.365L270.638 1058.36L235.497 1041.59L308.867 1120.97Z" fill="#FF1654"/>
<path d="M1962.13 1120.97L2176.69 1280.6L2271 1178.57L2141.81 1092.08L2097.74 1120.03L2174.97 1036.48L1733.94 833.365L2000.36 1058.36L2035.5 1041.59L1962.13 1120.97Z" fill="#FF1654"/>
<path d="M1964.54 154.025L2144 7.20998e-06L2233.67 83.8528L2125.01 168.122L2084.34 146.3L2157.77 214.971L1781.06 421.553L2002.22 206.726L2034.3 219.262L1964.54 154.025Z" fill="#FF1654"/>
<path d="M310.147 154.025L130.688 7.20998e-06L41.0232 83.8528L149.682 168.122L190.347 146.3L116.917 214.971L493.626 421.553L272.468 206.726L240.387 219.262L310.147 154.025Z" fill="#FF1654"/>
</svg>
