<svg width="1920" height="955" viewBox="0 0 1920 955" fill="none" xmlns="http://www.w3.org/2000/svg">
<path d="M0 0H1920V955H0V0Z" fill="#0F0404"/>
<path d="M1646.19 708.527L1698.59 646.317L1651.49 627.364L1646.19 708.527Z" fill="#FF1654"/>
<path d="M1629.76 722.693L1599.26 745.035L1591.95 722.598L1629.76 722.693Z" fill="#FF1654"/>
<path d="M1632.73 747.952L1624.72 744.262L1634.34 733.92L1632.73 747.952Z" stroke="#FF1654"/>
<path d="M1679.93 699.789L1684.7 716.079L1657.52 715.205L1679.93 699.789Z" stroke="#FF1654"/>
<path d="M1644.98 723.047L1667.34 788.757L1701.95 762.698L1644.98 723.047Z" fill="#FF1654"/>
<path d="M1227.53 480.206H1636.47V710.23H1227.53V480.206Z" fill="#181818"/>
<path d="M479.728 506.461L735.331 398.197L871.23 540.135L716.009 594.728L655.2 550.113L766.494 666.352L224 751.307L537.724 587.396L585.456 616.889L479.728 506.461Z" fill="url(#paint0_linear_9_37)" stroke="url(#paint1_linear_9_37)"/>
<path d="M333.248 554.192C325.376 554.192 319.816 552.656 316.568 549.584C313.336 546.496 311.72 541.648 311.72 535.04C311.72 528.4 313.336 523.56 316.568 520.52C319.816 517.464 325.376 515.936 333.248 515.936C341.136 515.936 346.512 517.368 349.376 520.232C352.24 523.08 353.672 527.184 353.672 532.544H340.928C340.928 529.232 340.4 527.24 339.344 526.568C338.288 525.88 336.2 525.536 333.08 525.536C329.896 525.536 327.664 526.032 326.384 527.024C325.104 528.016 324.464 530.688 324.464 535.04C324.464 539.376 325.104 542.056 326.384 543.08C327.664 544.088 329.896 544.592 333.08 544.592C336.152 544.592 338.224 544.232 339.296 543.512C340.384 542.776 340.928 540.76 340.928 537.464H353.672C353.672 542.792 352.24 546.912 349.376 549.824C346.512 552.736 341.136 554.192 333.248 554.192ZM375.814 554.24C370.038 554.24 365.142 553.056 361.126 550.688C357.126 548.32 355.126 544.64 355.126 539.648C355.126 534.688 357.126 531.08 361.126 528.824C365.142 526.552 370.038 525.416 375.814 525.416C381.606 525.416 386.494 526.552 390.478 528.824C394.478 531.08 396.478 534.688 396.478 539.648C396.478 544.64 394.478 548.32 390.478 550.688C386.494 553.056 381.606 554.24 375.814 554.24ZM375.838 546.272C378.19 546.272 380.158 545.872 381.742 545.072C383.326 544.272 384.118 542.496 384.118 539.744C384.118 537.024 383.326 535.28 381.742 534.512C380.158 533.744 378.19 533.36 375.838 533.36C373.486 533.36 371.51 533.744 369.91 534.512C368.31 535.28 367.51 537.024 367.51 539.744C367.51 542.496 368.31 544.272 369.91 545.072C371.51 545.872 373.486 546.272 375.838 546.272ZM420.963 539.744C420.963 537.36 420.571 535.752 419.787 534.92C419.003 534.088 417.851 533.672 416.331 533.672C414.619 533.672 413.171 534.216 411.987 535.304C411.123 536.104 410.571 537.208 410.331 538.616V554H397.923V525.728H410.331V527.936C410.331 528.08 410.283 528.192 410.187 528.272L407.787 530.552L408.219 531.056L409.323 530.048C409.403 529.968 409.483 529.88 409.563 529.784C412.315 526.952 415.755 525.536 419.883 525.536C419.995 525.536 420.107 525.536 420.219 525.536C424.715 525.616 428.027 526.808 430.155 529.112C430.507 529.512 430.835 529.928 431.139 530.36C431.235 530.28 431.331 530.192 431.427 530.096C434.963 527.056 438.811 525.536 442.971 525.536C443.067 525.536 443.171 525.536 443.283 525.536C447.779 525.616 451.051 526.816 453.099 529.136C455.163 531.44 456.195 534.544 456.195 538.448V554H443.811V539.744C443.811 537.36 443.451 535.752 442.731 534.92C442.027 534.088 440.907 533.672 439.371 533.672C437.659 533.672 436.211 534.216 435.027 535.304C434.115 536.152 433.555 537.336 433.347 538.856V554H420.963V539.744ZM470.05 563.384H457.642V525.704H470.05V527.312C470.05 527.44 470.002 527.536 469.906 527.6L467.218 529.304L467.65 529.808L467.986 529.592C468.626 529.128 469.386 528.656 470.266 528.176C473.514 526.384 477.402 525.488 481.93 525.488C482.058 525.488 482.178 525.488 482.29 525.488C486.946 525.552 490.69 526.808 493.522 529.256C496.37 531.704 497.794 535.256 497.794 539.912C497.794 544.568 496.37 548.088 493.522 550.472C490.69 552.856 486.946 554.096 482.29 554.192C482.13 554.192 481.978 554.192 481.834 554.192C477.338 554.192 473.482 553.296 470.266 551.504C469.642 551.152 469.082 550.816 468.586 550.496L467.602 549.944L467.122 550.4L469.906 552.104C470.002 552.152 470.05 552.24 470.05 552.368V563.384ZM472.522 544.784C474.17 545.616 476.018 546.032 478.066 546.032C480.37 546.032 482.138 545.624 483.37 544.808C484.602 543.992 485.218 542.336 485.218 539.84C485.218 537.328 484.602 535.664 483.37 534.848C482.138 534.032 480.37 533.624 478.066 533.624C476.018 533.624 474.17 534.048 472.522 534.896C470.938 535.696 470.114 537.008 470.05 538.832V540.752C470.114 542.656 470.938 544 472.522 544.784ZM499.22 514.664H511.628V554H499.22V514.664ZM554.303 544.328C553.855 547.112 552.759 549.24 551.015 550.712C549.287 552.168 547.215 553.136 544.799 553.616C542.383 554.112 538.783 554.36 533.999 554.36C525.791 554.36 520.255 553.184 517.391 550.832C514.527 548.464 513.095 544.864 513.095 540.032C513.095 535.2 514.503 531.56 517.319 529.112C520.151 526.664 525.583 525.44 533.615 525.44C541.695 525.44 547.127 526.72 549.911 529.28C552.695 531.824 554.087 535.408 554.087 540.032L553.991 542.816H525.095C525.415 544.224 526.023 545.192 526.919 545.72C528.311 546.52 530.671 546.92 533.999 546.92C535.855 546.92 537.167 546.88 537.935 546.8C538.719 546.704 539.479 546.48 540.215 546.128C540.967 545.76 541.575 545.16 542.039 544.328H554.303ZM541.871 536.576C541.775 535.36 541.111 534.432 539.879 533.792C538.663 533.136 536.591 532.808 533.663 532.808C530.431 532.808 528.151 533.256 526.823 534.152C526.103 534.632 525.575 535.44 525.239 536.576H541.871ZM574.86 554C569.068 554 565.308 553.144 563.58 551.432C561.852 549.72 560.988 547.32 560.988 544.232V534.104H555.564V525.728H557.1C557.932 525.728 558.66 525.584 559.284 525.296C559.924 525.008 560.46 524.616 560.892 524.12C561.324 523.608 561.652 523.008 561.876 522.32C562.1 521.616 562.212 520.848 562.212 520.016V515.936H574.644V520.016C574.644 520.88 574.556 521.624 574.38 522.248C574.204 522.872 573.916 523.392 573.516 523.808C573.116 524.208 572.596 524.512 571.956 524.72C571.316 524.912 570.532 525.008 569.604 525.008V525.728H586.332V534.104H573.372V541.328C573.372 542.72 573.924 543.632 575.028 544.064C576.132 544.496 577.388 544.712 578.796 544.712C580.38 544.712 582.924 544.696 586.428 544.664V554C581.852 554 577.996 554 574.86 554ZM629.116 544.328C628.668 547.112 627.572 549.24 625.828 550.712C624.1 552.168 622.028 553.136 619.612 553.616C617.196 554.112 613.596 554.36 608.812 554.36C600.604 554.36 595.068 553.184 592.204 550.832C589.34 548.464 587.908 544.864 587.908 540.032C587.908 535.2 589.316 531.56 592.132 529.112C594.964 526.664 600.396 525.44 608.428 525.44C616.508 525.44 621.94 526.72 624.724 529.28C627.508 531.824 628.9 535.408 628.9 540.032L628.804 542.816H599.908C600.228 544.224 600.836 545.192 601.732 545.72C603.124 546.52 605.484 546.92 608.812 546.92C610.668 546.92 611.98 546.88 612.748 546.8C613.532 546.704 614.292 546.48 615.028 546.128C615.78 545.76 616.388 545.16 616.852 544.328H629.116ZM616.684 536.576C616.588 535.36 615.924 534.432 614.692 533.792C613.476 533.136 611.404 532.808 608.476 532.808C605.244 532.808 602.964 533.256 601.636 534.152C600.916 534.632 600.388 535.44 600.052 536.576H616.684ZM669.079 554C663.287 554 659.527 553.144 657.799 551.432C656.071 549.72 655.207 547.32 655.207 544.232V534.104H649.783V525.728H651.319C652.151 525.728 652.879 525.584 653.503 525.296C654.143 525.008 654.679 524.616 655.111 524.12C655.543 523.608 655.871 523.008 656.095 522.32C656.319 521.616 656.431 520.848 656.431 520.016V515.936H668.863V520.016C668.863 520.88 668.775 521.624 668.599 522.248C668.423 522.872 668.135 523.392 667.735 523.808C667.335 524.208 666.815 524.512 666.175 524.72C665.535 524.912 664.751 525.008 663.823 525.008V525.728H680.551V534.104H667.591V541.328C667.591 542.72 668.143 543.632 669.247 544.064C670.351 544.496 671.607 544.712 673.015 544.712C674.599 544.712 677.143 544.696 680.647 544.664V554C676.071 554 672.215 554 669.079 554ZM712.414 548.792L711.838 548.408C710.398 550.184 709.294 551.344 708.526 551.888C707.758 552.432 706.83 552.896 705.742 553.28C704.654 553.648 703.438 553.928 702.094 554.12C700.75 554.328 699.318 554.432 697.798 554.432C696.502 554.432 695.118 554.352 693.646 554.192C692.19 554.048 690.782 553.792 689.422 553.424C688.062 553.04 686.83 552.504 685.726 551.816C684.622 551.128 683.742 550.264 683.086 549.224C682.446 548.184 682.126 546.88 682.126 545.312C682.126 543.792 682.454 542.544 683.11 541.568C683.782 540.576 684.654 539.736 685.726 539.048C686.798 538.344 688.086 537.816 689.59 537.464C691.11 537.096 692.654 536.84 694.222 536.696C695.806 536.536 697.31 536.456 698.734 536.456H709.606V536.168C709.606 535.256 709.262 534.544 708.574 534.032C707.902 533.52 706.926 533.208 705.646 533.096C704.366 532.968 702.99 532.904 701.518 532.904C700.174 532.904 698.95 532.928 697.846 532.976C696.742 533.024 695.75 533.248 694.87 533.648C693.99 534.032 693.502 534.76 693.406 535.832H682.222C682.414 533.032 683.318 530.92 684.934 529.496C686.566 528.072 688.382 527.112 690.382 526.616C692.398 526.12 694.278 525.808 696.022 525.68C697.766 525.536 699.806 525.464 702.142 525.464C707.358 525.464 711.126 525.864 713.446 526.664C715.766 527.448 717.766 528.704 719.446 530.432C721.142 532.16 721.99 534.464 721.99 537.344V554H710.038V552.824C710.038 552.424 710.11 552.016 710.254 551.6C710.414 551.168 710.63 550.8 710.902 550.496L712.414 548.792ZM700.174 547.232C701.006 547.232 701.926 547.168 702.934 547.04C703.958 546.896 704.958 546.68 705.934 546.392C706.926 546.104 707.742 545.736 708.382 545.288C709.038 544.824 709.438 544.28 709.582 543.656L710.014 543.008H699.79C699.022 543.008 698.318 543.04 697.678 543.104C697.038 543.152 696.486 543.248 696.022 543.392C695.574 543.536 695.222 543.752 694.966 544.04C694.726 544.312 694.606 544.672 694.606 545.12C694.606 545.6 694.766 545.984 695.086 546.272C695.422 546.544 695.862 546.752 696.406 546.896C696.95 547.04 697.55 547.136 698.206 547.184C698.878 547.216 699.534 547.232 700.174 547.232ZM743.534 554.24C736.046 554.24 730.854 553.584 727.958 552.272C725.062 550.944 723.614 548.224 723.614 544.112H735.182C735.182 545.584 736.014 546.392 737.678 546.536C739.342 546.68 741.534 546.752 744.254 546.752C746.094 546.752 747.638 546.72 748.886 546.656C750.15 546.592 750.782 546.08 750.782 545.12C750.782 544.256 749.87 543.808 748.046 543.776C746.222 543.728 743.726 543.664 740.558 543.584C736.046 543.504 732.07 542.864 728.63 541.664C725.19 540.448 723.47 538 723.47 534.32C723.47 531.216 724.982 528.968 728.006 527.576C731.046 526.184 735.662 525.488 741.854 525.488C749.726 525.488 755.11 526.208 758.006 527.648C760.902 529.072 762.35 531.72 762.35 535.592H750.878C750.878 534.104 750.006 533.288 748.262 533.144C746.534 533 744.23 532.928 741.35 532.928C739.286 532.928 737.742 532.984 736.718 533.096C735.694 533.208 735.182 533.744 735.182 534.704C735.182 535.568 736.27 536.032 738.446 536.096C740.622 536.144 743.294 536.232 746.462 536.36C750.894 536.504 754.654 537.08 757.742 538.088C760.83 539.08 762.374 541.24 762.374 544.568C762.374 548.168 761.062 550.68 758.438 552.104C755.83 553.528 750.862 554.24 743.534 554.24ZM772.085 536.984L772.613 537.44L786.413 525.728H801.365L787.901 537.392L801.965 554H788.189L779.693 543.944L776.189 546.944V554H763.829V515.936H776.189V532.808C776.189 532.936 776.149 533.04 776.069 533.12L772.085 536.984ZM819.612 554.24C812.124 554.24 806.932 553.584 804.036 552.272C801.14 550.944 799.692 548.224 799.692 544.112H811.26C811.26 545.584 812.092 546.392 813.756 546.536C815.42 546.68 817.612 546.752 820.332 546.752C822.172 546.752 823.716 546.72 824.964 546.656C826.228 546.592 826.86 546.08 826.86 545.12C826.86 544.256 825.948 543.808 824.124 543.776C822.3 543.728 819.804 543.664 816.636 543.584C812.124 543.504 808.148 542.864 804.708 541.664C801.268 540.448 799.548 538 799.548 534.32C799.548 531.216 801.06 528.968 804.084 527.576C807.124 526.184 811.74 525.488 817.932 525.488C825.804 525.488 831.188 526.208 834.084 527.648C836.98 529.072 838.428 531.72 838.428 535.592H826.956C826.956 534.104 826.084 533.288 824.34 533.144C822.612 533 820.308 532.928 817.428 532.928C815.364 532.928 813.82 532.984 812.796 533.096C811.772 533.208 811.26 533.744 811.26 534.704C811.26 535.568 812.348 536.032 814.524 536.096C816.7 536.144 819.372 536.232 822.54 536.36C826.972 536.504 830.732 537.08 833.82 538.088C836.908 539.08 838.452 541.24 838.452 544.568C838.452 548.168 837.14 550.68 834.516 552.104C831.908 553.528 826.94 554.24 819.612 554.24ZM326.84 576.296C329.016 576.296 330.872 576.616 332.408 577.256C333.976 577.896 335.176 578.824 336.008 580.04C336.872 581.256 337.304 582.728 337.304 584.456C337.304 586.44 336.728 588.152 335.576 589.592C334.424 591.032 332.936 592.312 331.112 593.432L335.768 597.848C336.312 597.016 336.792 596.088 337.208 595.064C337.656 594.008 337.992 592.904 338.216 591.752H347.72C347.208 594.088 346.44 596.328 345.416 598.472C344.392 600.616 343.288 602.392 342.104 603.8L349.592 611H337.736L335.432 608.6C334.792 609.016 334.152 609.4 333.512 609.752C332.904 610.104 332.216 610.408 331.448 610.664C330.68 610.92 329.784 611.112 328.76 611.24C327.768 611.4 326.552 611.48 325.112 611.48C322.456 611.48 320.2 611.032 318.344 610.136C316.488 609.24 315.08 608.04 314.12 606.536C313.16 605 312.68 603.32 312.68 601.496C312.68 600.12 312.92 598.856 313.4 597.704C313.912 596.552 314.632 595.512 315.56 594.584C316.52 593.624 317.688 592.792 319.064 592.088C318.424 591.352 317.864 590.6 317.384 589.832C316.936 589.032 316.584 588.2 316.328 587.336C316.104 586.44 315.992 585.48 315.992 584.456C315.992 582.856 316.392 581.448 317.192 580.232C318.024 579.016 319.24 578.056 320.84 577.352C322.472 576.648 324.472 576.296 326.84 576.296ZM324.056 597.128C323.608 597.448 323.24 597.816 322.952 598.232C322.664 598.616 322.456 599.032 322.328 599.48C322.2 599.896 322.136 600.344 322.136 600.824C322.136 601.816 322.488 602.632 323.192 603.272C323.896 603.88 324.824 604.184 325.976 604.184C326.872 604.184 327.656 604.072 328.328 603.848C329 603.592 329.512 603.32 329.864 603.032L324.056 597.128ZM326.696 582.296C326.056 582.296 325.48 582.488 324.968 582.872C324.488 583.256 324.248 583.88 324.248 584.744C324.248 585.448 324.456 586.104 324.872 586.712C325.288 587.32 325.768 587.88 326.312 588.392C327.208 587.88 327.88 587.272 328.328 586.568C328.808 585.864 329.048 585.16 329.048 584.456C329.048 583.688 328.824 583.144 328.376 582.824C327.928 582.472 327.368 582.296 326.696 582.296ZM394.334 611H377.918L369.422 582.728H382.094L386.222 601.064C386.254 601.224 386.278 601.4 386.294 601.592C386.31 601.784 386.318 601.968 386.318 602.144V604.712H387.038V602.144C387.038 601.968 387.054 601.792 387.086 601.616C387.118 601.424 387.158 601.248 387.206 601.088L393.134 582.728H404.87L410.726 601.04C410.774 601.216 410.806 601.4 410.822 601.592C410.854 601.768 410.87 601.944 410.87 602.12V604.592H411.59V602.12C411.59 601.752 411.63 601.392 411.71 601.04L415.694 582.728H428.198L419.726 611H403.454L399.422 597.272C399.374 597.112 399.334 596.944 399.302 596.768C399.27 596.576 399.254 596.392 399.254 596.216V592.688H398.534V596.192C398.534 596.368 398.518 596.552 398.486 596.744C398.47 596.936 398.438 597.112 398.39 597.272L394.334 611ZM442.019 572.936L442.043 580.928H429.635L429.611 572.936H442.019ZM429.635 582.728H442.043V611H429.635V582.728ZM468.829 597.68C468.829 594.688 468.365 592.776 467.437 591.944C466.509 591.096 465.109 590.672 463.237 590.672C461.141 590.672 459.301 591.392 457.717 592.832C456.933 593.536 456.341 594.392 455.941 595.4V611H443.533V582.728H455.941V584.936C455.941 585.08 455.893 585.192 455.797 585.272L453.397 587.552L453.829 588.056L454.333 587.6C454.397 587.536 454.461 587.472 454.525 587.408C457.757 584.128 461.949 582.488 467.101 582.488C467.341 582.488 467.581 582.488 467.821 582.488C472.141 582.648 475.453 583.912 477.757 586.28C480.061 588.648 481.213 592.216 481.213 596.984V611H468.829V597.68ZM525.119 596.744C525.119 594.36 524.727 592.752 523.943 591.92C523.159 591.088 522.007 590.672 520.487 590.672C518.775 590.672 517.327 591.216 516.143 592.304C515.279 593.104 514.727 594.208 514.487 595.616V611H502.079V582.728H514.487V584.936C514.487 585.08 514.439 585.192 514.343 585.272L511.943 587.552L512.375 588.056L513.479 587.048C513.559 586.968 513.639 586.88 513.719 586.784C516.471 583.952 519.911 582.536 524.039 582.536C524.151 582.536 524.263 582.536 524.375 582.536C528.871 582.616 532.183 583.808 534.311 586.112C534.663 586.512 534.991 586.928 535.295 587.36C535.391 587.28 535.487 587.192 535.583 587.096C539.119 584.056 542.967 582.536 547.127 582.536C547.223 582.536 547.327 582.536 547.439 582.536C551.935 582.616 555.207 583.816 557.255 586.136C559.319 588.44 560.351 591.544 560.351 595.448V611H547.967V596.744C547.967 594.36 547.607 592.752 546.887 591.92C546.183 591.088 545.063 590.672 543.527 590.672C541.815 590.672 540.367 591.216 539.183 592.304C538.271 593.152 537.711 594.336 537.503 595.856V611H525.119V596.744ZM592.086 605.792L591.51 605.408C590.07 607.184 588.966 608.344 588.198 608.888C587.43 609.432 586.502 609.896 585.414 610.28C584.326 610.648 583.11 610.928 581.766 611.12C580.422 611.328 578.99 611.432 577.47 611.432C576.174 611.432 574.79 611.352 573.318 611.192C571.862 611.048 570.454 610.792 569.094 610.424C567.734 610.04 566.502 609.504 565.398 608.816C564.294 608.128 563.414 607.264 562.758 606.224C562.118 605.184 561.798 603.88 561.798 602.312C561.798 600.792 562.126 599.544 562.782 598.568C563.454 597.576 564.326 596.736 565.398 596.048C566.47 595.344 567.758 594.816 569.262 594.464C570.782 594.096 572.326 593.84 573.894 593.696C575.478 593.536 576.982 593.456 578.406 593.456H589.278V593.168C589.278 592.256 588.934 591.544 588.246 591.032C587.574 590.52 586.598 590.208 585.318 590.096C584.038 589.968 582.662 589.904 581.19 589.904C579.846 589.904 578.622 589.928 577.518 589.976C576.414 590.024 575.422 590.248 574.542 590.648C573.662 591.032 573.174 591.76 573.078 592.832H561.894C562.086 590.032 562.99 587.92 564.606 586.496C566.238 585.072 568.054 584.112 570.054 583.616C572.07 583.12 573.95 582.808 575.694 582.68C577.438 582.536 579.478 582.464 581.814 582.464C587.03 582.464 590.798 582.864 593.118 583.664C595.438 584.448 597.438 585.704 599.118 587.432C600.814 589.16 601.662 591.464 601.662 594.344V611H589.71V609.824C589.71 609.424 589.782 609.016 589.926 608.6C590.086 608.168 590.302 607.8 590.574 607.496L592.086 605.792ZM579.846 604.232C580.678 604.232 581.598 604.168 582.606 604.04C583.63 603.896 584.63 603.68 585.606 603.392C586.598 603.104 587.414 602.736 588.054 602.288C588.71 601.824 589.11 601.28 589.254 600.656L589.686 600.008H579.462C578.694 600.008 577.99 600.04 577.35 600.104C576.71 600.152 576.158 600.248 575.694 600.392C575.246 600.536 574.894 600.752 574.638 601.04C574.398 601.312 574.278 601.672 574.278 602.12C574.278 602.6 574.438 602.984 574.758 603.272C575.094 603.544 575.534 603.752 576.078 603.896C576.622 604.04 577.222 604.136 577.878 604.184C578.55 604.216 579.206 604.232 579.846 604.232ZM622.438 611C616.646 611 612.886 610.144 611.158 608.432C609.43 606.72 608.566 604.32 608.566 601.232V591.104H603.142V582.728H604.678C605.51 582.728 606.238 582.584 606.862 582.296C607.502 582.008 608.038 581.616 608.47 581.12C608.902 580.608 609.23 580.008 609.454 579.32C609.678 578.616 609.79 577.848 609.79 577.016V572.936H622.222V577.016C622.222 577.88 622.134 578.624 621.958 579.248C621.782 579.872 621.494 580.392 621.094 580.808C620.694 581.208 620.174 581.512 619.534 581.72C618.894 581.912 618.11 582.008 617.182 582.008V582.728H633.91V591.104H620.95V598.328C620.95 599.72 621.502 600.632 622.606 601.064C623.71 601.496 624.966 601.712 626.374 601.712C627.958 601.712 630.502 601.696 634.006 601.664V611C629.43 611 625.574 611 622.438 611ZM655.742 611.36C648.638 611.36 643.486 610.296 640.286 608.168C637.086 606.04 635.486 602.304 635.486 596.96C635.486 591.616 637.086 587.872 640.286 585.728C643.486 583.568 648.638 582.488 655.742 582.488C662.91 582.488 667.774 583.504 670.334 585.536C672.894 587.568 674.454 590.808 675.014 595.256H663.326C663.07 593.448 662.398 592.232 661.31 591.608C660.238 590.984 658.382 590.672 655.742 590.672C653.374 590.672 651.422 591.056 649.886 591.824C648.35 592.592 647.582 594.304 647.582 596.96C647.582 599.6 648.35 601.304 649.886 602.072C651.422 602.84 653.374 603.224 655.742 603.224C658.382 603.224 660.238 602.912 661.31 602.288C662.398 601.664 663.07 600.464 663.326 598.688H675.014C674.454 603.216 672.894 606.464 670.334 608.432C667.774 610.384 662.91 611.36 655.742 611.36ZM702.062 597.68C702.062 594.688 701.59 592.776 700.646 591.944C699.718 591.096 698.326 590.672 696.47 590.672C694.374 590.672 692.534 591.392 690.95 592.832C689.926 593.744 689.23 594.824 688.862 596.072V611H676.454V572.936H688.862V585.176C688.862 585.32 688.814 585.432 688.718 585.512L686.318 587.672L686.75 588.176L687.278 587.696C687.518 587.44 687.774 587.192 688.046 586.952C691.118 583.96 695.158 582.464 700.166 582.464C700.486 582.464 700.814 582.472 701.15 582.488C705.39 582.664 708.662 583.912 710.966 586.232C713.286 588.536 714.446 592.072 714.446 596.84V611H702.062V597.68ZM757.131 601.328C756.683 604.112 755.587 606.24 753.843 607.712C752.115 609.168 750.043 610.136 747.627 610.616C745.211 611.112 741.611 611.36 736.827 611.36C728.619 611.36 723.083 610.184 720.219 607.832C717.355 605.464 715.923 601.864 715.923 597.032C715.923 592.2 717.331 588.56 720.147 586.112C722.979 583.664 728.411 582.44 736.443 582.44C744.523 582.44 749.955 583.72 752.739 586.28C755.523 588.824 756.915 592.408 756.915 597.032L756.819 599.816H727.923C728.243 601.224 728.851 602.192 729.747 602.72C731.139 603.52 733.499 603.92 736.827 603.92C738.683 603.92 739.995 603.88 740.763 603.8C741.547 603.704 742.307 603.48 743.043 603.128C743.795 602.76 744.403 602.16 744.867 601.328H757.131ZM744.699 593.576C744.603 592.36 743.939 591.432 742.707 590.792C741.491 590.136 739.419 589.808 736.491 589.808C733.259 589.808 730.979 590.256 729.651 591.152C728.931 591.632 728.403 592.44 728.067 593.576H744.699ZM778.456 611.24C770.968 611.24 765.776 610.584 762.88 609.272C759.984 607.944 758.536 605.224 758.536 601.112H770.104C770.104 602.584 770.936 603.392 772.6 603.536C774.264 603.68 776.456 603.752 779.176 603.752C781.016 603.752 782.56 603.72 783.808 603.656C785.072 603.592 785.704 603.08 785.704 602.12C785.704 601.256 784.792 600.808 782.968 600.776C781.144 600.728 778.648 600.664 775.48 600.584C770.968 600.504 766.992 599.864 763.552 598.664C760.112 597.448 758.392 595 758.392 591.32C758.392 588.216 759.904 585.968 762.928 584.576C765.968 583.184 770.584 582.488 776.776 582.488C784.648 582.488 790.032 583.208 792.928 584.648C795.824 586.072 797.272 588.72 797.272 592.592H785.8C785.8 591.104 784.928 590.288 783.184 590.144C781.456 590 779.152 589.928 776.272 589.928C774.208 589.928 772.664 589.984 771.64 590.096C770.616 590.208 770.104 590.744 770.104 591.704C770.104 592.568 771.192 593.032 773.368 593.096C775.544 593.144 778.216 593.232 781.384 593.36C785.816 593.504 789.576 594.08 792.664 595.088C795.752 596.08 797.296 598.24 797.296 601.568C797.296 605.168 795.984 607.68 793.36 609.104C790.752 610.528 785.784 611.24 778.456 611.24ZM837.454 611C831.662 611 827.902 610.144 826.174 608.432C824.446 606.72 823.582 604.32 823.582 601.232V591.104H818.158V582.728H819.694C820.526 582.728 821.254 582.584 821.878 582.296C822.518 582.008 823.054 581.616 823.486 581.12C823.918 580.608 824.246 580.008 824.47 579.32C824.694 578.616 824.806 577.848 824.806 577.016V572.936H837.238V577.016C837.238 577.88 837.15 578.624 836.974 579.248C836.798 579.872 836.51 580.392 836.11 580.808C835.71 581.208 835.19 581.512 834.55 581.72C833.91 581.912 833.126 582.008 832.198 582.008V582.728H848.926V591.104H835.966V598.328C835.966 599.72 836.518 600.632 837.622 601.064C838.726 601.496 839.982 601.712 841.39 601.712C842.974 601.712 845.518 601.696 849.022 601.664V611C844.446 611 840.59 611 837.454 611ZM871.189 611.24C865.413 611.24 860.517 610.056 856.501 607.688C852.501 605.32 850.501 601.64 850.501 596.648C850.501 591.688 852.501 588.08 856.501 585.824C860.517 583.552 865.413 582.416 871.189 582.416C876.981 582.416 881.869 583.552 885.853 585.824C889.853 588.08 891.853 591.688 891.853 596.648C891.853 601.64 889.853 605.32 885.853 607.688C881.869 610.056 876.981 611.24 871.189 611.24ZM871.213 603.272C873.565 603.272 875.533 602.872 877.117 602.072C878.701 601.272 879.493 599.496 879.493 596.744C879.493 594.024 878.701 592.28 877.117 591.512C875.533 590.744 873.565 590.36 871.213 590.36C868.861 590.36 866.885 590.744 865.285 591.512C863.685 592.28 862.885 594.024 862.885 596.744C862.885 599.496 863.685 601.272 865.285 602.072C866.885 602.872 868.861 603.272 871.213 603.272ZM331.136 661.064C328.72 661.064 326.4 660.872 324.176 660.488C324.032 660.664 323.96 660.824 323.96 660.968C323.96 661.528 325 661.888 327.08 662.048C329.848 662.256 332.824 662.36 336.008 662.36C341.528 662.36 345.12 662.976 346.784 664.208C348.464 665.424 349.304 667.432 349.304 670.232C349.304 674.2 347.848 676.872 344.936 678.248C342.04 679.624 336.176 680.312 327.344 680.312C319.344 680.312 314.744 679.536 313.544 677.984C312.36 676.448 311.768 675.168 311.768 674.144C311.768 672.96 312.272 671.744 313.28 670.496H322.832C322.672 670.816 322.592 671.08 322.592 671.288C322.592 671.608 322.832 671.824 323.312 671.936C323.808 672.048 325.168 672.104 327.392 672.104C330.096 672.104 332.368 672.088 334.208 672.056C336.064 672.024 336.992 671.632 336.992 670.88C336.992 670.352 336.168 670.048 334.52 669.968C332.888 669.888 328.624 669.848 321.728 669.848C317.168 669.848 314.336 668.512 313.232 665.84C312.96 665.184 312.824 664.512 312.824 663.824C312.824 661.92 313.904 659.936 316.064 657.872C313.712 656.432 312.536 654.416 312.536 651.824C312.536 646.864 314.328 643.576 317.912 641.96C321.512 640.344 325.608 639.536 330.2 639.536H350.312V647.912H339.872V648.632L341.864 648.656C341.88 648.656 341.888 648.656 341.888 648.656C344.72 648.656 346.136 650.72 346.136 654.848C346.136 658.992 341.136 661.064 331.136 661.064ZM330.392 647.912C328.776 647.912 327.432 648.032 326.36 648.272C325.288 648.496 324.752 649.24 324.752 650.504C324.752 651.688 325.272 652.408 326.312 652.664C327.352 652.92 328.784 653.048 330.608 653.048C330.72 653.048 330.832 653.048 330.944 653.048C334.144 653.048 335.744 652.256 335.744 650.672C335.744 650.592 335.744 650.512 335.744 650.432C335.632 649.2 334.768 648.36 333.152 647.912H330.392ZM393.006 658.328C392.558 661.112 391.462 663.24 389.718 664.712C387.99 666.168 385.918 667.136 383.502 667.616C381.086 668.112 377.486 668.36 372.702 668.36C364.494 668.36 358.958 667.184 356.094 664.832C353.23 662.464 351.798 658.864 351.798 654.032C351.798 649.2 353.206 645.56 356.022 643.112C358.854 640.664 364.286 639.44 372.318 639.44C380.398 639.44 385.83 640.72 388.614 643.28C391.398 645.824 392.79 649.408 392.79 654.032L392.694 656.816H363.798C364.118 658.224 364.726 659.192 365.622 659.72C367.014 660.52 369.374 660.92 372.702 660.92C374.558 660.92 375.87 660.88 376.638 660.8C377.422 660.704 378.182 660.48 378.918 660.128C379.67 659.76 380.278 659.16 380.742 658.328H393.006ZM380.574 650.576C380.478 649.36 379.814 648.432 378.582 647.792C377.366 647.136 375.294 646.808 372.366 646.808C369.134 646.808 366.854 647.256 365.526 648.152C364.806 648.632 364.278 649.44 363.942 650.576H380.574ZM413.563 668C407.771 668 404.011 667.144 402.283 665.432C400.555 663.72 399.691 661.32 399.691 658.232V648.104H394.267V639.728H395.803C396.635 639.728 397.363 639.584 397.987 639.296C398.627 639.008 399.163 638.616 399.595 638.12C400.027 637.608 400.355 637.008 400.579 636.32C400.803 635.616 400.915 634.848 400.915 634.016V629.936H413.347V634.016C413.347 634.88 413.259 635.624 413.083 636.248C412.907 636.872 412.619 637.392 412.219 637.808C411.819 638.208 411.299 638.512 410.659 638.72C410.019 638.912 409.235 639.008 408.307 639.008V639.728H425.035V648.104H412.075V655.328C412.075 656.72 412.627 657.632 413.731 658.064C414.835 658.496 416.091 658.712 417.499 658.712C419.083 658.712 421.627 658.696 425.131 658.664V668C420.555 668 416.699 668 413.563 668ZM467.785 668.336C461.241 668.336 456.321 666.984 453.025 664.28C449.745 661.56 448.105 657.72 448.105 652.76C448.105 651.624 448.185 650.416 448.345 649.136C449.177 642.32 451.769 637.416 456.121 634.424C460.489 631.432 465.945 629.936 472.489 629.936C479.033 629.936 483.945 631.296 487.225 634.016C490.521 636.72 492.169 640.552 492.169 645.512C492.169 646.648 492.089 647.856 491.929 649.136C491.097 655.952 488.497 660.856 484.129 663.848C479.777 666.84 474.329 668.336 467.785 668.336ZM468.937 658.832C471.753 658.832 474.081 658.216 475.921 656.984C477.761 655.752 478.929 653.136 479.425 649.136C479.553 648.16 479.617 647.264 479.617 646.448C479.617 643.92 478.937 642.12 477.577 641.048C476.217 639.976 474.137 639.44 471.337 639.44C468.521 639.44 466.193 640.056 464.353 641.288C462.513 642.504 461.345 645.12 460.849 649.136C460.721 650.112 460.657 651 460.657 651.8C460.657 654.328 461.337 656.136 462.697 657.224C464.057 658.296 466.137 658.832 468.937 658.832ZM495.744 629.936H520.344C525.72 629.936 529.184 630.656 530.736 632.096C532.288 633.52 533.064 635.456 533.064 637.904C533.064 638.368 533.04 638.856 532.992 639.368C532.704 642.312 531.76 644.408 530.16 645.656C529.056 646.68 527.32 647.352 524.952 647.672L524.832 648.512C526.752 648.608 528.472 649.224 529.992 650.36C531.512 651.48 532.272 653.208 532.272 655.544C532.272 656.104 532.232 656.712 532.152 657.368C531.704 661.016 530.448 663.704 528.384 665.432C526.336 667.144 522.616 668 517.224 668H491.064L495.744 629.936ZM518.136 643.664C519.224 643.664 519.952 643.472 520.32 643.088C520.704 642.704 520.936 642.152 521.016 641.432C521.032 641.256 521.04 641.096 521.04 640.952C521.04 640.488 520.912 640.12 520.656 639.848C520.4 639.576 519.728 639.44 518.64 639.44H506.976L506.472 643.664H518.136ZM516.504 658.376C517.832 658.376 518.688 658.16 519.072 657.728C519.456 657.296 519.72 656.544 519.864 655.472C519.896 655.168 519.912 654.888 519.912 654.632C519.912 654.024 519.792 653.528 519.552 653.144C519.328 652.76 518.552 652.568 517.224 652.568H505.368L504.648 658.376H516.504ZM553.818 668.192C547.258 668.192 542.386 666.8 539.202 664.016C536.018 661.216 534.426 657.408 534.426 652.592C534.426 651.472 534.506 650.288 534.666 649.04C535.466 642.4 538.002 637.56 542.274 634.52C546.546 631.464 551.962 629.936 558.522 629.936C565.098 629.936 569.826 631.24 572.706 633.848C575.602 636.456 577.05 639.824 577.05 643.952C577.05 644.816 576.994 645.728 576.882 646.688L564.186 646.4C564.282 645.664 564.33 644.992 564.33 644.384C564.33 642.352 563.73 641.04 562.53 640.448C561.346 639.84 559.554 639.536 557.154 639.536C554.706 639.536 552.602 640.032 550.842 641.024C549.082 642.016 547.93 644.688 547.386 649.04C547.242 650.16 547.17 651.168 547.17 652.064C547.17 654.64 547.826 656.376 549.138 657.272C550.466 658.152 552.362 658.592 554.826 658.592C557.194 658.592 559.138 658.232 560.658 657.512C562.194 656.776 563.154 654.816 563.538 651.632L576.33 651.344C575.658 656.752 573.378 660.912 569.49 663.824C565.618 666.736 560.394 668.192 553.818 668.192ZM596.384 668.24C590.608 668.24 585.992 667.144 582.536 664.952C579.096 662.744 577.376 659.656 577.376 655.688C577.376 655.032 577.416 654.352 577.496 653.648C578.104 648.688 580.552 645.08 584.84 642.824C589.128 640.552 594.16 639.416 599.936 639.416C605.712 639.416 610.32 640.472 613.76 642.584C617.216 644.68 618.944 647.696 618.944 651.632C618.944 652.272 618.904 652.944 618.824 653.648C618.216 658.64 615.768 662.32 611.48 664.688C607.192 667.056 602.16 668.24 596.384 668.24ZM597.368 660.272C599.72 660.272 601.736 659.872 603.416 659.072C605.112 658.272 606.128 656.496 606.464 653.744C606.528 653.248 606.56 652.784 606.56 652.352C606.56 650.416 605.88 649.104 604.52 648.416C603.16 647.712 601.304 647.36 598.952 647.36C596.6 647.36 594.576 647.744 592.88 648.512C591.184 649.28 590.176 651.024 589.856 653.744C589.792 654.256 589.76 654.728 589.76 655.16C589.76 657.112 590.44 658.456 591.8 659.192C593.16 659.912 595.016 660.272 597.368 660.272ZM635.605 629.936L634.645 637.928H622.237L623.173 629.936H635.605ZM622.021 639.728H634.429L630.949 668H618.541L622.021 639.728ZM659.391 654.68C659.503 653.768 659.559 652.952 659.559 652.232C659.559 650.616 659.207 649.456 658.503 648.752C657.799 648.032 656.511 647.672 654.639 647.672C652.543 647.672 650.615 648.392 648.855 649.832C647.991 650.536 647.295 651.392 646.767 652.4L644.847 668H632.439L635.919 639.728H648.327L648.063 641.936C648.031 642.08 647.967 642.192 647.871 642.272L645.183 644.552L645.543 645.056L646.119 644.6C646.183 644.536 646.255 644.472 646.335 644.408C649.951 641.128 654.343 639.488 659.511 639.488C659.751 639.488 659.991 639.488 660.231 639.488C664.519 639.648 667.559 640.784 669.351 642.896C671.143 644.992 672.039 647.672 672.039 650.936C672.039 651.896 671.975 652.912 671.847 653.984L670.119 668H657.735L659.391 654.68ZM691.619 668.24C684.131 668.24 679.123 667.632 676.595 666.416C674.083 665.2 672.827 663.032 672.827 659.912C672.827 659.352 672.867 658.752 672.947 658.112H684.515C684.499 658.256 684.491 658.392 684.491 658.52C684.491 659.736 685.267 660.416 686.819 660.56C688.387 660.688 690.539 660.752 693.275 660.752C695.099 660.752 696.643 660.72 697.907 660.656C699.171 660.592 699.859 660.08 699.971 659.12C699.971 659.072 699.971 659.024 699.971 658.976C699.971 658.208 699.091 657.808 697.331 657.776C695.571 657.728 693.107 657.664 689.939 657.584C685.443 657.504 681.643 656.896 678.539 655.76C675.451 654.624 673.907 652.576 673.907 649.616C673.907 649.2 673.939 648.768 674.003 648.32C674.387 645.216 676.179 642.968 679.379 641.576C682.579 640.184 687.275 639.488 693.467 639.488C701.339 639.488 706.531 640.152 709.043 641.48C711.571 642.808 712.835 644.976 712.835 647.984C712.835 648.496 712.803 649.032 712.739 649.592H701.243C701.259 649.448 701.267 649.312 701.267 649.184C701.267 647.952 700.451 647.272 698.819 647.144C697.187 647 694.931 646.928 692.051 646.928C689.987 646.928 688.435 646.984 687.395 647.096C686.355 647.208 685.779 647.744 685.667 648.704C685.667 648.752 685.667 648.792 685.667 648.824C685.667 649.608 686.723 650.032 688.835 650.096C690.963 650.144 693.595 650.232 696.731 650.36C701.147 650.504 704.747 651.048 707.531 651.992C710.331 652.936 711.731 654.752 711.731 657.44C711.731 657.792 711.707 658.168 711.659 658.568C711.211 662.168 709.587 664.68 706.787 666.104C703.987 667.528 698.931 668.24 691.619 668.24ZM723.219 660.128V668H711.963V660.128H723.219Z" fill="white"/>
<path d="M348.854 333.384C336.406 333.384 327.126 330.728 321.014 325.416C314.934 320.072 311.894 312.52 311.894 302.76C311.894 300.328 312.07 297.736 312.422 294.984C314.086 281.448 319.142 271.72 327.59 265.8C336.07 259.848 346.758 256.872 359.654 256.872C370.982 256.872 380.054 259.144 386.87 263.688C393.718 268.2 397.142 274.456 397.142 282.456C397.142 283.128 397.126 283.816 397.094 284.52H372.038C371.878 280.936 370.63 278.6 368.294 277.512C365.958 276.392 362.326 275.832 357.398 275.832C352.182 275.832 347.83 277.048 344.342 279.48C340.886 281.912 338.646 287.192 337.622 295.32C337.43 296.888 337.334 298.36 337.334 299.736C337.334 304.408 338.582 308.024 341.078 310.584C343.606 313.144 347.542 314.424 352.886 314.424C357.91 314.424 361.638 313.736 364.07 312.36C366.342 311.048 367.878 309.064 368.678 306.408H355.238L357.158 290.52H396.374L391.142 332.952H375.11L376.118 324.312L379.67 317.304L378.518 316.632L374.678 323.688C369.75 330.152 361.142 333.384 348.854 333.384ZM403.422 256.872H471.63L469.182 276.696H426.078L425.07 285H467.214L464.814 304.68H422.622L421.614 313.176H464.718L462.27 333H394.062L403.422 256.872ZM516.773 333H491.669L498.581 276.696H472.085L474.485 256.872H552.581L550.133 276.696H516.773L516.581 278.136H517.541C519.333 278.136 520.709 278.68 521.669 279.768C522.629 280.824 522.997 282.264 522.773 284.088L516.773 333ZM594.297 256.872H646.281C654.697 256.872 660.649 259.112 664.137 263.592C667.657 268.04 669.417 273.24 669.417 279.192C669.417 280.728 669.321 282.312 669.129 283.944C668.169 291.816 665.001 298.136 659.625 302.904C655.305 306.712 649.849 309 643.257 309.768L643.881 311.112L653.337 309.432L662.793 333H635.049L626.937 312.888L627.273 310.056H612.873L610.041 333H584.937L594.297 256.872ZM634.185 292.632C636.873 292.632 639.097 291.944 640.857 290.568C642.617 289.192 643.673 287.128 644.025 284.376C644.089 283.864 644.121 283.368 644.121 282.888C644.121 280.808 643.481 279.08 642.201 277.704C640.921 276.296 638.953 275.592 636.297 275.592H617.097L614.985 292.632H634.185ZM675.391 256.872H743.599L741.151 276.696H698.047L697.039 285H739.183L736.783 304.68H694.591L693.583 313.176H736.687L734.239 333H666.031L675.391 256.872ZM791.477 333H752.741L746.405 256.872H773.861L775.205 303.528C775.269 304.648 775.285 305.928 775.253 307.368C775.221 308.776 775.125 310.056 774.965 311.208L774.101 318.216H775.541L776.405 311.208C776.565 310.056 776.805 308.776 777.125 307.368C777.477 305.96 777.861 304.68 778.277 303.528L793.493 256.872H828.773L832.949 306.792C832.981 306.952 832.981 307.112 832.949 307.272C832.949 307.432 832.949 307.592 832.949 307.752L831.653 318.216H833.093L834.389 307.752C834.389 307.592 834.405 307.432 834.437 307.272C834.469 307.112 834.517 306.952 834.581 306.792L849.077 256.872H876.533L850.805 333H811.925L809.381 283.704C809.253 282.552 809.205 281.272 809.237 279.864C809.269 278.424 809.365 277.128 809.525 275.976L810.053 271.704H808.613L808.085 275.976C807.925 277.128 807.685 278.424 807.365 279.864C807.045 281.272 806.693 282.552 806.309 283.704L791.477 333ZM891.785 256.872H931.241L947.033 333H921.017L917.801 318.024H888.521L881.609 333H855.593L891.785 256.872ZM899.081 297H912.953L910.553 279.72C910.201 278.312 909.977 276.744 909.881 275.016C909.817 273.256 909.881 271.624 910.073 270.12L910.265 268.248H908.825L908.633 270.12C908.473 271.624 908.121 273.256 907.577 275.016C907.065 276.744 906.457 278.312 905.753 279.72L899.081 297ZM959.266 256.872H1011.25C1019.67 256.872 1025.62 259.112 1029.11 263.592C1032.63 268.04 1034.39 273.24 1034.39 279.192C1034.39 280.728 1034.29 282.312 1034.1 283.944C1033.14 291.816 1029.97 298.136 1024.59 302.904C1020.27 306.712 1014.82 309 1008.23 309.768L1008.85 311.112L1018.31 309.432L1027.76 333H1000.02L991.906 312.888L992.242 310.056H977.842L975.01 333H949.906L959.266 256.872ZM999.154 292.632C1001.84 292.632 1004.07 291.944 1005.83 290.568C1007.59 289.192 1008.64 287.128 1008.99 284.376C1009.06 283.864 1009.09 283.368 1009.09 282.888C1009.09 280.808 1008.45 279.08 1007.17 277.704C1005.89 276.296 1003.92 275.592 1001.27 275.592H982.066L979.954 292.632H999.154ZM1040.36 256.872H1087.5C1098.18 256.872 1105.9 259.48 1110.63 264.696C1115.37 269.912 1117.74 277 1117.74 285.96C1117.74 288.712 1117.54 291.688 1117.16 294.888C1115.5 308.392 1111.26 318.12 1104.44 324.072C1097.62 330.024 1088.86 333 1078.14 333H1031L1040.36 256.872ZM1075.3 313.8C1080.2 313.8 1083.98 312.632 1086.63 310.296C1089.32 307.96 1091.14 302.824 1092.1 294.888C1092.42 292.36 1092.58 290.12 1092.58 288.168C1092.58 284.04 1091.7 281 1089.94 279.048C1088.18 277.064 1084.84 276.072 1079.91 276.072H1063.06L1058.41 313.8H1075.3ZM1157.18 333.384C1142.3 333.384 1132.09 331.848 1126.56 328.776C1121.05 325.704 1118.3 320.152 1118.3 312.12C1118.3 310.296 1118.43 308.312 1118.69 306.168H1143.74C1143.68 306.744 1143.65 307.272 1143.65 307.752C1143.65 310.92 1145.15 312.84 1148.16 313.512C1151.2 314.152 1154.91 314.472 1159.29 314.472C1163.65 314.472 1167.5 314.312 1170.86 313.992C1174.22 313.64 1176.05 312.28 1176.33 309.912C1176.37 309.752 1176.38 309.608 1176.38 309.48C1176.38 307.4 1174.01 306.2 1169.28 305.88C1164.57 305.56 1158.69 305.032 1151.61 304.296C1139.81 302.824 1131.82 300.696 1127.66 297.912C1123.53 295.128 1121.47 291.096 1121.47 285.816C1121.47 284.792 1121.53 283.72 1121.66 282.6C1122.97 271.944 1127.13 265 1134.14 261.768C1141.18 258.504 1151.76 256.872 1165.87 256.872C1179.92 256.872 1189.81 258.52 1195.53 261.816C1201.29 265.112 1204.17 270.728 1204.17 278.664C1204.17 280.296 1204.06 282.056 1203.84 283.944H1178.78C1178.85 283.464 1178.88 283.016 1178.88 282.6C1178.88 279.528 1177.28 277.624 1174.08 276.888C1170.88 276.152 1167.25 275.784 1163.18 275.784C1158.61 275.784 1154.62 275.976 1151.23 276.36C1147.87 276.744 1146.03 278.168 1145.71 280.632C1145.71 280.76 1145.71 280.888 1145.71 281.016C1145.71 283.256 1148.13 284.52 1152.96 284.808C1157.82 285.064 1163.61 285.576 1170.33 286.344C1182.94 287.848 1191.25 289.896 1195.25 292.488C1199.25 295.08 1201.25 298.92 1201.25 304.008C1201.25 304.968 1201.18 305.96 1201.05 306.984C1199.65 318.248 1195.55 325.464 1188.77 328.632C1182.01 331.8 1171.49 333.384 1157.18 333.384ZM1206.84 306.93L1215.75 254.46H1234.01L1220.7 306.93H1206.84ZM1208.93 334.43C1205.85 334.43 1203.68 333.66 1202.44 332.12C1201.19 330.507 1200.57 328.747 1200.57 326.84C1200.57 324.2 1201.37 321.78 1202.99 319.58C1204.67 317.307 1207.53 316.17 1211.57 316.17C1213.99 316.17 1215.93 316.867 1217.4 318.26C1218.86 319.58 1219.6 321.487 1219.6 323.98C1219.6 326.987 1218.61 329.48 1216.63 331.46C1214.72 333.44 1212.15 334.43 1208.93 334.43Z" fill="white"/>
<path d="M292.036 354.612L1233.96 360.195L1233.9 342.443L292.036 354.612Z" fill="#FF1654"/>
<path d="M301.299 258.437L244.246 316.407L289.735 338.947L301.299 258.437Z" fill="#FF1654"/>
<path d="M314.093 242.64L344.59 220.298L351.898 242.735L314.093 242.64Z" fill="#FF1654"/>
<path d="M311.126 217.38L319.133 221.07L309.513 231.412L311.126 217.38Z" stroke="#FF1654"/>
<path d="M263.924 265.543L259.148 249.254L286.332 250.128L263.924 265.543Z" stroke="#FF1654"/>
<path d="M298.869 242.285L276.509 176.576L241.899 202.635L298.869 242.285Z" fill="#FF1654"/>
<circle cx="918.553" cy="819.554" r="31.0535" fill="#FF1654" fill-opacity="0.2" stroke="#FF1654"/>
<path d="M920.131 835.9V811.665C921.972 814.452 924.815 817.489 929.087 819.409L930.339 816.343C926.213 814.489 923.647 811.396 922.102 808.73C921.33 807.397 920.82 806.183 920.505 805.31C920.348 804.874 920.241 804.525 920.174 804.292C920.141 804.176 920.117 804.088 920.103 804.033C920.096 804.006 920.092 803.987 920.089 803.976C920.088 803.971 920.088 803.968 920.088 803.967V803.97C920.087 803.97 920.085 803.972 920.08 803.973L916.988 804.045L916.982 804.043V804.04C916.982 804.04 916.981 804.043 916.98 804.048C916.978 804.058 916.975 804.077 916.969 804.103C916.958 804.157 916.938 804.242 916.91 804.356C916.854 804.585 916.762 804.93 916.622 805.362C916.341 806.226 915.873 807.43 915.132 808.751C913.653 811.387 911.101 814.475 906.769 816.334L907.973 819.418C912.292 817.565 915.124 814.661 916.952 811.932V835.9H920.131Z" fill="white"/>
<circle cx="1001.55" cy="819.554" r="31.0535" fill="#FF1654" fill-opacity="0.2" stroke="#FF1654"/>
<path d="M1003.13 803.967V828.202C1004.97 825.415 1007.82 822.379 1012.09 820.459L1013.34 823.524C1009.21 825.378 1006.65 828.471 1005.1 831.137C1004.33 832.47 1003.82 833.684 1003.51 834.558C1003.35 834.993 1003.24 835.342 1003.17 835.575C1003.14 835.691 1003.12 835.779 1003.1 835.834C1003.1 835.861 1003.09 835.88 1003.09 835.891C1003.09 835.896 1003.09 835.9 1003.09 835.9V835.897C1003.09 835.897 1003.09 835.895 1003.08 835.894L999.988 835.822L999.982 835.824V835.827C999.982 835.827 999.981 835.824 999.98 835.819C999.978 835.809 999.975 835.79 999.969 835.764C999.958 835.711 999.938 835.626 999.91 835.511C999.854 835.282 999.762 834.937 999.622 834.505C999.341 833.641 998.873 832.438 998.132 831.116C996.653 828.48 994.101 825.392 989.769 823.534L990.973 820.449C995.292 822.302 998.124 825.206 999.952 827.935V803.967H1003.13Z" fill="white"/>
<defs>
<linearGradient id="paint0_linear_9_37" x1="445.582" y1="539.153" x2="662.605" y2="765.821" gradientUnits="userSpaceOnUse">
<stop stop-color="#0F0404"/>
<stop offset="1" stop-color="#FF1654"/>
</linearGradient>
<linearGradient id="paint1_linear_9_37" x1="445.582" y1="539.153" x2="662.605" y2="765.821" gradientUnits="userSpaceOnUse">
<stop stop-color="#FF1654"/>
<stop offset="1" stop-color="#0F0404"/>
</linearGradient>
</defs>
</svg>
