<svg width="1920" height="955" viewBox="0 0 1920 955" fill="none" xmlns="http://www.w3.org/2000/svg">
<path d="M0 0H1920V955H0V0Z" fill="#0F0404"/>
<path d="M719.932 454H311V684.024H719.932V454Z" fill="#181818"/>
<path d="M245.089 625.521L290.904 607.084L296.06 686.038L245.089 625.521Z" stroke="#FF1654"/>
<path d="M343.328 723.221L350.209 702.097L314.616 702.186L343.328 723.221Z" stroke="#FF1654"/>
<path d="M307.842 711.464L309.708 727.693L318.968 723.426L307.842 711.464Z" fill="#FF1654"/>
<path d="M286.868 694.652L262.637 677.983L257.473 695.599L286.868 694.652Z" fill="#FF1654"/>
<path d="M275.258 766.941L241.75 741.712L296.904 703.325L275.258 766.941Z" stroke="#FF1654"/>
<path d="M1323.41 467.416L1305.01 489.465L1305.65 490.218L1501.63 376.872L1436.49 491.665L1435.96 492.598L1437.02 492.404L1658.48 451.527L1480.6 539.663L1479.18 540.368L1480.75 540.606L1676.99 570.538L1453.58 598.872L1452.52 599.007L1453.3 599.735L1550.19 689.279L1367.99 646.534L1343.99 638.448L1342.62 637.987L1343.41 639.196L1352.62 653.248L1324.79 762.409L1251.19 664.636L1250.92 664.279L1250.53 664.508L1087.91 761.21L1148.78 653.49L1177.55 642.005L1177.25 641.054L1137.43 650.148L930.952 686.632L1108.92 598.453L1110.34 597.75L1108.77 597.51L912.426 567.564L1121.18 539.493L1150.02 551.608L1150.55 550.777L1087.07 492.964L1039.31 448.831L1223.62 491.557L1224.06 491.658L1224.21 491.235L1264.63 375.708L1323.41 467.416Z" fill="url(#paint0_linear_9_66)" stroke="url(#paint1_linear_9_66)"/>
<path d="M1103.11 490.936H1127.73C1133.09 490.936 1136.71 491.72 1138.58 493.288C1140.47 494.84 1141.45 497.2 1141.51 500.368C1141.51 500.528 1141.51 500.68 1141.51 500.824C1141.51 503.528 1140.83 505.472 1139.47 506.656C1138.48 507.68 1136.82 508.352 1134.5 508.672V509.512C1136.42 509.608 1138.3 510.288 1140.14 511.552C1141.98 512.8 1142.9 515.072 1142.9 518.368C1142.9 522.016 1141.97 524.704 1140.12 526.432C1138.28 528.144 1134.66 529 1129.27 529H1103.11V490.936ZM1127.21 504.664C1128.28 504.664 1128.97 504.472 1129.29 504.088C1129.63 503.704 1129.8 503.152 1129.8 502.432C1129.8 501.728 1129.63 501.224 1129.29 500.92C1128.97 500.6 1128.28 500.44 1127.21 500.44H1115.52V504.664H1127.21ZM1127.37 519.376C1128.7 519.376 1129.53 519.16 1129.87 518.728C1130.21 518.296 1130.37 517.544 1130.37 516.472C1130.37 515.432 1130.21 514.688 1129.87 514.24C1129.53 513.792 1128.7 513.568 1127.37 513.568H1115.52V519.376H1127.37ZM1156.77 514.048C1156.77 517.04 1157.2 518.96 1158.06 519.808C1158.94 520.656 1160.31 521.08 1162.17 521.08C1164.26 521.08 1166.14 520.424 1167.78 519.112C1169.08 518.072 1169.87 516.632 1170.16 514.792V500.728H1182.57V529H1170.45V526.528C1170.45 526.384 1170.5 526.28 1170.59 526.216L1172.99 524.032L1172.56 523.528L1171.82 524.128C1171.77 524.192 1171.72 524.248 1171.67 524.296C1168.6 527.592 1164.02 529.24 1157.92 529.24C1153.39 529.24 1150 528.048 1147.74 525.664C1145.5 523.264 1144.38 519.672 1144.38 514.888V500.728H1156.77V514.048ZM1196.42 490.936L1196.45 498.928H1184.04L1184.02 490.936H1196.42ZM1184.04 500.728H1196.45V529H1184.04V500.728ZM1197.94 489.664H1210.35V529H1197.94V489.664ZM1239.56 490.936H1251.97V529H1239.56V527.392C1239.56 527.248 1239.61 527.152 1239.73 527.104L1242.41 525.4L1241.98 524.896L1241.65 525.088C1240.99 525.552 1240.22 526.032 1239.34 526.528C1236.11 528.32 1232.22 529.216 1227.68 529.216C1227.55 529.216 1227.43 529.216 1227.32 529.216C1222.68 529.152 1218.93 527.896 1216.09 525.448C1213.24 523 1211.81 519.448 1211.81 514.792C1211.81 510.12 1213.24 506.592 1216.09 504.208C1218.93 501.824 1222.68 500.592 1227.32 500.512C1227.48 500.512 1227.63 500.512 1227.77 500.512C1232.27 500.512 1236.13 501.408 1239.34 503.2C1239.97 503.536 1240.53 503.872 1241.02 504.208L1242.01 504.76L1242.51 504.304L1239.7 502.6C1239.61 502.536 1239.56 502.44 1239.56 502.312V490.936ZM1224.41 514.864C1224.41 517.376 1225.02 519.04 1226.24 519.856C1227.47 520.672 1229.24 521.08 1231.54 521.08C1233.61 521.08 1235.45 520.656 1237.09 519.808C1238.67 519.008 1239.49 517.688 1239.56 515.848V513.952C1239.49 512.048 1238.67 510.704 1237.09 509.92C1235.45 509.088 1233.61 508.672 1231.54 508.672C1229.24 508.672 1227.47 509.08 1226.24 509.896C1225.02 510.712 1224.41 512.368 1224.41 514.864ZM1289.79 520.744H1290.51L1296.94 500.728H1309.9L1299.06 529C1296.5 535.256 1293.89 538.672 1291.23 539.248C1288.58 539.84 1282.74 540.136 1273.71 540.136V530.872C1281.02 530.872 1285.02 530.768 1285.71 530.56C1286.4 530.352 1286.98 529.832 1287.46 529H1283.6L1272.7 500.728H1285.69L1290.68 516.592C1290.79 516.928 1290.79 517.272 1290.68 517.624L1289.79 520.744ZM1328.92 529.24C1323.15 529.24 1318.25 528.056 1314.24 525.688C1310.24 523.32 1308.24 519.64 1308.24 514.648C1308.24 509.688 1310.24 506.08 1314.24 503.824C1318.25 501.552 1323.15 500.416 1328.92 500.416C1334.72 500.416 1339.6 501.552 1343.59 503.824C1347.59 506.08 1349.59 509.688 1349.59 514.648C1349.59 519.64 1347.59 523.32 1343.59 525.688C1339.6 528.056 1334.72 529.24 1328.92 529.24ZM1328.95 521.272C1331.3 521.272 1333.27 520.872 1334.85 520.072C1336.44 519.272 1337.23 517.496 1337.23 514.744C1337.23 512.024 1336.44 510.28 1334.85 509.512C1333.27 508.744 1331.3 508.36 1328.95 508.36C1326.6 508.36 1324.62 508.744 1323.02 509.512C1321.42 510.28 1320.62 512.024 1320.62 514.744C1320.62 517.496 1321.42 519.272 1323.02 520.072C1324.62 520.872 1326.6 521.272 1328.95 521.272ZM1363.44 514.048C1363.44 517.04 1363.87 518.96 1364.74 519.808C1365.62 520.656 1366.98 521.08 1368.84 521.08C1370.94 521.08 1372.81 520.424 1374.46 519.112C1375.75 518.072 1376.54 516.632 1376.83 514.792V500.728H1389.24V529H1377.12V526.528C1377.12 526.384 1377.17 526.28 1377.26 526.216L1379.66 524.032L1379.23 523.528L1378.49 524.128C1378.44 524.192 1378.39 524.248 1378.34 524.296C1375.27 527.592 1370.69 529.24 1364.59 529.24C1360.06 529.24 1356.67 528.048 1354.42 525.664C1352.18 523.264 1351.06 519.672 1351.06 514.888V500.728H1363.44V514.048ZM1416.06 515.032C1416.06 512.184 1415.63 510.416 1414.78 509.728C1413.94 509.024 1412.37 508.672 1410.08 508.672C1408.03 508.672 1406.34 509.192 1404.99 510.232C1403.97 511.032 1403.34 512.088 1403.1 513.4V529H1390.69V500.728H1403.1V502.888C1403.1 503.016 1403.05 503.12 1402.95 503.2L1400.55 505.384L1400.98 505.864L1401.22 505.648C1401.72 505.12 1402.29 504.584 1402.93 504.04C1405.76 501.672 1409.61 500.488 1414.47 500.488C1419.26 500.488 1422.78 501.44 1425.06 503.344C1427.33 505.232 1428.46 509.128 1428.46 515.032H1416.06ZM1468.63 529C1462.83 529 1459.07 528.144 1457.35 526.432C1455.62 524.72 1454.75 522.32 1454.75 519.232V509.104H1449.33V500.728H1450.87C1451.7 500.728 1452.43 500.584 1453.05 500.296C1453.69 500.008 1454.23 499.616 1454.66 499.12C1455.09 498.608 1455.42 498.008 1455.64 497.32C1455.87 496.616 1455.98 495.848 1455.98 495.016V490.936H1468.41V495.016C1468.41 495.88 1468.32 496.624 1468.15 497.248C1467.97 497.872 1467.68 498.392 1467.28 498.808C1466.88 499.208 1466.36 499.512 1465.72 499.72C1465.08 499.912 1464.3 500.008 1463.37 500.008V500.728H1480.1V509.104H1467.14V516.328C1467.14 517.72 1467.69 518.632 1468.79 519.064C1469.9 519.496 1471.15 519.712 1472.56 519.712C1474.15 519.712 1476.69 519.696 1480.19 519.664V529C1475.62 529 1471.76 529 1468.63 529ZM1522.88 519.328C1522.43 522.112 1521.34 524.24 1519.59 525.712C1517.87 527.168 1515.79 528.136 1513.38 528.616C1510.96 529.112 1507.36 529.36 1502.58 529.36C1494.37 529.36 1488.83 528.184 1485.97 525.832C1483.11 523.464 1481.67 519.864 1481.67 515.032C1481.67 510.2 1483.08 506.56 1485.9 504.112C1488.73 501.664 1494.16 500.44 1502.19 500.44C1510.27 500.44 1515.71 501.72 1518.49 504.28C1521.27 506.824 1522.67 510.408 1522.67 515.032L1522.57 517.816H1493.67C1493.99 519.224 1494.6 520.192 1495.5 520.72C1496.89 521.52 1499.25 521.92 1502.58 521.92C1504.43 521.92 1505.75 521.88 1506.51 521.8C1507.3 521.704 1508.06 521.48 1508.79 521.128C1509.55 520.76 1510.15 520.16 1510.62 519.328H1522.88ZM1510.45 511.576C1510.35 510.36 1509.69 509.432 1508.46 508.792C1507.24 508.136 1505.17 507.808 1502.24 507.808C1499.01 507.808 1496.73 508.256 1495.4 509.152C1494.68 509.632 1494.15 510.44 1493.82 511.576H1510.45ZM1554.43 523.792L1553.85 523.408C1552.41 525.184 1551.31 526.344 1550.54 526.888C1549.77 527.432 1548.85 527.896 1547.76 528.28C1546.67 528.648 1545.45 528.928 1544.11 529.12C1542.77 529.328 1541.33 529.432 1539.81 529.432C1538.52 529.432 1537.13 529.352 1535.66 529.192C1534.21 529.048 1532.8 528.792 1531.44 528.424C1530.08 528.04 1528.85 527.504 1527.74 526.816C1526.64 526.128 1525.76 525.264 1525.1 524.224C1524.46 523.184 1524.14 521.88 1524.14 520.312C1524.14 518.792 1524.47 517.544 1525.13 516.568C1525.8 515.576 1526.67 514.736 1527.74 514.048C1528.81 513.344 1530.1 512.816 1531.61 512.464C1533.13 512.096 1534.67 511.84 1536.24 511.696C1537.82 511.536 1539.33 511.456 1540.75 511.456H1551.62V511.168C1551.62 510.256 1551.28 509.544 1550.59 509.032C1549.92 508.52 1548.94 508.208 1547.66 508.096C1546.38 507.968 1545.01 507.904 1543.53 507.904C1542.19 507.904 1540.97 507.928 1539.86 507.976C1538.76 508.024 1537.77 508.248 1536.89 508.648C1536.01 509.032 1535.52 509.76 1535.42 510.832H1524.24C1524.43 508.032 1525.33 505.92 1526.95 504.496C1528.58 503.072 1530.4 502.112 1532.4 501.616C1534.41 501.12 1536.29 500.808 1538.04 500.68C1539.78 500.536 1541.82 500.464 1544.16 500.464C1549.37 500.464 1553.14 500.864 1555.46 501.664C1557.78 502.448 1559.78 503.704 1561.46 505.432C1563.16 507.16 1564.01 509.464 1564.01 512.344V529H1552.05V527.824C1552.05 527.424 1552.13 527.016 1552.27 526.6C1552.43 526.168 1552.65 525.8 1552.92 525.496L1554.43 523.792ZM1542.19 522.232C1543.02 522.232 1543.94 522.168 1544.95 522.04C1545.97 521.896 1546.97 521.68 1547.95 521.392C1548.94 521.104 1549.76 520.736 1550.4 520.288C1551.05 519.824 1551.45 519.28 1551.6 518.656L1552.03 518.008H1541.81C1541.04 518.008 1540.33 518.04 1539.69 518.104C1539.05 518.152 1538.5 518.248 1538.04 518.392C1537.59 518.536 1537.24 518.752 1536.98 519.04C1536.74 519.312 1536.62 519.672 1536.62 520.12C1536.62 520.6 1536.78 520.984 1537.1 521.272C1537.44 521.544 1537.88 521.752 1538.42 521.896C1538.97 522.04 1539.57 522.136 1540.22 522.184C1540.89 522.216 1541.55 522.232 1542.19 522.232ZM1588.53 514.744C1588.53 512.36 1588.13 510.752 1587.35 509.92C1586.57 509.088 1585.41 508.672 1583.89 508.672C1582.18 508.672 1580.73 509.216 1579.55 510.304C1578.69 511.104 1578.13 512.208 1577.89 513.616V529H1565.49V500.728H1577.89V502.936C1577.89 503.08 1577.85 503.192 1577.75 503.272L1575.35 505.552L1575.78 506.056L1576.89 505.048C1576.97 504.968 1577.05 504.88 1577.13 504.784C1579.88 501.952 1583.32 500.536 1587.45 500.536C1587.56 500.536 1587.67 500.536 1587.78 500.536C1592.28 500.616 1595.59 501.808 1597.72 504.112C1598.07 504.512 1598.4 504.928 1598.7 505.36C1598.8 505.28 1598.89 505.192 1598.99 505.096C1602.53 502.056 1606.37 500.536 1610.53 500.536C1610.63 500.536 1610.73 500.536 1610.85 500.536C1615.34 500.616 1618.61 501.816 1620.66 504.136C1622.73 506.44 1623.76 509.544 1623.76 513.448V529H1611.37V514.744C1611.37 512.36 1611.01 510.752 1610.29 509.92C1609.59 509.088 1608.47 508.672 1606.93 508.672C1605.22 508.672 1603.77 509.216 1602.59 510.304C1601.68 511.152 1601.12 512.336 1600.91 513.856V529H1588.53V514.744ZM1628.13 523.936H1639.12L1632.26 537.52H1625.2L1628.13 523.936ZM971.304 586.36C964.2 586.36 959.048 585.296 955.848 583.168C952.648 581.04 951.048 577.304 951.048 571.96C951.048 566.616 952.648 562.872 955.848 560.728C959.048 558.568 964.2 557.488 971.304 557.488C978.472 557.488 983.336 558.504 985.896 560.536C988.456 562.568 990.016 565.808 990.576 570.256H978.888C978.632 568.448 977.96 567.232 976.872 566.608C975.8 565.984 973.944 565.672 971.304 565.672C968.936 565.672 966.984 566.056 965.448 566.824C963.912 567.592 963.144 569.304 963.144 571.96C963.144 574.6 963.912 576.304 965.448 577.072C966.984 577.84 968.936 578.224 971.304 578.224C973.944 578.224 975.8 577.912 976.872 577.288C977.96 576.664 978.632 575.464 978.888 573.688H990.576C990.016 578.216 988.456 581.464 985.896 583.432C983.336 585.384 978.472 586.36 971.304 586.36ZM1012.7 586.24C1006.93 586.24 1002.03 585.056 998.017 582.688C994.017 580.32 992.017 576.64 992.017 571.648C992.017 566.688 994.017 563.08 998.017 560.824C1002.03 558.552 1006.93 557.416 1012.7 557.416C1018.5 557.416 1023.38 558.552 1027.37 560.824C1031.37 563.08 1033.37 566.688 1033.37 571.648C1033.37 576.64 1031.37 580.32 1027.37 582.688C1023.38 585.056 1018.5 586.24 1012.7 586.24ZM1012.73 578.272C1015.08 578.272 1017.05 577.872 1018.63 577.072C1020.22 576.272 1021.01 574.496 1021.01 571.744C1021.01 569.024 1020.22 567.28 1018.63 566.512C1017.05 565.744 1015.08 565.36 1012.73 565.36C1010.38 565.36 1008.4 565.744 1006.8 566.512C1005.2 567.28 1004.4 569.024 1004.4 571.744C1004.4 574.496 1005.2 576.272 1006.8 577.072C1008.4 577.872 1010.38 578.272 1012.73 578.272ZM1057.85 571.744C1057.85 569.36 1057.46 567.752 1056.68 566.92C1055.89 566.088 1054.74 565.672 1053.22 565.672C1051.51 565.672 1050.06 566.216 1048.88 567.304C1048.01 568.104 1047.46 569.208 1047.22 570.616V586H1034.81V557.728H1047.22V559.936C1047.22 560.08 1047.17 560.192 1047.08 560.272L1044.68 562.552L1045.11 563.056L1046.21 562.048C1046.29 561.968 1046.37 561.88 1046.45 561.784C1049.21 558.952 1052.65 557.536 1056.77 557.536C1056.89 557.536 1057 557.536 1057.11 557.536C1061.61 557.616 1064.92 558.808 1067.05 561.112C1067.4 561.512 1067.73 561.928 1068.03 562.36C1068.13 562.28 1068.22 562.192 1068.32 562.096C1071.85 559.056 1075.7 557.536 1079.86 557.536C1079.96 557.536 1080.06 557.536 1080.17 557.536C1084.67 557.616 1087.94 558.816 1089.99 561.136C1092.05 563.44 1093.09 566.544 1093.09 570.448V586H1080.7V571.744C1080.7 569.36 1080.34 567.752 1079.62 566.92C1078.92 566.088 1077.8 565.672 1076.26 565.672C1074.55 565.672 1073.1 566.216 1071.92 567.304C1071.01 568.152 1070.45 569.336 1070.24 570.856V586H1057.85V571.744ZM1106.94 595.384H1094.53V557.704H1106.94V559.312C1106.94 559.44 1106.89 559.536 1106.8 559.6L1104.11 561.304L1104.54 561.808L1104.88 561.592C1105.52 561.128 1106.28 560.656 1107.16 560.176C1110.4 558.384 1114.29 557.488 1118.82 557.488C1118.95 557.488 1119.07 557.488 1119.18 557.488C1123.84 557.552 1127.58 558.808 1130.41 561.256C1133.26 563.704 1134.68 567.256 1134.68 571.912C1134.68 576.568 1133.26 580.088 1130.41 582.472C1127.58 584.856 1123.84 586.096 1119.18 586.192C1119.02 586.192 1118.87 586.192 1118.72 586.192C1114.23 586.192 1110.37 585.296 1107.16 583.504C1106.53 583.152 1105.97 582.816 1105.48 582.496L1104.49 581.944L1104.01 582.4L1106.8 584.104C1106.89 584.152 1106.94 584.24 1106.94 584.368V595.384ZM1109.41 576.784C1111.06 577.616 1112.91 578.032 1114.96 578.032C1117.26 578.032 1119.03 577.624 1120.26 576.808C1121.49 575.992 1122.11 574.336 1122.11 571.84C1122.11 569.328 1121.49 567.664 1120.26 566.848C1119.03 566.032 1117.26 565.624 1114.96 565.624C1112.91 565.624 1111.06 566.048 1109.41 566.896C1107.83 567.696 1107 569.008 1106.94 570.832V572.752C1107 574.656 1107.83 576 1109.41 576.784ZM1136.11 546.664H1148.52V586H1136.11V546.664ZM1191.19 576.328C1190.75 579.112 1189.65 581.24 1187.91 582.712C1186.18 584.168 1184.11 585.136 1181.69 585.616C1179.27 586.112 1175.67 586.36 1170.89 586.36C1162.68 586.36 1157.15 585.184 1154.28 582.832C1151.42 580.464 1149.99 576.864 1149.99 572.032C1149.99 567.2 1151.39 563.56 1154.21 561.112C1157.04 558.664 1162.47 557.44 1170.51 557.44C1178.59 557.44 1184.02 558.72 1186.8 561.28C1189.59 563.824 1190.98 567.408 1190.98 572.032L1190.88 574.816H1161.99C1162.31 576.224 1162.91 577.192 1163.81 577.72C1165.2 578.52 1167.56 578.92 1170.89 578.92C1172.75 578.92 1174.06 578.88 1174.83 578.8C1175.61 578.704 1176.37 578.48 1177.11 578.128C1177.86 577.76 1178.47 577.16 1178.93 576.328H1191.19ZM1178.76 568.576C1178.67 567.36 1178 566.432 1176.77 565.792C1175.55 565.136 1173.48 564.808 1170.55 564.808C1167.32 564.808 1165.04 565.256 1163.71 566.152C1162.99 566.632 1162.47 567.44 1162.13 568.576H1178.76ZM1211.75 586C1205.96 586 1202.2 585.144 1200.47 583.432C1198.74 581.72 1197.88 579.32 1197.88 576.232V566.104H1192.45V557.728H1193.99C1194.82 557.728 1195.55 557.584 1196.17 557.296C1196.81 557.008 1197.35 556.616 1197.78 556.12C1198.21 555.608 1198.54 555.008 1198.77 554.32C1198.99 553.616 1199.1 552.848 1199.1 552.016V547.936H1211.53V552.016C1211.53 552.88 1211.45 553.624 1211.27 554.248C1211.09 554.872 1210.81 555.392 1210.41 555.808C1210.01 556.208 1209.49 556.512 1208.85 556.72C1208.21 556.912 1207.42 557.008 1206.49 557.008V557.728H1223.22V566.104H1210.26V573.328C1210.26 574.72 1210.81 575.632 1211.92 576.064C1213.02 576.496 1214.28 576.712 1215.69 576.712C1217.27 576.712 1219.81 576.696 1223.32 576.664V586C1218.74 586 1214.89 586 1211.75 586ZM1266.01 576.328C1265.56 579.112 1264.46 581.24 1262.72 582.712C1260.99 584.168 1258.92 585.136 1256.5 585.616C1254.09 586.112 1250.49 586.36 1245.7 586.36C1237.49 586.36 1231.96 585.184 1229.09 582.832C1226.23 580.464 1224.8 576.864 1224.8 572.032C1224.8 567.2 1226.21 563.56 1229.02 561.112C1231.85 558.664 1237.29 557.44 1245.32 557.44C1253.4 557.44 1258.83 558.72 1261.61 561.28C1264.4 563.824 1265.79 567.408 1265.79 572.032L1265.69 574.816H1236.8C1237.12 576.224 1237.73 577.192 1238.62 577.72C1240.01 578.52 1242.37 578.92 1245.7 578.92C1247.56 578.92 1248.87 578.88 1249.64 578.8C1250.42 578.704 1251.18 578.48 1251.92 578.128C1252.67 577.76 1253.28 577.16 1253.74 576.328H1266.01ZM1253.57 568.576C1253.48 567.36 1252.81 566.432 1251.58 565.792C1250.37 565.136 1248.29 564.808 1245.37 564.808C1242.13 564.808 1239.85 565.256 1238.53 566.152C1237.81 566.632 1237.28 567.44 1236.94 568.576H1253.57ZM1306.93 586.36C1299.83 586.36 1294.67 585.296 1291.47 583.168C1288.27 581.04 1286.67 577.304 1286.67 571.96C1286.67 566.616 1288.27 562.872 1291.47 560.728C1294.67 558.568 1299.83 557.488 1306.93 557.488C1314.1 557.488 1318.96 558.504 1321.52 560.536C1324.08 562.568 1325.64 565.808 1326.2 570.256H1314.51C1314.26 568.448 1313.59 567.232 1312.5 566.608C1311.43 565.984 1309.57 565.672 1306.93 565.672C1304.56 565.672 1302.61 566.056 1301.07 566.824C1299.54 567.592 1298.77 569.304 1298.77 571.96C1298.77 574.6 1299.54 576.304 1301.07 577.072C1302.61 577.84 1304.56 578.224 1306.93 578.224C1309.57 578.224 1311.43 577.912 1312.5 577.288C1313.59 576.664 1314.26 575.464 1314.51 573.688H1326.2C1325.64 578.216 1324.08 581.464 1321.52 583.432C1318.96 585.384 1314.1 586.36 1306.93 586.36ZM1353.25 572.68C1353.25 569.688 1352.78 567.776 1351.83 566.944C1350.91 566.096 1349.51 565.672 1347.66 565.672C1345.56 565.672 1343.72 566.392 1342.14 567.832C1341.11 568.744 1340.42 569.824 1340.05 571.072V586H1327.64V547.936H1340.05V560.176C1340.05 560.32 1340 560.432 1339.91 560.512L1337.51 562.672L1337.94 563.176L1338.47 562.696C1338.71 562.44 1338.96 562.192 1339.23 561.952C1342.31 558.96 1346.35 557.464 1351.35 557.464C1351.67 557.464 1352 557.472 1352.34 557.488C1356.58 557.664 1359.85 558.912 1362.15 561.232C1364.47 563.536 1365.63 567.072 1365.63 571.84V586H1353.25V572.68ZM1397.4 580.792L1396.82 580.408C1395.38 582.184 1394.28 583.344 1393.51 583.888C1392.74 584.432 1391.81 584.896 1390.73 585.28C1389.64 585.648 1388.42 585.928 1387.08 586.12C1385.73 586.328 1384.3 586.432 1382.78 586.432C1381.49 586.432 1380.1 586.352 1378.63 586.192C1377.17 586.048 1375.77 585.792 1374.41 585.424C1373.05 585.04 1371.81 584.504 1370.71 583.816C1369.61 583.128 1368.73 582.264 1368.07 581.224C1367.43 580.184 1367.11 578.88 1367.11 577.312C1367.11 575.792 1367.44 574.544 1368.09 573.568C1368.77 572.576 1369.64 571.736 1370.71 571.048C1371.78 570.344 1373.07 569.816 1374.57 569.464C1376.09 569.096 1377.64 568.84 1379.21 568.696C1380.79 568.536 1382.29 568.456 1383.72 568.456H1394.59V568.168C1394.59 567.256 1394.25 566.544 1393.56 566.032C1392.89 565.52 1391.91 565.208 1390.63 565.096C1389.35 564.968 1387.97 564.904 1386.5 564.904C1385.16 564.904 1383.93 564.928 1382.83 564.976C1381.73 565.024 1380.73 565.248 1379.85 565.648C1378.97 566.032 1378.49 566.76 1378.39 567.832H1367.21C1367.4 565.032 1368.3 562.92 1369.92 561.496C1371.55 560.072 1373.37 559.112 1375.37 558.616C1377.38 558.12 1379.26 557.808 1381.01 557.68C1382.75 557.536 1384.79 557.464 1387.13 557.464C1392.34 557.464 1396.11 557.864 1398.43 558.664C1400.75 559.448 1402.75 560.704 1404.43 562.432C1406.13 564.16 1406.97 566.464 1406.97 569.344V586H1395.02V584.824C1395.02 584.424 1395.09 584.016 1395.24 583.6C1395.4 583.168 1395.61 582.8 1395.89 582.496L1397.4 580.792ZM1385.16 579.232C1385.99 579.232 1386.91 579.168 1387.92 579.04C1388.94 578.896 1389.94 578.68 1390.92 578.392C1391.91 578.104 1392.73 577.736 1393.37 577.288C1394.02 576.824 1394.42 576.28 1394.57 575.656L1395 575.008H1384.77C1384.01 575.008 1383.3 575.04 1382.66 575.104C1382.02 575.152 1381.47 575.248 1381.01 575.392C1380.56 575.536 1380.21 575.752 1379.95 576.04C1379.71 576.312 1379.59 576.672 1379.59 577.12C1379.59 577.6 1379.75 577.984 1380.07 578.272C1380.41 578.544 1380.85 578.752 1381.39 578.896C1381.93 579.04 1382.53 579.136 1383.19 579.184C1383.86 579.216 1384.52 579.232 1385.16 579.232ZM1408.45 546.664H1420.86V586H1408.45V546.664ZM1422.33 546.664H1434.74V586H1422.33V546.664ZM1477.41 576.328C1476.96 579.112 1475.87 581.24 1474.12 582.712C1472.4 584.168 1470.32 585.136 1467.91 585.616C1465.49 586.112 1461.89 586.36 1457.11 586.36C1448.9 586.36 1443.36 585.184 1440.5 582.832C1437.64 580.464 1436.2 576.864 1436.2 572.032C1436.2 567.2 1437.61 563.56 1440.43 561.112C1443.26 558.664 1448.69 557.44 1456.72 557.44C1464.8 557.44 1470.24 558.72 1473.02 561.28C1475.8 563.824 1477.2 567.408 1477.2 572.032L1477.1 574.816H1448.2C1448.52 576.224 1449.13 577.192 1450.03 577.72C1451.42 578.52 1453.78 578.92 1457.11 578.92C1458.96 578.92 1460.28 578.88 1461.04 578.8C1461.83 578.704 1462.59 578.48 1463.32 578.128C1464.08 577.76 1464.68 577.16 1465.15 576.328H1477.41ZM1464.98 568.576C1464.88 567.36 1464.22 566.432 1462.99 565.792C1461.77 565.136 1459.7 564.808 1456.77 564.808C1453.54 564.808 1451.26 565.256 1449.93 566.152C1449.21 566.632 1448.68 567.44 1448.35 568.576H1464.98ZM1503.97 572.68C1503.97 569.688 1503.51 567.776 1502.58 566.944C1501.65 566.096 1500.25 565.672 1498.38 565.672C1496.28 565.672 1494.44 566.392 1492.86 567.832C1492.07 568.536 1491.48 569.392 1491.08 570.4V586H1478.67V557.728H1491.08V559.936C1491.08 560.08 1491.03 560.192 1490.94 560.272L1488.54 562.552L1488.97 563.056L1489.47 562.6C1489.54 562.536 1489.6 562.472 1489.67 562.408C1492.9 559.128 1497.09 557.488 1502.24 557.488C1502.48 557.488 1502.72 557.488 1502.96 557.488C1507.28 557.648 1510.59 558.912 1512.9 561.28C1515.2 563.648 1516.35 567.216 1516.35 571.984V586H1503.97V572.68ZM1537.23 579.064C1534.81 579.064 1532.49 578.872 1530.27 578.488C1530.13 578.664 1530.05 578.824 1530.05 578.968C1530.05 579.528 1531.09 579.888 1533.17 580.048C1535.94 580.256 1538.92 580.36 1542.1 580.36C1547.62 580.36 1551.21 580.976 1552.88 582.208C1554.56 583.424 1555.4 585.432 1555.4 588.232C1555.4 592.2 1553.94 594.872 1551.03 596.248C1548.13 597.624 1542.27 598.312 1533.44 598.312C1525.44 598.312 1520.84 597.536 1519.64 595.984C1518.45 594.448 1517.86 593.168 1517.86 592.144C1517.86 590.96 1518.37 589.744 1519.37 588.496H1528.93C1528.77 588.816 1528.69 589.08 1528.69 589.288C1528.69 589.608 1528.93 589.824 1529.41 589.936C1529.9 590.048 1531.26 590.104 1533.49 590.104C1536.19 590.104 1538.46 590.088 1540.3 590.056C1542.16 590.024 1543.09 589.632 1543.09 588.88C1543.09 588.352 1542.26 588.048 1540.61 587.968C1538.98 587.888 1534.72 587.848 1527.82 587.848C1523.26 587.848 1520.43 586.512 1519.33 583.84C1519.05 583.184 1518.92 582.512 1518.92 581.824C1518.92 579.92 1520 577.936 1522.16 575.872C1519.81 574.432 1518.63 572.416 1518.63 569.824C1518.63 564.864 1520.42 561.576 1524.01 559.96C1527.61 558.344 1531.7 557.536 1536.29 557.536H1556.41V565.912H1545.97V566.632L1547.96 566.656C1547.97 566.656 1547.98 566.656 1547.98 566.656C1550.81 566.656 1552.23 568.72 1552.23 572.848C1552.23 576.992 1547.23 579.064 1537.23 579.064ZM1536.49 565.912C1534.87 565.912 1533.53 566.032 1532.45 566.272C1531.38 566.496 1530.85 567.24 1530.85 568.504C1530.85 569.688 1531.37 570.408 1532.41 570.664C1533.45 570.92 1534.88 571.048 1536.7 571.048C1536.81 571.048 1536.93 571.048 1537.04 571.048C1540.24 571.048 1541.84 570.256 1541.84 568.672C1541.84 568.592 1541.84 568.512 1541.84 568.432C1541.73 567.2 1540.86 566.36 1539.25 565.912H1536.49ZM1599.1 576.328C1598.65 579.112 1597.56 581.24 1595.81 582.712C1594.08 584.168 1592.01 585.136 1589.6 585.616C1587.18 586.112 1583.58 586.36 1578.8 586.36C1570.59 586.36 1565.05 585.184 1562.19 582.832C1559.32 580.464 1557.89 576.864 1557.89 572.032C1557.89 567.2 1559.3 563.56 1562.12 561.112C1564.95 558.664 1570.38 557.44 1578.41 557.44C1586.49 557.44 1591.92 558.72 1594.71 561.28C1597.49 563.824 1598.88 567.408 1598.88 572.032L1598.79 574.816H1569.89C1570.21 576.224 1570.82 577.192 1571.72 577.72C1573.11 578.52 1575.47 578.92 1578.8 578.92C1580.65 578.92 1581.96 578.88 1582.73 578.8C1583.52 578.704 1584.28 578.48 1585.01 578.128C1585.76 577.76 1586.37 577.16 1586.84 576.328H1599.1ZM1586.67 568.576C1586.57 567.36 1585.91 566.432 1584.68 565.792C1583.46 565.136 1581.39 564.808 1578.46 564.808C1575.23 564.808 1572.95 565.256 1571.62 566.152C1570.9 566.632 1570.37 567.44 1570.04 568.576H1586.67ZM1620.42 586.24C1612.94 586.24 1607.74 585.584 1604.85 584.272C1601.95 582.944 1600.5 580.224 1600.5 576.112H1612.07C1612.07 577.584 1612.9 578.392 1614.57 578.536C1616.23 578.68 1618.42 578.752 1621.14 578.752C1622.98 578.752 1624.53 578.72 1625.78 578.656C1627.04 578.592 1627.67 578.08 1627.67 577.12C1627.67 576.256 1626.76 575.808 1624.94 575.776C1623.11 575.728 1620.62 575.664 1617.45 575.584C1612.94 575.504 1608.96 574.864 1605.52 573.664C1602.08 572.448 1600.36 570 1600.36 566.32C1600.36 563.216 1601.87 560.968 1604.9 559.576C1607.94 558.184 1612.55 557.488 1618.74 557.488C1626.62 557.488 1632 558.208 1634.9 559.648C1637.79 561.072 1639.24 563.72 1639.24 567.592H1627.77C1627.77 566.104 1626.9 565.288 1625.15 565.144C1623.42 565 1621.12 564.928 1618.24 564.928C1616.18 564.928 1614.63 564.984 1613.61 565.096C1612.58 565.208 1612.07 565.744 1612.07 566.704C1612.07 567.568 1613.16 568.032 1615.34 568.096C1617.51 568.144 1620.18 568.232 1623.35 568.36C1627.78 568.504 1631.54 569.08 1634.63 570.088C1637.72 571.08 1639.26 573.24 1639.26 576.568C1639.26 580.168 1637.95 582.68 1635.33 584.104C1632.72 585.528 1627.75 586.24 1620.42 586.24ZM1039.79 637.792L1039.21 637.408C1037.77 639.184 1036.67 640.344 1035.9 640.888C1035.13 641.432 1034.21 641.896 1033.12 642.28C1032.03 642.648 1030.81 642.928 1029.47 643.12C1028.13 643.328 1026.69 643.432 1025.17 643.432C1023.88 643.432 1022.49 643.352 1021.02 643.192C1019.57 643.048 1018.16 642.792 1016.8 642.424C1015.44 642.04 1014.21 641.504 1013.1 640.816C1012 640.128 1011.12 639.264 1010.46 638.224C1009.82 637.184 1009.5 635.88 1009.5 634.312C1009.5 632.792 1009.83 631.544 1010.49 630.568C1011.16 629.576 1012.03 628.736 1013.1 628.048C1014.17 627.344 1015.46 626.816 1016.97 626.464C1018.49 626.096 1020.03 625.84 1021.6 625.696C1023.18 625.536 1024.69 625.456 1026.11 625.456H1036.98V625.168C1036.98 624.256 1036.64 623.544 1035.95 623.032C1035.28 622.52 1034.3 622.208 1033.02 622.096C1031.74 621.968 1030.37 621.904 1028.89 621.904C1027.55 621.904 1026.33 621.928 1025.22 621.976C1024.12 622.024 1023.13 622.248 1022.25 622.648C1021.37 623.032 1020.88 623.76 1020.78 624.832H1009.6C1009.79 622.032 1010.69 619.92 1012.31 618.496C1013.94 617.072 1015.76 616.112 1017.76 615.616C1019.77 615.12 1021.65 614.808 1023.4 614.68C1025.14 614.536 1027.18 614.464 1029.52 614.464C1034.73 614.464 1038.5 614.864 1040.82 615.664C1043.14 616.448 1045.14 617.704 1046.82 619.432C1048.52 621.16 1049.37 623.464 1049.37 626.344V643H1037.41V641.824C1037.41 641.424 1037.49 641.016 1037.63 640.6C1037.79 640.168 1038.01 639.8 1038.28 639.496L1039.79 637.792ZM1027.55 636.232C1028.38 636.232 1029.3 636.168 1030.31 636.04C1031.33 635.896 1032.33 635.68 1033.31 635.392C1034.3 635.104 1035.12 634.736 1035.76 634.288C1036.41 633.824 1036.81 633.28 1036.96 632.656L1037.39 632.008H1027.17C1026.4 632.008 1025.69 632.04 1025.05 632.104C1024.41 632.152 1023.86 632.248 1023.4 632.392C1022.95 632.536 1022.6 632.752 1022.34 633.04C1022.1 633.312 1021.98 633.672 1021.98 634.12C1021.98 634.6 1022.14 634.984 1022.46 635.272C1022.8 635.544 1023.24 635.752 1023.78 635.896C1024.33 636.04 1024.93 636.136 1025.58 636.184C1026.25 636.216 1026.91 636.232 1027.55 636.232ZM1076.14 629.68C1076.14 626.688 1075.68 624.776 1074.75 623.944C1073.82 623.096 1072.42 622.672 1070.55 622.672C1068.45 622.672 1066.61 623.392 1065.03 624.832C1064.25 625.536 1063.65 626.392 1063.25 627.4V643H1050.85V614.728H1063.25V616.936C1063.25 617.08 1063.21 617.192 1063.11 617.272L1060.71 619.552L1061.14 620.056L1061.65 619.6C1061.71 619.536 1061.77 619.472 1061.84 619.408C1065.07 616.128 1069.26 614.488 1074.41 614.488C1074.65 614.488 1074.89 614.488 1075.13 614.488C1079.45 614.648 1082.77 615.912 1085.07 618.28C1087.37 620.648 1088.53 624.216 1088.53 628.984V643H1076.14V629.68ZM1117.73 604.936H1130.14V643H1117.73V641.392C1117.73 641.248 1117.79 641.152 1117.9 641.104L1120.59 639.4L1120.15 638.896L1119.82 639.088C1119.16 639.552 1118.39 640.032 1117.51 640.528C1114.28 642.32 1110.39 643.216 1105.85 643.216C1105.72 643.216 1105.6 643.216 1105.49 643.216C1100.85 643.152 1097.11 641.896 1094.26 639.448C1091.41 637 1089.99 633.448 1089.99 628.792C1089.99 624.12 1091.41 620.592 1094.26 618.208C1097.11 615.824 1100.85 614.592 1105.49 614.512C1105.65 614.512 1105.8 614.512 1105.95 614.512C1110.44 614.512 1114.3 615.408 1117.51 617.2C1118.14 617.536 1118.7 617.872 1119.19 618.208L1120.18 618.76L1120.68 618.304L1117.87 616.6C1117.78 616.536 1117.73 616.44 1117.73 616.312V604.936ZM1102.59 628.864C1102.59 631.376 1103.19 633.04 1104.41 633.856C1105.64 634.672 1107.41 635.08 1109.71 635.08C1111.78 635.08 1113.63 634.656 1115.26 633.808C1116.84 633.008 1117.67 631.688 1117.73 629.848V627.952C1117.67 626.048 1116.84 624.704 1115.26 623.92C1113.63 623.088 1111.78 622.672 1109.71 622.672C1107.41 622.672 1105.64 623.08 1104.41 623.896C1103.19 624.712 1102.59 626.368 1102.59 628.864ZM1170.34 636.064C1167.92 636.064 1165.6 635.872 1163.38 635.488C1163.24 635.664 1163.16 635.824 1163.16 635.968C1163.16 636.528 1164.2 636.888 1166.28 637.048C1169.05 637.256 1172.03 637.36 1175.21 637.36C1180.73 637.36 1184.32 637.976 1185.99 639.208C1187.67 640.424 1188.51 642.432 1188.51 645.232C1188.51 649.2 1187.05 651.872 1184.14 653.248C1181.24 654.624 1175.38 655.312 1166.55 655.312C1158.55 655.312 1153.95 654.536 1152.75 652.984C1151.56 651.448 1150.97 650.168 1150.97 649.144C1150.97 647.96 1151.48 646.744 1152.48 645.496H1162.04C1161.88 645.816 1161.8 646.08 1161.8 646.288C1161.8 646.608 1162.04 646.824 1162.52 646.936C1163.01 647.048 1164.37 647.104 1166.6 647.104C1169.3 647.104 1171.57 647.088 1173.41 647.056C1175.27 647.024 1176.2 646.632 1176.2 645.88C1176.2 645.352 1175.37 645.048 1173.72 644.968C1172.09 644.888 1167.83 644.848 1160.93 644.848C1156.37 644.848 1153.54 643.512 1152.44 640.84C1152.16 640.184 1152.03 639.512 1152.03 638.824C1152.03 636.92 1153.11 634.936 1155.27 632.872C1152.92 631.432 1151.74 629.416 1151.74 626.824C1151.74 621.864 1153.53 618.576 1157.12 616.96C1160.72 615.344 1164.81 614.536 1169.4 614.536H1189.52V622.912H1179.08V623.632L1181.07 623.656C1181.08 623.656 1181.09 623.656 1181.09 623.656C1183.92 623.656 1185.34 625.72 1185.34 629.848C1185.34 633.992 1180.34 636.064 1170.34 636.064ZM1169.6 622.912C1167.98 622.912 1166.64 623.032 1165.56 623.272C1164.49 623.496 1163.96 624.24 1163.96 625.504C1163.96 626.688 1164.48 627.408 1165.52 627.664C1166.56 627.92 1167.99 628.048 1169.81 628.048C1169.92 628.048 1170.04 628.048 1170.15 628.048C1173.35 628.048 1174.95 627.256 1174.95 625.672C1174.95 625.592 1174.95 625.512 1174.95 625.432C1174.84 624.2 1173.97 623.36 1172.36 622.912H1169.6ZM1232.21 633.328C1231.76 636.112 1230.67 638.24 1228.92 639.712C1227.19 641.168 1225.12 642.136 1222.71 642.616C1220.29 643.112 1216.69 643.36 1211.91 643.36C1203.7 643.36 1198.16 642.184 1195.3 639.832C1192.43 637.464 1191 633.864 1191 629.032C1191 624.2 1192.41 620.56 1195.23 618.112C1198.06 615.664 1203.49 614.44 1211.52 614.44C1219.6 614.44 1225.03 615.72 1227.82 618.28C1230.6 620.824 1231.99 624.408 1231.99 629.032L1231.9 631.816H1203C1203.32 633.224 1203.93 634.192 1204.83 634.72C1206.22 635.52 1208.58 635.92 1211.91 635.92C1213.76 635.92 1215.07 635.88 1215.84 635.8C1216.63 635.704 1217.39 635.48 1218.12 635.128C1218.87 634.76 1219.48 634.16 1219.95 633.328H1232.21ZM1219.78 625.576C1219.68 624.36 1219.02 623.432 1217.79 622.792C1216.57 622.136 1214.5 621.808 1211.57 621.808C1208.34 621.808 1206.06 622.256 1204.73 623.152C1204.01 623.632 1203.48 624.44 1203.15 625.576H1219.78ZM1252.77 643C1246.97 643 1243.21 642.144 1241.49 640.432C1239.76 638.72 1238.89 636.32 1238.89 633.232V623.104H1233.47V614.728H1235.01C1235.84 614.728 1236.57 614.584 1237.19 614.296C1237.83 614.008 1238.37 613.616 1238.8 613.12C1239.23 612.608 1239.56 612.008 1239.78 611.32C1240.01 610.616 1240.12 609.848 1240.12 609.016V604.936H1252.55V609.016C1252.55 609.88 1252.46 610.624 1252.29 611.248C1252.11 611.872 1251.82 612.392 1251.42 612.808C1251.02 613.208 1250.5 613.512 1249.86 613.72C1249.22 613.912 1248.44 614.008 1247.51 614.008V614.728H1264.24V623.104H1251.28V630.328C1251.28 631.72 1251.83 632.632 1252.93 633.064C1254.04 633.496 1255.29 633.712 1256.7 633.712C1258.29 633.712 1260.83 633.696 1264.33 633.664V643C1259.76 643 1255.9 643 1252.77 643ZM1310.59 629.032C1310.59 626.184 1310.16 624.416 1309.32 623.728C1308.47 623.024 1306.9 622.672 1304.61 622.672C1302.56 622.672 1300.87 623.192 1299.52 624.232C1298.5 625.032 1297.87 626.088 1297.63 627.4V643H1285.22V614.728H1297.63V616.888C1297.63 617.016 1297.58 617.12 1297.48 617.2L1295.08 619.384L1295.52 619.864L1295.76 619.648C1296.25 619.12 1296.82 618.584 1297.46 618.04C1300.29 615.672 1304.14 614.488 1309 614.488C1313.79 614.488 1317.32 615.44 1319.59 617.344C1321.86 619.232 1323 623.128 1323 629.032H1310.59ZM1365.29 633.328C1364.84 636.112 1363.74 638.24 1362 639.712C1360.27 641.168 1358.2 642.136 1355.78 642.616C1353.37 643.112 1349.77 643.36 1344.98 643.36C1336.78 643.36 1331.24 642.184 1328.38 639.832C1325.51 637.464 1324.08 633.864 1324.08 629.032C1324.08 624.2 1325.49 620.56 1328.3 618.112C1331.14 615.664 1336.57 614.44 1344.6 614.44C1352.68 614.44 1358.11 615.72 1360.9 618.28C1363.68 620.824 1365.07 624.408 1365.07 629.032L1364.98 631.816H1336.08C1336.4 633.224 1337.01 634.192 1337.9 634.72C1339.3 635.52 1341.66 635.92 1344.98 635.92C1346.84 635.92 1348.15 635.88 1348.92 635.8C1349.7 635.704 1350.46 635.48 1351.2 635.128C1351.95 634.76 1352.56 634.16 1353.02 633.328H1365.29ZM1352.86 625.576C1352.76 624.36 1352.1 623.432 1350.86 622.792C1349.65 622.136 1347.58 621.808 1344.65 621.808C1341.42 621.808 1339.14 622.256 1337.81 623.152C1337.09 623.632 1336.56 624.44 1336.22 625.576H1352.86ZM1388.88 643H1372.46L1363.97 614.728H1376.64L1380.77 633.064C1380.8 633.224 1380.82 633.4 1380.84 633.592C1380.86 633.784 1380.86 633.968 1380.86 634.144V636.712H1381.58V634.144C1381.58 633.968 1381.6 633.792 1381.63 633.616C1381.66 633.424 1381.7 633.248 1381.75 633.088L1387.68 614.728H1399.42L1405.27 633.04C1405.32 633.216 1405.35 633.4 1405.37 633.592C1405.4 633.768 1405.42 633.944 1405.42 634.12V636.592H1406.14V634.12C1406.14 633.752 1406.18 633.392 1406.26 633.04L1410.24 614.728H1422.74L1414.27 643H1398L1393.97 629.272C1393.92 629.112 1393.88 628.944 1393.85 628.768C1393.82 628.576 1393.8 628.392 1393.8 628.216V624.688H1393.08V628.192C1393.08 628.368 1393.06 628.552 1393.03 628.744C1393.02 628.936 1392.98 629.112 1392.94 629.272L1388.88 643ZM1452.52 637.792L1451.95 637.408C1450.51 639.184 1449.4 640.344 1448.64 640.888C1447.87 641.432 1446.94 641.896 1445.85 642.28C1444.76 642.648 1443.55 642.928 1442.2 643.12C1440.86 643.328 1439.43 643.432 1437.91 643.432C1436.61 643.432 1435.23 643.352 1433.76 643.192C1432.3 643.048 1430.89 642.792 1429.53 642.424C1428.17 642.04 1426.94 641.504 1425.84 640.816C1424.73 640.128 1423.85 639.264 1423.2 638.224C1422.56 637.184 1422.24 635.88 1422.24 634.312C1422.24 632.792 1422.56 631.544 1423.22 630.568C1423.89 629.576 1424.76 628.736 1425.84 628.048C1426.91 627.344 1428.2 626.816 1429.7 626.464C1431.22 626.096 1432.76 625.84 1434.33 625.696C1435.92 625.536 1437.42 625.456 1438.84 625.456H1449.72V625.168C1449.72 624.256 1449.37 623.544 1448.68 623.032C1448.01 622.52 1447.04 622.208 1445.76 622.096C1444.48 621.968 1443.1 621.904 1441.63 621.904C1440.28 621.904 1439.06 621.928 1437.96 621.976C1436.85 622.024 1435.86 622.248 1434.98 622.648C1434.1 623.032 1433.61 623.76 1433.52 624.832H1422.33C1422.52 622.032 1423.43 619.92 1425.04 618.496C1426.68 617.072 1428.49 616.112 1430.49 615.616C1432.51 615.12 1434.39 614.808 1436.13 614.68C1437.88 614.536 1439.92 614.464 1442.25 614.464C1447.47 614.464 1451.24 614.864 1453.56 615.664C1455.88 616.448 1457.88 617.704 1459.56 619.432C1461.25 621.16 1462.1 623.464 1462.1 626.344V643H1450.15V641.824C1450.15 641.424 1450.22 641.016 1450.36 640.6C1450.52 640.168 1450.74 639.8 1451.01 639.496L1452.52 637.792ZM1440.28 636.232C1441.12 636.232 1442.04 636.168 1443.04 636.04C1444.07 635.896 1445.07 635.68 1446.04 635.392C1447.04 635.104 1447.85 634.736 1448.49 634.288C1449.15 633.824 1449.55 633.28 1449.69 632.656L1450.12 632.008H1439.9C1439.13 632.008 1438.43 632.04 1437.79 632.104C1437.15 632.152 1436.6 632.248 1436.13 632.392C1435.68 632.536 1435.33 632.752 1435.08 633.04C1434.84 633.312 1434.72 633.672 1434.72 634.12C1434.72 634.6 1434.88 634.984 1435.2 635.272C1435.53 635.544 1435.97 635.752 1436.52 635.896C1437.06 636.04 1437.66 636.136 1438.32 636.184C1438.99 636.216 1439.64 636.232 1440.28 636.232ZM1488.95 629.032C1488.95 626.184 1488.52 624.416 1487.68 623.728C1486.83 623.024 1485.26 622.672 1482.97 622.672C1480.92 622.672 1479.23 623.192 1477.88 624.232C1476.86 625.032 1476.23 626.088 1475.99 627.4V643H1463.58V614.728H1475.99V616.888C1475.99 617.016 1475.94 617.12 1475.84 617.2L1473.44 619.384L1473.88 619.864L1474.12 619.648C1474.61 619.12 1475.18 618.584 1475.82 618.04C1478.65 615.672 1482.5 614.488 1487.36 614.488C1492.15 614.488 1495.68 615.44 1497.95 617.344C1500.22 619.232 1501.36 623.128 1501.36 629.032H1488.95ZM1530.18 604.936H1542.59V643H1530.18V641.392C1530.18 641.248 1530.24 641.152 1530.35 641.104L1533.04 639.4L1532.61 638.896L1532.27 639.088C1531.61 639.552 1530.85 640.032 1529.97 640.528C1526.73 642.32 1522.85 643.216 1518.3 643.216C1518.17 643.216 1518.05 643.216 1517.94 643.216C1513.3 643.152 1509.56 641.896 1506.71 639.448C1503.86 637 1502.44 633.448 1502.44 628.792C1502.44 624.12 1503.86 620.592 1506.71 618.208C1509.56 615.824 1513.3 614.592 1517.94 614.512C1518.1 614.512 1518.25 614.512 1518.4 614.512C1522.89 614.512 1526.75 615.408 1529.97 617.2C1530.59 617.536 1531.15 617.872 1531.65 618.208L1532.63 618.76L1533.13 618.304L1530.33 616.6C1530.23 616.536 1530.18 616.44 1530.18 616.312V604.936ZM1515.04 628.864C1515.04 631.376 1515.65 633.04 1516.86 633.856C1518.09 634.672 1519.86 635.08 1522.17 635.08C1524.23 635.08 1526.08 634.656 1527.71 633.808C1529.29 633.008 1530.12 631.688 1530.18 629.848V627.952C1530.12 626.048 1529.29 624.704 1527.71 623.92C1526.08 623.088 1524.23 622.672 1522.17 622.672C1519.86 622.672 1518.09 623.08 1516.86 623.896C1515.65 624.712 1515.04 626.368 1515.04 628.864ZM1585.18 633.328C1584.73 636.112 1583.63 638.24 1581.89 639.712C1580.16 641.168 1578.09 642.136 1575.67 642.616C1573.26 643.112 1569.66 643.36 1564.87 643.36C1556.67 643.36 1551.13 642.184 1548.27 639.832C1545.4 637.464 1543.97 633.864 1543.97 629.032C1543.97 624.2 1545.38 620.56 1548.19 618.112C1551.03 615.664 1556.46 614.44 1564.49 614.44C1572.57 614.44 1578 615.72 1580.79 618.28C1583.57 620.824 1584.96 624.408 1584.96 629.032L1584.87 631.816H1555.97C1556.29 633.224 1556.9 634.192 1557.79 634.72C1559.19 635.52 1561.55 635.92 1564.87 635.92C1566.73 635.92 1568.04 635.88 1568.81 635.8C1569.59 635.704 1570.35 635.48 1571.09 635.128C1571.84 634.76 1572.45 634.16 1572.91 633.328H1585.18ZM1572.75 625.576C1572.65 624.36 1571.99 623.432 1570.75 622.792C1569.54 622.136 1567.47 621.808 1564.54 621.808C1561.31 621.808 1559.03 622.256 1557.7 623.152C1556.98 623.632 1556.45 624.44 1556.11 625.576H1572.75ZM1614.18 604.936H1626.59V643H1614.18V641.392C1614.18 641.248 1614.24 641.152 1614.35 641.104L1617.04 639.4L1616.61 638.896L1616.27 639.088C1615.61 639.552 1614.85 640.032 1613.97 640.528C1610.73 642.32 1606.85 643.216 1602.3 643.216C1602.17 643.216 1602.05 643.216 1601.94 643.216C1597.3 643.152 1593.56 641.896 1590.71 639.448C1587.86 637 1586.44 633.448 1586.44 628.792C1586.44 624.12 1587.86 620.592 1590.71 618.208C1593.56 615.824 1597.3 614.592 1601.94 614.512C1602.1 614.512 1602.25 614.512 1602.4 614.512C1606.89 614.512 1610.75 615.408 1613.97 617.2C1614.59 617.536 1615.15 617.872 1615.65 618.208L1616.63 618.76L1617.13 618.304L1614.33 616.6C1614.23 616.536 1614.18 616.44 1614.18 616.312V604.936ZM1599.04 628.864C1599.04 631.376 1599.65 633.04 1600.86 633.856C1602.09 634.672 1603.86 635.08 1606.17 635.08C1608.23 635.08 1610.08 634.656 1611.71 633.808C1613.29 633.008 1614.12 631.688 1614.18 629.848V627.952C1614.12 626.048 1613.29 624.704 1611.71 623.92C1610.08 623.088 1608.23 622.672 1606.17 622.672C1603.86 622.672 1602.09 623.08 1600.86 623.896C1599.65 624.712 1599.04 626.368 1599.04 628.864ZM1639.25 635.128V643H1627.99V635.128H1639.25Z" fill="white"/>
<path d="M558.036 334.979L1635.52 340.089L1635.46 322.336L558.036 334.979Z" fill="#FF1654"/>
<path d="M597.899 308.672C584.683 308.672 575.339 305.984 569.867 300.608C564.427 295.232 561.707 288.672 561.707 280.928C561.707 279.328 561.803 277.68 561.995 275.984L562.619 271.088H587.723L587.243 274.64C587.115 275.728 587.051 276.736 587.051 277.664C587.051 280.736 587.819 283.216 589.355 285.104C590.923 286.96 594.619 287.888 600.443 287.888C606.267 287.888 610.363 286.96 612.731 285.104C615.131 283.248 616.603 280.16 617.147 275.84L622.523 231.872H647.531L641.627 280.016C640.571 288.688 636.347 295.632 628.955 300.848C621.595 306.064 611.243 308.672 597.899 308.672ZM684.658 308.672C671.57 308.672 661.73 305.968 655.138 300.56C648.578 295.12 645.298 287.44 645.298 277.52C645.298 275.248 645.458 272.832 645.778 270.272C647.442 256.64 652.626 246.832 661.33 240.848C670.066 234.864 680.978 231.872 694.066 231.872C707.154 231.872 716.978 234.592 723.538 240.032C730.13 245.44 733.426 253.104 733.426 263.024C733.426 265.296 733.266 267.712 732.946 270.272C731.282 283.904 726.082 293.712 717.346 299.696C708.642 305.68 697.746 308.672 684.658 308.672ZM686.962 289.664C692.594 289.664 697.25 288.432 700.93 285.968C704.61 283.504 706.946 278.272 707.938 270.272C708.194 268.32 708.322 266.528 708.322 264.896C708.322 259.84 706.962 256.24 704.242 254.096C701.522 251.952 697.362 250.88 691.762 250.88C686.13 250.88 681.474 252.112 677.794 254.576C674.114 257.008 671.778 262.24 670.786 270.272C670.53 272.224 670.402 274 670.402 275.6C670.402 280.656 671.762 284.272 674.482 286.448C677.202 288.592 681.362 289.664 686.962 289.664ZM740.575 231.872H765.439L756.079 308H731.215L740.575 231.872ZM784.021 308H758.965L768.325 231.872H811.813L827.797 287.984H829.237L827.029 275.792C826.901 275.376 826.821 274.912 826.789 274.4C826.757 273.888 826.773 273.408 826.837 272.96L831.877 231.872H856.885L847.525 308H806.389L788.965 247.856H787.477L789.445 259.472C789.573 259.824 789.653 260.24 789.685 260.72C789.717 261.2 789.701 261.632 789.637 262.016L784.021 308ZM940.926 308H915.822L922.734 251.696H896.238L898.638 231.872H976.734L974.286 251.696H940.926L940.734 253.136H941.694C943.486 253.136 944.862 253.68 945.822 254.768C946.782 255.824 947.15 257.264 946.926 259.088L940.926 308ZM979.638 231.872H1004.69L1001.19 260.144H1031.77L1035.22 231.872H1060.28L1050.92 308H1025.86L1029.08 282.176H998.502L995.334 308H970.278L979.638 231.872ZM1063.17 231.872H1131.38L1128.93 251.696H1085.83L1084.82 260H1126.96L1124.56 279.68H1082.37L1081.36 288.176H1124.47L1122.02 308H1053.81L1063.17 231.872ZM1199.88 231.872H1239.33L1255.12 308H1229.11L1225.89 293.024H1196.61L1189.7 308H1163.68L1199.88 231.872ZM1207.17 272H1221.04L1218.64 254.72C1218.29 253.312 1218.07 251.744 1217.97 250.016C1217.91 248.256 1217.97 246.624 1218.16 245.12L1218.36 243.248H1216.92L1216.72 245.12C1216.56 246.624 1216.21 248.256 1215.67 250.016C1215.16 251.744 1214.55 253.312 1213.84 254.72L1207.17 272ZM1267.36 231.872H1319.34C1327.76 231.872 1333.71 234.112 1337.2 238.592C1340.72 243.04 1342.48 248.24 1342.48 254.192C1342.48 255.728 1342.38 257.312 1342.19 258.944C1341.23 266.816 1338.06 273.136 1332.68 277.904C1328.36 281.712 1322.91 284 1316.32 284.768L1316.94 286.112L1326.4 284.432L1335.85 308H1308.11L1300 287.888L1300.33 285.056H1285.93L1283.1 308H1258L1267.36 231.872ZM1307.24 267.632C1309.93 267.632 1312.16 266.944 1313.92 265.568C1315.68 264.192 1316.73 262.128 1317.08 259.376C1317.15 258.864 1317.18 258.368 1317.18 257.888C1317.18 255.808 1316.54 254.08 1315.26 252.704C1313.98 251.296 1312.01 250.592 1309.36 250.592H1290.16L1288.04 267.632H1307.24ZM1348.45 231.872H1416.66L1414.21 251.696H1371.11L1370.1 260H1412.24L1409.84 279.68H1367.65L1366.64 288.176H1409.75L1407.3 308H1339.09L1348.45 231.872ZM1435.21 308H1410.15L1419.51 231.872H1463L1478.98 287.984H1480.42L1478.22 275.792C1478.09 275.376 1478.01 274.912 1477.98 274.4C1477.94 273.888 1477.96 273.408 1478.02 272.96L1483.06 231.872H1508.07L1498.71 308H1457.58L1440.15 247.856H1438.66L1440.63 259.472C1440.76 259.824 1440.84 260.24 1440.87 260.72C1440.9 261.2 1440.89 261.632 1440.82 262.016L1435.21 308ZM1537.84 231.872H1577.3L1593.09 308H1567.08L1563.86 293.024H1534.58L1527.67 308H1501.65L1537.84 231.872ZM1545.14 272H1559.01L1556.61 254.72C1556.26 253.312 1556.04 251.744 1555.94 250.016C1555.88 248.256 1555.94 246.624 1556.13 245.12L1556.32 243.248H1554.88L1554.69 245.12C1554.53 246.624 1554.18 248.256 1553.64 250.016C1553.12 251.744 1552.52 253.312 1551.81 254.72L1545.14 272ZM1602.12 281.93L1611.03 229.46H1629.29L1615.98 281.93H1602.12ZM1604.21 309.43C1601.13 309.43 1598.96 308.66 1597.72 307.12C1596.47 305.507 1595.85 303.747 1595.85 301.84C1595.85 299.2 1596.65 296.78 1598.27 294.58C1599.95 292.307 1602.81 291.17 1606.85 291.17C1609.27 291.17 1611.21 291.867 1612.68 293.26C1614.14 294.58 1614.88 296.487 1614.88 298.98C1614.88 301.987 1613.89 304.48 1611.91 306.46C1610 308.44 1607.43 309.43 1604.21 309.43Z" fill="white"/>
<circle cx="918.553" cy="821.554" r="31.0535" fill="#FF1654" fill-opacity="0.2" stroke="#FF1654"/>
<path d="M920.131 837.9V813.665C921.972 816.452 924.815 819.489 929.087 821.409L930.339 818.343C926.213 816.489 923.647 813.396 922.102 810.73C921.33 809.397 920.82 808.183 920.505 807.31C920.348 806.874 920.241 806.525 920.174 806.292C920.141 806.176 920.117 806.088 920.103 806.033C920.096 806.006 920.092 805.987 920.089 805.976C920.088 805.971 920.088 805.968 920.088 805.967V805.97C920.087 805.97 920.085 805.972 920.08 805.973L916.988 806.045L916.982 806.043V806.04C916.982 806.04 916.981 806.043 916.98 806.048C916.978 806.058 916.975 806.077 916.969 806.103C916.958 806.157 916.938 806.242 916.91 806.356C916.854 806.585 916.762 806.93 916.622 807.362C916.341 808.226 915.873 809.43 915.132 810.751C913.653 813.387 911.101 816.475 906.769 818.334L907.973 821.418C912.292 819.565 915.124 816.661 916.952 813.932V837.9H920.131Z" fill="white"/>
<circle cx="1001.55" cy="821.554" r="31.0535" fill="#FF1654" fill-opacity="0.2" stroke="#FF1654"/>
<path d="M1003.13 805.967V830.202C1004.97 827.415 1007.82 824.379 1012.09 822.459L1013.34 825.524C1009.21 827.378 1006.65 830.471 1005.1 833.137C1004.33 834.47 1003.82 835.684 1003.51 836.558C1003.35 836.993 1003.24 837.342 1003.17 837.575C1003.14 837.691 1003.12 837.779 1003.1 837.834C1003.1 837.861 1003.09 837.88 1003.09 837.891C1003.09 837.896 1003.09 837.9 1003.09 837.9V837.897C1003.09 837.897 1003.09 837.895 1003.08 837.894L999.988 837.822L999.982 837.824V837.827C999.982 837.827 999.981 837.824 999.98 837.819C999.978 837.809 999.975 837.79 999.969 837.764C999.958 837.711 999.938 837.626 999.91 837.511C999.854 837.282 999.762 836.937 999.622 836.505C999.341 835.641 998.873 834.438 998.132 833.116C996.653 830.48 994.101 827.392 989.769 825.534L990.973 822.449C995.292 824.302 998.124 827.206 999.952 829.935V805.967H1003.13Z" fill="white"/>
<defs>
<linearGradient id="paint0_linear_9_66" x1="1264.5" y1="374.574" x2="1325.02" y2="763.543" gradientUnits="userSpaceOnUse">
<stop stop-color="#0F0404"/>
<stop offset="1" stop-color="#990D32"/>
</linearGradient>
<linearGradient id="paint1_linear_9_66" x1="1264.5" y1="374.574" x2="1325.02" y2="763.543" gradientUnits="userSpaceOnUse">
<stop stop-color="#FF1654"/>
<stop offset="1" stop-color="#0F0404"/>
</linearGradient>
</defs>
</svg>
