<svg width="24" height="32" viewBox="0 0 24 32" fill="none" xmlns="http://www.w3.org/2000/svg">
<path d="M13.3898 32V7.71405C15.2345 10.5075 18.0836 13.5499 22.364 15.4739L23.6191 12.4022C19.4846 10.5438 16.9135 7.4448 15.365 4.77292C14.5912 3.43763 14.0799 2.221 13.7646 1.34568C13.6074 0.909167 13.5002 0.559767 13.4333 0.326154C13.3999 0.209398 13.3758 0.121674 13.3618 0.0667852C13.3548 0.0395164 13.3503 0.0202943 13.3478 0.00969228C13.3465 0.00439985 13.3464 0.000810398 13.3462 -9.55657e-05V0.00316705C13.3455 0.0034117 13.3438 0.00501529 13.3384 0.00642966L10.2402 0.0782053L10.234 0.076573V0.0733104C10.2339 0.0738284 10.2334 0.0765959 10.2325 0.0814679C10.2305 0.0912481 10.2272 0.110388 10.2216 0.136929C10.2103 0.19013 10.1905 0.275451 10.1625 0.389773C10.106 0.619679 10.0136 0.965566 9.87318 1.39788C9.59173 2.26416 9.12268 3.47007 8.38007 4.79413C6.89822 7.43613 4.3411 10.5299 0 12.3925L1.20693 15.4837C5.53448 13.6268 8.37275 10.7161 10.2045 7.98158V32H13.3898Z" fill="white"/>
</svg>
