<svg width="24" height="32" viewBox="0 0 24 32" fill="none" xmlns="http://www.w3.org/2000/svg">
<path d="M13.3898 0V24.2859C15.2345 21.4925 18.0836 18.4501 22.364 16.5261L23.6191 19.5978C19.4846 21.4562 16.9135 24.5552 15.365 27.2271C14.5912 28.5624 14.0799 29.779 13.7646 30.6543C13.6074 31.0908 13.5002 31.4402 13.4333 31.6738C13.3999 31.7906 13.3758 31.8783 13.3618 31.9332C13.3548 31.9605 13.3503 31.9797 13.3478 31.9903C13.3465 31.9956 13.3464 31.9992 13.3462 32.0001V31.9968C13.3455 31.9966 13.3438 31.995 13.3384 31.9936L10.2402 31.9218L10.234 31.9234V31.9267C10.2339 31.9262 10.2334 31.9234 10.2325 31.9185C10.2305 31.9088 10.2272 31.8896 10.2216 31.8631C10.2103 31.8099 10.1905 31.7245 10.1625 31.6102C10.106 31.3803 10.0136 31.0344 9.87318 30.6021C9.59173 29.7358 9.12268 28.5299 8.38007 27.2059C6.89822 24.5639 4.3411 21.4701 0 19.6075L1.20693 16.5163C5.53448 18.3732 8.37275 21.2839 10.2045 24.0184V0H13.3898Z" fill="white"/>
</svg>
