<svg width="1920" height="955" viewBox="0 0 1920 955" fill="none" xmlns="http://www.w3.org/2000/svg">
<path d="M0 0H1920V955H0V0Z" fill="#0F0404"/>
<path d="M1646.19 708.527L1698.59 646.317L1651.49 627.364L1646.19 708.527Z" fill="#FF1654"/>
<path d="M1629.76 722.693L1599.26 745.035L1591.95 722.598L1629.76 722.693Z" fill="#FF1654"/>
<path d="M1632.73 747.953L1624.72 744.263L1634.34 733.921L1632.73 747.953Z" stroke="#FF1654"/>
<path d="M1679.93 699.789L1684.7 716.079L1657.52 715.205L1679.93 699.789Z" stroke="#FF1654"/>
<path d="M1644.98 723.047L1667.34 788.757L1701.95 762.698L1644.98 723.047Z" fill="#FF1654"/>
<path d="M1227.53 480.206H1636.47V710.23H1227.53V480.206Z" fill="#181818"/>
<path d="M512.178 562.831L551.689 400.624L659.608 512.646L636.563 527.118L667.302 521.923L970.463 467.374L699.163 637.251L658.478 787.175L534.289 692.255L584.748 668.859L526.939 684.38L210.827 677.23L512.178 562.831Z" fill="url(#paint0_linear_9_87)" stroke="url(#paint1_linear_9_87)"/>
<path d="M311.72 516.826H335.288C340.648 516.826 344.848 518.306 347.888 521.266C350.928 524.226 352.448 529.082 352.448 535.834C352.448 542.586 350.928 547.45 347.888 550.426C344.848 553.402 340.648 554.89 335.288 554.89H311.72V516.826ZM332.672 545.29C335.136 545.29 336.96 544.706 338.144 543.538C339.344 542.37 339.944 539.802 339.944 535.834C339.944 531.898 339.344 529.346 338.144 528.178C336.96 527.01 335.136 526.426 332.672 526.426H324.248V545.29H332.672ZM374.596 555.13C368.82 555.13 363.924 553.946 359.908 551.578C355.908 549.21 353.908 545.53 353.908 540.538C353.908 535.578 355.908 531.97 359.908 529.714C363.924 527.442 368.82 526.306 374.596 526.306C380.388 526.306 385.276 527.442 389.26 529.714C393.26 531.97 395.26 535.578 395.26 540.538C395.26 545.53 393.26 549.21 389.26 551.578C385.276 553.946 380.388 555.13 374.596 555.13ZM374.62 547.162C376.972 547.162 378.94 546.762 380.524 545.962C382.108 545.162 382.9 543.386 382.9 540.634C382.9 537.914 382.108 536.17 380.524 535.402C378.94 534.634 376.972 534.25 374.62 534.25C372.268 534.25 370.292 534.634 368.692 535.402C367.092 536.17 366.292 537.914 366.292 540.634C366.292 543.386 367.092 545.162 368.692 545.962C370.292 546.762 372.268 547.162 374.62 547.162ZM419.744 540.634C419.744 538.25 419.352 536.642 418.568 535.81C417.784 534.978 416.632 534.562 415.112 534.562C413.4 534.562 411.952 535.106 410.768 536.194C409.904 536.994 409.352 538.098 409.112 539.506V554.89H396.704V526.618H409.112V528.826C409.112 528.97 409.064 529.082 408.968 529.162L406.568 531.442L407 531.946L408.104 530.938C408.184 530.858 408.264 530.77 408.344 530.674C411.096 527.842 414.536 526.426 418.664 526.426C418.776 526.426 418.888 526.426 419 526.426C423.496 526.506 426.808 527.698 428.936 530.002C429.288 530.402 429.616 530.818 429.92 531.25C430.016 531.17 430.112 531.082 430.208 530.986C433.744 527.946 437.592 526.426 441.752 526.426C441.848 526.426 441.952 526.426 442.064 526.426C446.56 526.506 449.832 527.706 451.88 530.026C453.944 532.33 454.976 535.434 454.976 539.338V554.89H442.592V540.634C442.592 538.25 442.232 536.642 441.512 535.81C440.808 534.978 439.688 534.562 438.152 534.562C436.44 534.562 434.992 535.106 433.808 536.194C432.896 537.042 432.336 538.226 432.128 539.746V554.89H419.744V540.634ZM468.831 516.826L468.855 524.818H456.447L456.423 516.826H468.831ZM456.447 526.618H468.855V554.89H456.447V526.618ZM495.641 541.57C495.641 538.578 495.177 536.666 494.249 535.834C493.321 534.986 491.921 534.562 490.049 534.562C487.953 534.562 486.113 535.282 484.529 536.722C483.745 537.426 483.153 538.282 482.753 539.29V554.89H470.345V526.618H482.753V528.826C482.753 528.97 482.705 529.082 482.609 529.162L480.209 531.442L480.641 531.946L481.145 531.49C481.209 531.426 481.273 531.362 481.337 531.298C484.569 528.018 488.761 526.378 493.913 526.378C494.153 526.378 494.393 526.378 494.633 526.378C498.953 526.538 502.265 527.802 504.569 530.17C506.873 532.538 508.025 536.106 508.025 540.874V554.89H495.641V541.57ZM539.774 549.682L539.198 549.298C537.758 551.074 536.654 552.234 535.886 552.778C535.118 553.322 534.19 553.786 533.102 554.17C532.014 554.538 530.798 554.818 529.454 555.01C528.11 555.218 526.678 555.322 525.158 555.322C523.862 555.322 522.478 555.242 521.006 555.082C519.55 554.938 518.142 554.682 516.782 554.314C515.422 553.93 514.19 553.394 513.086 552.706C511.982 552.018 511.102 551.154 510.446 550.114C509.806 549.074 509.486 547.77 509.486 546.202C509.486 544.682 509.814 543.434 510.47 542.458C511.142 541.466 512.014 540.626 513.086 539.938C514.158 539.234 515.446 538.706 516.95 538.354C518.47 537.986 520.014 537.73 521.582 537.586C523.166 537.426 524.67 537.346 526.094 537.346H536.966V537.058C536.966 536.146 536.622 535.434 535.934 534.922C535.262 534.41 534.286 534.098 533.006 533.986C531.726 533.858 530.35 533.794 528.878 533.794C527.534 533.794 526.31 533.818 525.206 533.866C524.102 533.914 523.11 534.138 522.23 534.538C521.35 534.922 520.862 535.65 520.766 536.722H509.582C509.774 533.922 510.678 531.81 512.294 530.386C513.926 528.962 515.742 528.002 517.742 527.506C519.758 527.01 521.638 526.698 523.382 526.57C525.126 526.426 527.166 526.354 529.502 526.354C534.718 526.354 538.486 526.754 540.806 527.554C543.126 528.338 545.126 529.594 546.806 531.322C548.502 533.05 549.35 535.354 549.35 538.234V554.89H537.398V553.714C537.398 553.314 537.47 552.906 537.614 552.49C537.774 552.058 537.99 551.69 538.262 551.386L539.774 549.682ZM527.534 548.122C528.366 548.122 529.286 548.058 530.294 547.93C531.318 547.786 532.318 547.57 533.294 547.282C534.286 546.994 535.102 546.626 535.742 546.178C536.398 545.714 536.798 545.17 536.942 544.546L537.374 543.898H527.15C526.382 543.898 525.678 543.93 525.038 543.994C524.398 544.042 523.846 544.138 523.382 544.282C522.934 544.426 522.582 544.642 522.326 544.93C522.086 545.202 521.966 545.562 521.966 546.01C521.966 546.49 522.126 546.874 522.446 547.162C522.782 547.434 523.222 547.642 523.766 547.786C524.31 547.93 524.91 548.026 525.566 548.074C526.238 548.106 526.894 548.122 527.534 548.122ZM570.125 554.89C564.333 554.89 560.573 554.034 558.845 552.322C557.117 550.61 556.253 548.21 556.253 545.122V534.994H550.829V526.618H552.365C553.197 526.618 553.925 526.474 554.549 526.186C555.189 525.898 555.725 525.506 556.157 525.01C556.589 524.498 556.917 523.898 557.141 523.21C557.365 522.506 557.477 521.738 557.477 520.906V516.826H569.909V520.906C569.909 521.77 569.821 522.514 569.645 523.138C569.469 523.762 569.181 524.282 568.781 524.698C568.381 525.098 567.861 525.402 567.221 525.61C566.581 525.802 565.797 525.898 564.869 525.898V526.618H581.597V534.994H568.637V542.218C568.637 543.61 569.189 544.522 570.293 544.954C571.397 545.386 572.653 545.602 574.061 545.602C575.645 545.602 578.189 545.586 581.693 545.554V554.89C577.117 554.89 573.261 554.89 570.125 554.89ZM624.381 545.218C623.933 548.002 622.837 550.13 621.093 551.602C619.365 553.058 617.293 554.026 614.877 554.506C612.461 555.002 608.861 555.25 604.077 555.25C595.869 555.25 590.333 554.074 587.469 551.722C584.605 549.354 583.173 545.754 583.173 540.922C583.173 536.09 584.581 532.45 587.397 530.002C590.229 527.554 595.661 526.33 603.693 526.33C611.773 526.33 617.205 527.61 619.989 530.17C622.773 532.714 624.165 536.298 624.165 540.922L624.069 543.706H595.173C595.493 545.114 596.101 546.082 596.997 546.61C598.389 547.41 600.749 547.81 604.077 547.81C605.933 547.81 607.245 547.77 608.013 547.69C608.797 547.594 609.557 547.37 610.293 547.018C611.045 546.65 611.653 546.05 612.117 545.218H624.381ZM611.949 537.466C611.853 536.25 611.189 535.322 609.957 534.682C608.741 534.026 606.669 533.698 603.741 533.698C600.509 533.698 598.229 534.146 596.901 535.042C596.181 535.522 595.653 536.33 595.317 537.466H611.949ZM664.344 554.89C658.552 554.89 654.792 554.034 653.064 552.322C651.336 550.61 650.472 548.21 650.472 545.122V534.994H645.048V526.618H646.584C647.416 526.618 648.144 526.474 648.768 526.186C649.408 525.898 649.944 525.506 650.376 525.01C650.808 524.498 651.136 523.898 651.36 523.21C651.584 522.506 651.696 521.738 651.696 520.906V516.826H664.128V520.906C664.128 521.77 664.04 522.514 663.864 523.138C663.688 523.762 663.4 524.282 663 524.698C662.6 525.098 662.08 525.402 661.44 525.61C660.8 525.802 660.016 525.898 659.088 525.898V526.618H675.816V534.994H662.856V542.218C662.856 543.61 663.408 544.522 664.512 544.954C665.616 545.386 666.872 545.602 668.28 545.602C669.864 545.602 672.408 545.586 675.912 545.554V554.89C671.336 554.89 667.48 554.89 664.344 554.89ZM703 541.57C703 538.578 702.528 536.666 701.584 535.834C700.656 534.986 699.264 534.562 697.408 534.562C695.312 534.562 693.472 535.282 691.888 536.722C690.864 537.634 690.168 538.714 689.8 539.962V554.89H677.392V516.826H689.8V529.066C689.8 529.21 689.752 529.322 689.656 529.402L687.256 531.562L687.688 532.066L688.216 531.586C688.456 531.33 688.712 531.082 688.984 530.842C692.056 527.85 696.096 526.354 701.104 526.354C701.424 526.354 701.752 526.362 702.088 526.378C706.328 526.554 709.6 527.802 711.904 530.122C714.224 532.426 715.384 535.962 715.384 540.73V554.89H703V541.57ZM758.069 545.218C757.621 548.002 756.525 550.13 754.781 551.602C753.053 553.058 750.981 554.026 748.565 554.506C746.149 555.002 742.549 555.25 737.765 555.25C729.557 555.25 724.021 554.074 721.157 551.722C718.293 549.354 716.861 545.754 716.861 540.922C716.861 536.09 718.269 532.45 721.085 530.002C723.917 527.554 729.349 526.33 737.381 526.33C745.461 526.33 750.893 527.61 753.677 530.17C756.461 532.714 757.853 536.298 757.853 540.922L757.757 543.706H728.861C729.181 545.114 729.789 546.082 730.685 546.61C732.077 547.41 734.437 547.81 737.765 547.81C739.621 547.81 740.933 547.77 741.701 547.69C742.485 547.594 743.245 547.37 743.981 547.018C744.733 546.65 745.341 546.05 745.805 545.218H758.069ZM745.637 537.466C745.541 536.25 744.877 535.322 743.645 534.682C742.429 534.026 740.357 533.698 737.429 533.698C734.197 533.698 731.917 534.146 730.589 535.042C729.869 535.522 729.341 536.33 729.005 537.466H745.637ZM311.72 572.554H324.128V611.89H311.72V572.554ZM366.803 602.218C366.355 605.002 365.259 607.13 363.515 608.602C361.787 610.058 359.715 611.026 357.299 611.506C354.883 612.002 351.283 612.25 346.499 612.25C338.291 612.25 332.755 611.074 329.891 608.722C327.027 606.354 325.595 602.754 325.595 597.922C325.595 593.09 327.003 589.45 329.819 587.002C332.651 584.554 338.083 583.33 346.115 583.33C354.195 583.33 359.627 584.61 362.411 587.17C365.195 589.714 366.587 593.298 366.587 597.922L366.491 600.706H337.595C337.915 602.114 338.523 603.082 339.419 603.61C340.811 604.41 343.171 604.81 346.499 604.81C348.355 604.81 349.667 604.77 350.435 604.69C351.219 604.594 351.979 604.37 352.715 604.018C353.467 603.65 354.075 603.05 354.539 602.218H366.803ZM354.371 594.466C354.275 593.25 353.611 592.322 352.379 591.682C351.163 591.026 349.091 590.698 346.163 590.698C342.931 590.698 340.651 591.146 339.323 592.042C338.603 592.522 338.075 593.33 337.739 594.466H354.371ZM398.352 606.682L397.776 606.298C396.336 608.074 395.232 609.234 394.464 609.778C393.696 610.322 392.768 610.786 391.68 611.17C390.592 611.538 389.376 611.818 388.032 612.01C386.688 612.218 385.256 612.322 383.736 612.322C382.44 612.322 381.056 612.242 379.584 612.082C378.128 611.938 376.72 611.682 375.36 611.314C374 610.93 372.768 610.394 371.664 609.706C370.56 609.018 369.68 608.154 369.024 607.114C368.384 606.074 368.064 604.77 368.064 603.202C368.064 601.682 368.392 600.434 369.048 599.458C369.72 598.466 370.592 597.626 371.664 596.938C372.736 596.234 374.024 595.706 375.528 595.354C377.048 594.986 378.592 594.73 380.16 594.586C381.744 594.426 383.248 594.346 384.672 594.346H395.544V594.058C395.544 593.146 395.2 592.434 394.512 591.922C393.84 591.41 392.864 591.098 391.584 590.986C390.304 590.858 388.928 590.794 387.456 590.794C386.112 590.794 384.888 590.818 383.784 590.866C382.68 590.914 381.688 591.138 380.808 591.538C379.928 591.922 379.44 592.65 379.344 593.722H368.16C368.352 590.922 369.256 588.81 370.872 587.386C372.504 585.962 374.32 585.002 376.32 584.506C378.336 584.01 380.216 583.698 381.96 583.57C383.704 583.426 385.744 583.354 388.08 583.354C393.296 583.354 397.064 583.754 399.384 584.554C401.704 585.338 403.704 586.594 405.384 588.322C407.08 590.05 407.928 592.354 407.928 595.234V611.89H395.976V610.714C395.976 610.314 396.048 609.906 396.192 609.49C396.352 609.058 396.568 608.69 396.84 608.386L398.352 606.682ZM386.112 605.122C386.944 605.122 387.864 605.058 388.872 604.93C389.896 604.786 390.896 604.57 391.872 604.282C392.864 603.994 393.68 603.626 394.32 603.178C394.976 602.714 395.376 602.17 395.52 601.546L395.952 600.898H385.728C384.96 600.898 384.256 600.93 383.616 600.994C382.976 601.042 382.424 601.138 381.96 601.282C381.512 601.426 381.16 601.642 380.904 601.93C380.664 602.202 380.544 602.562 380.544 603.01C380.544 603.49 380.704 603.874 381.024 604.162C381.36 604.434 381.8 604.642 382.344 604.786C382.888 604.93 383.488 605.026 384.144 605.074C384.816 605.106 385.472 605.122 386.112 605.122ZM437.152 573.826H449.56V611.89H437.152V610.282C437.152 610.138 437.208 610.042 437.32 609.994L440.008 608.29L439.576 607.786L439.24 607.978C438.584 608.442 437.816 608.922 436.936 609.418C433.704 611.21 429.816 612.106 425.272 612.106C425.144 612.106 425.024 612.106 424.912 612.106C420.272 612.042 416.528 610.786 413.68 608.338C410.832 605.89 409.408 602.338 409.408 597.682C409.408 593.01 410.832 589.482 413.68 587.098C416.528 584.714 420.272 583.482 424.912 583.402C425.072 583.402 425.224 583.402 425.368 583.402C429.864 583.402 433.72 584.298 436.936 586.09C437.56 586.426 438.12 586.762 438.616 587.098L439.6 587.65L440.104 587.194L437.296 585.49C437.2 585.426 437.152 585.33 437.152 585.202V573.826ZM422.008 597.754C422.008 600.266 422.616 601.93 423.832 602.746C425.064 603.562 426.832 603.97 429.136 603.97C431.2 603.97 433.048 603.546 434.68 602.698C436.264 601.898 437.088 600.578 437.152 598.738V596.842C437.088 594.938 436.264 593.594 434.68 592.81C433.048 591.978 431.2 591.562 429.136 591.562C426.832 591.562 425.064 591.97 423.832 592.786C422.616 593.602 422.008 595.258 422.008 597.754ZM492.147 602.218C491.699 605.002 490.603 607.13 488.859 608.602C487.131 610.058 485.059 611.026 482.643 611.506C480.227 612.002 476.627 612.25 471.843 612.25C463.635 612.25 458.099 611.074 455.235 608.722C452.371 606.354 450.939 602.754 450.939 597.922C450.939 593.09 452.347 589.45 455.163 587.002C457.995 584.554 463.427 583.33 471.459 583.33C479.539 583.33 484.971 584.61 487.755 587.17C490.539 589.714 491.931 593.298 491.931 597.922L491.835 600.706H462.939C463.259 602.114 463.867 603.082 464.763 603.61C466.155 604.41 468.515 604.81 471.843 604.81C473.699 604.81 475.011 604.77 475.779 604.69C476.563 604.594 477.323 604.37 478.059 604.018C478.811 603.65 479.419 603.05 479.883 602.218H492.147ZM479.715 594.466C479.619 593.25 478.955 592.322 477.723 591.682C476.507 591.026 474.435 590.698 471.507 590.698C468.275 590.698 465.995 591.146 464.667 592.042C463.947 592.522 463.419 593.33 463.083 594.466H479.715ZM518.776 597.922C518.776 595.074 518.352 593.306 517.504 592.618C516.656 591.914 515.088 591.562 512.8 591.562C510.752 591.562 509.056 592.082 507.712 593.122C506.688 593.922 506.056 594.978 505.816 596.29V611.89H493.408V583.618H505.816V585.778C505.816 585.906 505.768 586.01 505.672 586.09L503.272 588.274L503.704 588.754L503.944 588.538C504.44 588.01 505.008 587.474 505.648 586.93C508.48 584.562 512.328 583.378 517.192 583.378C521.976 583.378 525.504 584.33 527.776 586.234C530.048 588.122 531.184 592.018 531.184 597.922H518.776ZM545.05 611.89H532.642L532.594 573.826H545.002L545.05 585.202C545.05 585.346 545.002 585.442 544.906 585.49L542.122 587.194L542.602 587.65L543.586 587.098C544.082 586.762 544.642 586.426 545.266 586.09C548.482 584.298 552.338 583.402 556.834 583.402C556.978 583.402 557.13 583.402 557.29 583.402C562.506 583.482 566.394 584.602 568.954 586.762C571.514 588.906 572.794 592.546 572.794 597.682C572.794 602.802 571.514 606.474 568.954 608.698C566.394 610.906 562.506 612.042 557.29 612.106C557.178 612.106 557.058 612.106 556.93 612.106C552.402 612.106 548.514 611.21 545.266 609.418C544.386 608.922 543.626 608.442 542.986 607.978L542.65 607.786L542.218 608.29L544.906 609.994C545.002 610.058 545.05 610.154 545.05 610.282V611.89ZM547.522 602.698C549.17 603.546 551.018 603.97 553.066 603.97C555.914 603.97 557.818 603.562 558.778 602.746C559.738 601.93 560.218 600.266 560.218 597.754C560.218 595.258 559.738 593.602 558.778 592.786C557.818 591.97 555.914 591.562 553.066 591.562C551.018 591.562 549.17 591.978 547.522 592.81C545.938 593.594 545.114 594.938 545.05 596.842V598.738C545.114 600.578 545.938 601.898 547.522 602.698ZM594.908 612.13C589.132 612.13 584.236 610.946 580.22 608.578C576.22 606.21 574.22 602.53 574.22 597.538C574.22 592.578 576.22 588.97 580.22 586.714C584.236 584.442 589.132 583.306 594.908 583.306C600.7 583.306 605.588 584.442 609.572 586.714C613.572 588.97 615.572 592.578 615.572 597.538C615.572 602.53 613.572 606.21 609.572 608.578C605.588 610.946 600.7 612.13 594.908 612.13ZM594.932 604.162C597.284 604.162 599.252 603.762 600.836 602.962C602.42 602.162 603.212 600.386 603.212 597.634C603.212 594.914 602.42 593.17 600.836 592.402C599.252 591.634 597.284 591.25 594.932 591.25C592.58 591.25 590.604 591.634 589.004 592.402C587.404 593.17 586.604 594.914 586.604 597.634C586.604 600.386 587.404 602.162 589.004 602.962C590.604 603.762 592.58 604.162 594.932 604.162ZM647.305 606.682L646.729 606.298C645.289 608.074 644.185 609.234 643.417 609.778C642.649 610.322 641.721 610.786 640.633 611.17C639.545 611.538 638.329 611.818 636.985 612.01C635.641 612.218 634.209 612.322 632.689 612.322C631.393 612.322 630.009 612.242 628.537 612.082C627.081 611.938 625.673 611.682 624.313 611.314C622.953 610.93 621.721 610.394 620.617 609.706C619.513 609.018 618.633 608.154 617.977 607.114C617.337 606.074 617.017 604.77 617.017 603.202C617.017 601.682 617.345 600.434 618.001 599.458C618.673 598.466 619.545 597.626 620.617 596.938C621.689 596.234 622.977 595.706 624.481 595.354C626.001 594.986 627.545 594.73 629.113 594.586C630.697 594.426 632.201 594.346 633.625 594.346H644.497V594.058C644.497 593.146 644.153 592.434 643.465 591.922C642.793 591.41 641.817 591.098 640.537 590.986C639.257 590.858 637.881 590.794 636.409 590.794C635.065 590.794 633.841 590.818 632.737 590.866C631.633 590.914 630.641 591.138 629.761 591.538C628.881 591.922 628.393 592.65 628.297 593.722H617.113C617.305 590.922 618.209 588.81 619.825 587.386C621.457 585.962 623.273 585.002 625.273 584.506C627.289 584.01 629.169 583.698 630.913 583.57C632.657 583.426 634.697 583.354 637.033 583.354C642.249 583.354 646.017 583.754 648.337 584.554C650.657 585.338 652.657 586.594 654.337 588.322C656.033 590.05 656.881 592.354 656.881 595.234V611.89H644.929V610.714C644.929 610.314 645.001 609.906 645.145 609.49C645.305 609.058 645.521 608.69 645.793 608.386L647.305 606.682ZM635.065 605.122C635.897 605.122 636.817 605.058 637.825 604.93C638.849 604.786 639.849 604.57 640.825 604.282C641.817 603.994 642.633 603.626 643.273 603.178C643.929 602.714 644.329 602.17 644.473 601.546L644.905 600.898H634.681C633.913 600.898 633.209 600.93 632.569 600.994C631.929 601.042 631.377 601.138 630.913 601.282C630.465 601.426 630.113 601.642 629.857 601.93C629.617 602.202 629.497 602.562 629.497 603.01C629.497 603.49 629.657 603.874 629.977 604.162C630.313 604.434 630.753 604.642 631.297 604.786C631.841 604.93 632.441 605.026 633.097 605.074C633.769 605.106 634.425 605.122 635.065 605.122ZM683.729 597.922C683.729 595.074 683.305 593.306 682.457 592.618C681.609 591.914 680.041 591.562 677.753 591.562C675.705 591.562 674.009 592.082 672.665 593.122C671.641 593.922 671.009 594.978 670.769 596.29V611.89H658.361V583.618H670.769V585.778C670.769 585.906 670.721 586.01 670.625 586.09L668.225 588.274L668.657 588.754L668.897 588.538C669.393 588.01 669.961 587.474 670.601 586.93C673.433 584.562 677.281 583.378 682.145 583.378C686.929 583.378 690.457 584.33 692.729 586.234C695.001 588.122 696.137 592.018 696.137 597.922H683.729ZM724.964 573.826H737.372V611.89H724.964V610.282C724.964 610.138 725.02 610.042 725.132 609.994L727.82 608.29L727.388 607.786L727.052 607.978C726.396 608.442 725.628 608.922 724.748 609.418C721.516 611.21 717.628 612.106 713.084 612.106C712.956 612.106 712.836 612.106 712.724 612.106C708.084 612.042 704.34 610.786 701.492 608.338C698.644 605.89 697.22 602.338 697.22 597.682C697.22 593.01 698.644 589.482 701.492 587.098C704.34 584.714 708.084 583.482 712.724 583.402C712.884 583.402 713.036 583.402 713.18 583.402C717.676 583.402 721.532 584.298 724.748 586.09C725.372 586.426 725.932 586.762 726.428 587.098L727.412 587.65L727.916 587.194L725.108 585.49C725.012 585.426 724.964 585.33 724.964 585.202V573.826ZM709.82 597.754C709.82 600.266 710.428 601.93 711.644 602.746C712.876 603.562 714.644 603.97 716.948 603.97C719.012 603.97 720.86 603.546 722.492 602.698C724.076 601.898 724.9 600.578 724.964 598.738V596.842C724.9 594.938 724.076 593.594 722.492 592.81C720.86 591.978 719.012 591.562 716.948 591.562C714.644 591.562 712.876 591.97 711.644 592.786C710.428 593.602 709.82 595.258 709.82 597.754ZM788.446 606.682L787.87 606.298C786.43 608.074 785.326 609.234 784.557 609.778C783.79 610.322 782.862 610.786 781.774 611.17C780.686 611.538 779.47 611.818 778.126 612.01C776.782 612.218 775.35 612.322 773.83 612.322C772.534 612.322 771.15 612.242 769.678 612.082C768.222 611.938 766.814 611.682 765.454 611.314C764.094 610.93 762.862 610.394 761.758 609.706C760.654 609.018 759.774 608.154 759.118 607.114C758.478 606.074 758.158 604.77 758.158 603.202C758.158 601.682 758.486 600.434 759.142 599.458C759.814 598.466 760.686 597.626 761.758 596.938C762.83 596.234 764.118 595.706 765.622 595.354C767.142 594.986 768.686 594.73 770.254 594.586C771.838 594.426 773.342 594.346 774.766 594.346H785.638V594.058C785.638 593.146 785.294 592.434 784.606 591.922C783.934 591.41 782.958 591.098 781.677 590.986C780.398 590.858 779.022 590.794 777.55 590.794C776.206 590.794 774.982 590.818 773.878 590.866C772.774 590.914 771.782 591.138 770.902 591.538C770.022 591.922 769.534 592.65 769.438 593.722H758.254C758.446 590.922 759.35 588.81 760.965 587.386C762.598 585.962 764.414 585.002 766.414 584.506C768.43 584.01 770.31 583.698 772.054 583.57C773.798 583.426 775.838 583.354 778.174 583.354C783.39 583.354 787.158 583.754 789.478 584.554C791.798 585.338 793.798 586.594 795.478 588.322C797.174 590.05 798.022 592.354 798.022 595.234V611.89H786.07V610.714C786.07 610.314 786.142 609.906 786.286 609.49C786.446 609.058 786.662 608.69 786.934 608.386L788.446 606.682ZM776.206 605.122C777.038 605.122 777.958 605.058 778.966 604.93C779.99 604.786 780.99 604.57 781.966 604.282C782.958 603.994 783.774 603.626 784.414 603.178C785.07 602.714 785.47 602.17 785.614 601.546L786.046 600.898H775.822C775.054 600.898 774.35 600.93 773.71 600.994C773.07 601.042 772.518 601.138 772.054 601.282C771.606 601.426 771.254 601.642 770.997 601.93C770.758 602.202 770.638 602.562 770.638 603.01C770.638 603.49 770.798 603.874 771.118 604.162C771.454 604.434 771.894 604.642 772.438 604.786C772.982 604.93 773.582 605.026 774.238 605.074C774.91 605.106 775.566 605.122 776.206 605.122ZM824.797 598.57C824.797 595.578 824.333 593.666 823.405 592.834C822.477 591.986 821.077 591.562 819.205 591.562C817.109 591.562 815.269 592.282 813.685 593.722C812.901 594.426 812.309 595.282 811.909 596.29V611.89H799.501V583.618H811.909V585.826C811.909 585.97 811.861 586.082 811.765 586.162L809.365 588.442L809.797 588.946L810.301 588.49C810.365 588.426 810.429 588.362 810.493 588.298C813.725 585.018 817.917 583.378 823.069 583.378C823.309 583.378 823.549 583.378 823.789 583.378C828.109 583.538 831.421 584.802 833.725 587.17C836.029 589.538 837.181 593.106 837.181 597.874V611.89H824.797V598.57ZM866.386 573.826H878.794V611.89H866.386V610.282C866.386 610.138 866.442 610.042 866.554 609.994L869.242 608.29L868.81 607.786L868.474 607.978C867.818 608.442 867.05 608.922 866.17 609.418C862.938 611.21 859.05 612.106 854.506 612.106C854.378 612.106 854.258 612.106 854.146 612.106C849.506 612.042 845.762 610.786 842.914 608.338C840.066 605.89 838.642 602.338 838.642 597.682C838.642 593.01 840.066 589.482 842.914 587.098C845.762 584.714 849.506 583.482 854.146 583.402C854.306 583.402 854.458 583.402 854.602 583.402C859.098 583.402 862.954 584.298 866.17 586.09C866.794 586.426 867.354 586.762 867.85 587.098L868.834 587.65L869.338 587.194L866.53 585.49C866.434 585.426 866.386 585.33 866.386 585.202V573.826ZM851.242 597.754C851.242 600.266 851.85 601.93 853.066 602.746C854.298 603.562 856.066 603.97 858.37 603.97C860.434 603.97 862.282 603.546 863.914 602.698C865.498 601.898 866.322 600.578 866.386 598.738V596.842C866.322 594.938 865.498 593.594 863.914 592.81C862.282 591.978 860.434 591.562 858.37 591.562C856.066 591.562 854.298 591.97 853.066 592.786C851.85 593.602 851.242 595.258 851.242 597.754ZM331.976 669.25C324.872 669.25 319.72 668.186 316.52 666.058C313.32 663.93 311.72 660.194 311.72 654.85C311.72 649.506 313.32 645.762 316.52 643.618C319.72 641.458 324.872 640.378 331.976 640.378C339.144 640.378 344.008 641.394 346.568 643.426C349.128 645.458 350.688 648.698 351.248 653.146H339.56C339.304 651.338 338.632 650.122 337.544 649.498C336.472 648.874 334.616 648.562 331.976 648.562C329.608 648.562 327.656 648.946 326.12 649.714C324.584 650.482 323.816 652.194 323.816 654.85C323.816 657.49 324.584 659.194 326.12 659.962C327.656 660.73 329.608 661.114 331.976 661.114C334.616 661.114 336.472 660.802 337.544 660.178C338.632 659.554 339.304 658.354 339.56 656.578H351.248C350.688 661.106 349.128 664.354 346.568 666.322C344.008 668.274 339.144 669.25 331.976 669.25ZM352.689 629.554H365.097V668.89H352.689V629.554ZM396.852 663.682L396.276 663.298C394.836 665.074 393.732 666.234 392.964 666.778C392.196 667.322 391.268 667.786 390.18 668.17C389.092 668.538 387.876 668.818 386.532 669.01C385.188 669.218 383.756 669.322 382.236 669.322C380.94 669.322 379.556 669.242 378.084 669.082C376.628 668.938 375.22 668.682 373.86 668.314C372.5 667.93 371.268 667.394 370.164 666.706C369.06 666.018 368.18 665.154 367.524 664.114C366.884 663.074 366.564 661.77 366.564 660.202C366.564 658.682 366.892 657.434 367.548 656.458C368.22 655.466 369.092 654.626 370.164 653.938C371.236 653.234 372.524 652.706 374.028 652.354C375.548 651.986 377.092 651.73 378.66 651.586C380.244 651.426 381.748 651.346 383.172 651.346H394.044V651.058C394.044 650.146 393.7 649.434 393.012 648.922C392.34 648.41 391.364 648.098 390.084 647.986C388.804 647.858 387.428 647.794 385.956 647.794C384.612 647.794 383.388 647.818 382.284 647.866C381.18 647.914 380.188 648.138 379.308 648.538C378.428 648.922 377.94 649.65 377.844 650.722H366.66C366.852 647.922 367.756 645.81 369.372 644.386C371.004 642.962 372.82 642.002 374.82 641.506C376.836 641.01 378.716 640.698 380.46 640.57C382.204 640.426 384.244 640.354 386.58 640.354C391.796 640.354 395.564 640.754 397.884 641.554C400.204 642.338 402.204 643.594 403.884 645.322C405.58 647.05 406.428 649.354 406.428 652.234V668.89H394.476V667.714C394.476 667.314 394.548 666.906 394.692 666.49C394.852 666.058 395.068 665.69 395.34 665.386L396.852 663.682ZM384.612 662.122C385.444 662.122 386.364 662.058 387.372 661.93C388.396 661.786 389.396 661.57 390.372 661.282C391.364 660.994 392.18 660.626 392.82 660.178C393.476 659.714 393.876 659.17 394.02 658.546L394.452 657.898H384.228C383.46 657.898 382.756 657.93 382.116 657.994C381.476 658.042 380.924 658.138 380.46 658.282C380.012 658.426 379.66 658.642 379.404 658.93C379.164 659.202 379.044 659.562 379.044 660.01C379.044 660.49 379.204 660.874 379.524 661.162C379.86 661.434 380.3 661.642 380.844 661.786C381.388 661.93 381.988 662.026 382.644 662.074C383.316 662.106 383.972 662.122 384.612 662.122ZM420.316 630.826L420.34 638.818H407.932L407.908 630.826H420.316ZM407.932 640.618H420.34V668.89H407.932V640.618ZM444.869 654.634C444.869 652.25 444.477 650.642 443.693 649.81C442.909 648.978 441.757 648.562 440.237 648.562C438.525 648.562 437.077 649.106 435.893 650.194C435.029 650.994 434.477 652.098 434.237 653.506V668.89H421.829V640.618H434.237V642.826C434.237 642.97 434.189 643.082 434.093 643.162L431.693 645.442L432.125 645.946L433.229 644.938C433.309 644.858 433.389 644.77 433.469 644.674C436.221 641.842 439.661 640.426 443.789 640.426C443.901 640.426 444.013 640.426 444.125 640.426C448.621 640.506 451.933 641.698 454.061 644.002C454.413 644.402 454.741 644.818 455.045 645.25C455.141 645.17 455.237 645.082 455.333 644.986C458.869 641.946 462.717 640.426 466.877 640.426C466.973 640.426 467.077 640.426 467.189 640.426C471.685 640.506 474.957 641.706 477.005 644.026C479.069 646.33 480.101 649.434 480.101 653.338V668.89H467.717V654.634C467.717 652.25 467.357 650.642 466.637 649.81C465.933 648.978 464.813 648.562 463.277 648.562C461.565 648.562 460.117 649.106 458.933 650.194C458.021 651.042 457.461 652.226 457.253 653.746V668.89H444.869V654.634ZM517.994 660.634H518.714L525.146 640.618H538.106L527.258 668.89C524.698 675.146 522.09 678.562 519.434 679.138C516.778 679.73 510.938 680.026 501.914 680.026V670.762C509.226 670.762 513.226 670.658 513.914 670.45C514.602 670.242 515.186 669.722 515.666 668.89H511.802L500.906 640.618H513.89L518.882 656.482C518.994 656.818 518.994 657.162 518.882 657.514L517.994 660.634ZM557.127 669.13C551.351 669.13 546.455 667.946 542.439 665.578C538.439 663.21 536.439 659.53 536.439 654.538C536.439 649.578 538.439 645.97 542.439 643.714C546.455 641.442 551.351 640.306 557.127 640.306C562.919 640.306 567.807 641.442 571.791 643.714C575.791 645.97 577.791 649.578 577.791 654.538C577.791 659.53 575.791 663.21 571.791 665.578C567.807 667.946 562.919 669.13 557.127 669.13ZM557.151 661.162C559.503 661.162 561.471 660.762 563.055 659.962C564.639 659.162 565.431 657.386 565.431 654.634C565.431 651.914 564.639 650.17 563.055 649.402C561.471 648.634 559.503 648.25 557.151 648.25C554.799 648.25 552.823 648.634 551.223 649.402C549.623 650.17 548.823 651.914 548.823 654.634C548.823 657.386 549.623 659.162 551.223 659.962C552.823 660.762 554.799 661.162 557.151 661.162ZM591.644 653.938C591.644 656.93 592.076 658.85 592.94 659.698C593.82 660.546 595.188 660.97 597.044 660.97C599.14 660.97 601.012 660.314 602.66 659.002C603.956 657.962 604.748 656.522 605.036 654.682V640.618H617.444V668.89H605.324V666.418C605.324 666.274 605.372 666.17 605.468 666.106L607.868 663.922L607.436 663.418L606.692 664.018C606.644 664.082 606.596 664.138 606.548 664.186C603.476 667.482 598.892 669.13 592.796 669.13C588.268 669.13 584.876 667.938 582.62 665.554C580.38 663.154 579.26 659.562 579.26 654.778V640.618H591.644V653.938ZM644.26 654.922C644.26 652.074 643.836 650.306 642.988 649.618C642.14 648.914 640.572 648.562 638.284 648.562C636.236 648.562 634.54 649.082 633.196 650.122C632.172 650.922 631.54 651.978 631.3 653.29V668.89H618.892V640.618H631.3V642.778C631.3 642.906 631.252 643.01 631.156 643.09L628.756 645.274L629.188 645.754L629.428 645.538C629.924 645.01 630.492 644.474 631.132 643.93C633.964 641.562 637.812 640.378 642.676 640.378C647.46 640.378 650.988 641.33 653.26 643.234C655.532 645.122 656.668 649.018 656.668 654.922H644.26ZM677.533 629.554H689.941V668.89H677.533V629.554ZM732.616 659.218C732.168 662.002 731.072 664.13 729.328 665.602C727.6 667.058 725.528 668.026 723.112 668.506C720.696 669.002 717.096 669.25 712.312 669.25C704.104 669.25 698.568 668.074 695.704 665.722C692.84 663.354 691.408 659.754 691.408 654.922C691.408 650.09 692.816 646.45 695.632 644.002C698.464 641.554 703.896 640.33 711.928 640.33C720.008 640.33 725.44 641.61 728.224 644.17C731.008 646.714 732.4 650.298 732.4 654.922L732.304 657.706H703.408C703.728 659.114 704.336 660.082 705.232 660.61C706.624 661.41 708.984 661.81 712.312 661.81C714.168 661.81 715.48 661.77 716.248 661.69C717.032 661.594 717.792 661.37 718.528 661.018C719.28 660.65 719.888 660.05 720.352 659.218H732.616ZM720.184 651.466C720.088 650.25 719.424 649.322 718.192 648.682C716.976 648.026 714.904 647.698 711.976 647.698C708.744 647.698 706.464 648.146 705.136 649.042C704.416 649.522 703.888 650.33 703.552 651.466H720.184ZM753.292 661.954C750.876 661.954 748.556 661.762 746.332 661.378C746.188 661.554 746.116 661.714 746.116 661.858C746.116 662.418 747.156 662.778 749.236 662.938C752.004 663.146 754.98 663.25 758.164 663.25C763.684 663.25 767.276 663.866 768.94 665.098C770.62 666.314 771.46 668.322 771.46 671.122C771.46 675.09 770.004 677.762 767.092 679.138C764.196 680.514 758.332 681.202 749.5 681.202C741.5 681.202 736.9 680.426 735.7 678.874C734.516 677.338 733.924 676.058 733.924 675.034C733.924 673.85 734.428 672.634 735.436 671.386H744.988C744.828 671.706 744.748 671.97 744.748 672.178C744.748 672.498 744.988 672.714 745.468 672.826C745.964 672.938 747.324 672.994 749.548 672.994C752.252 672.994 754.524 672.978 756.364 672.946C758.22 672.914 759.148 672.522 759.148 671.77C759.148 671.242 758.324 670.938 756.676 670.858C755.044 670.778 750.78 670.738 743.884 670.738C739.324 670.738 736.492 669.402 735.388 666.73C735.116 666.074 734.98 665.402 734.98 664.714C734.98 662.81 736.06 660.826 738.22 658.762C735.868 657.322 734.692 655.306 734.692 652.714C734.692 647.754 736.484 644.466 740.068 642.85C743.668 641.234 747.764 640.426 752.356 640.426H772.468V648.802H762.028V649.522L764.02 649.546C764.036 649.546 764.044 649.546 764.044 649.546C766.876 649.546 768.292 651.61 768.292 655.738C768.292 659.882 763.292 661.954 753.292 661.954ZM752.548 648.802C750.932 648.802 749.588 648.922 748.516 649.162C747.444 649.386 746.908 650.13 746.908 651.394C746.908 652.578 747.428 653.298 748.468 653.554C749.508 653.81 750.94 653.938 752.764 653.938C752.876 653.938 752.988 653.938 753.1 653.938C756.3 653.938 757.9 653.146 757.9 651.562C757.9 651.482 757.9 651.402 757.9 651.322C757.788 650.09 756.924 649.25 755.308 648.802H752.548ZM804.242 663.682L803.666 663.298C802.226 665.074 801.122 666.234 800.354 666.778C799.586 667.322 798.658 667.786 797.57 668.17C796.482 668.538 795.266 668.818 793.922 669.01C792.578 669.218 791.146 669.322 789.626 669.322C788.33 669.322 786.946 669.242 785.474 669.082C784.018 668.938 782.61 668.682 781.25 668.314C779.89 667.93 778.658 667.394 777.554 666.706C776.45 666.018 775.57 665.154 774.914 664.114C774.274 663.074 773.954 661.77 773.954 660.202C773.954 658.682 774.282 657.434 774.938 656.458C775.61 655.466 776.482 654.626 777.554 653.938C778.626 653.234 779.914 652.706 781.418 652.354C782.938 651.986 784.482 651.73 786.05 651.586C787.634 651.426 789.138 651.346 790.562 651.346H801.434V651.058C801.434 650.146 801.09 649.434 800.402 648.922C799.73 648.41 798.754 648.098 797.474 647.986C796.194 647.858 794.818 647.794 793.346 647.794C792.002 647.794 790.778 647.818 789.674 647.866C788.57 647.914 787.578 648.138 786.698 648.538C785.818 648.922 785.33 649.65 785.234 650.722H774.05C774.242 647.922 775.146 645.81 776.762 644.386C778.394 642.962 780.21 642.002 782.21 641.506C784.226 641.01 786.106 640.698 787.85 640.57C789.594 640.426 791.634 640.354 793.97 640.354C799.186 640.354 802.954 640.754 805.274 641.554C807.594 642.338 809.594 643.594 811.274 645.322C812.97 647.05 813.818 649.354 813.818 652.234V668.89H801.866V667.714C801.866 667.314 801.938 666.906 802.082 666.49C802.242 666.058 802.458 665.69 802.73 665.386L804.242 663.682ZM792.002 662.122C792.834 662.122 793.754 662.058 794.762 661.93C795.786 661.786 796.786 661.57 797.762 661.282C798.754 660.994 799.57 660.626 800.21 660.178C800.866 659.714 801.266 659.17 801.41 658.546L801.842 657.898H791.618C790.85 657.898 790.146 657.93 789.506 657.994C788.866 658.042 788.314 658.138 787.85 658.282C787.402 658.426 787.05 658.642 786.794 658.93C786.554 659.202 786.434 659.562 786.434 660.01C786.434 660.49 786.594 660.874 786.914 661.162C787.25 661.434 787.69 661.642 788.234 661.786C788.778 661.93 789.378 662.026 790.034 662.074C790.706 662.106 791.362 662.122 792.002 662.122ZM835.554 669.25C828.45 669.25 823.298 668.186 820.098 666.058C816.898 663.93 815.298 660.194 815.298 654.85C815.298 649.506 816.898 645.762 820.098 643.618C823.298 641.458 828.45 640.378 835.554 640.378C842.722 640.378 847.586 641.394 850.146 643.426C852.706 645.458 854.266 648.698 854.826 653.146H843.138C842.882 651.338 842.21 650.122 841.122 649.498C840.05 648.874 838.194 648.562 835.554 648.562C833.186 648.562 831.234 648.946 829.698 649.714C828.162 650.482 827.394 652.194 827.394 654.85C827.394 657.49 828.162 659.194 829.698 659.962C831.234 660.73 833.186 661.114 835.554 661.114C838.194 661.114 840.05 660.802 841.122 660.178C842.21 659.554 842.882 658.354 843.138 656.578H854.826C854.266 661.106 852.706 664.354 850.146 666.322C847.586 668.274 842.722 669.25 835.554 669.25ZM870.448 660.634H871.168L877.6 640.618H890.56L879.712 668.89C877.152 675.146 874.544 678.562 871.888 679.138C869.232 679.73 863.392 680.026 854.368 680.026V670.762C861.68 670.762 865.68 670.658 866.368 670.45C867.056 670.242 867.64 669.722 868.12 668.89H864.256L853.36 640.618H866.344L871.336 656.482C871.448 656.818 871.448 657.162 871.336 657.514L870.448 660.634ZM903.219 661.018V668.89H891.963V661.018H903.219Z" fill="white"/>
<path d="M316.031 257.762H368.015C376.431 257.762 382.383 260.002 385.871 264.482C389.391 268.93 391.151 274.13 391.151 280.082C391.151 281.618 391.055 283.202 390.863 284.834C389.903 292.706 386.735 299.026 381.359 303.794C377.039 307.602 371.583 309.89 364.991 310.658L365.615 312.002L375.071 310.322L384.527 333.89H356.783L348.671 313.778L349.007 310.946H334.607L331.775 333.89H306.671L316.031 257.762ZM355.919 293.522C358.607 293.522 360.831 292.834 362.591 291.458C364.351 290.082 365.407 288.018 365.759 285.266C365.823 284.754 365.855 284.258 365.855 283.778C365.855 281.698 365.215 279.97 363.935 278.594C362.655 277.186 360.687 276.482 358.031 276.482H338.831L336.719 293.522H355.919ZM420.488 257.762H459.944L475.736 333.89H449.72L446.504 318.914H417.224L410.312 333.89H384.296L420.488 257.762ZM427.784 297.89H441.656L439.256 280.61C438.904 279.202 438.68 277.634 438.584 275.906C438.52 274.146 438.584 272.514 438.776 271.01L438.968 269.138H437.528L437.336 271.01C437.176 272.514 436.824 274.146 436.28 275.906C435.768 277.634 435.16 279.202 434.456 280.61L427.784 297.89ZM503.665 333.89H478.609L487.969 257.762H531.457L547.441 313.874H548.881L546.673 301.682C546.545 301.266 546.465 300.802 546.433 300.29C546.401 299.778 546.417 299.298 546.481 298.85L551.521 257.762H576.529L567.169 333.89H526.033L508.609 273.746H507.121L509.089 285.362C509.217 285.714 509.297 286.13 509.329 286.61C509.361 287.09 509.345 287.522 509.281 287.906L503.665 333.89ZM595.357 290.114L596.365 291.17L629.965 257.762H658.957L622.669 294.29L649.597 333.89H620.605L604.285 310.802L597.037 317.954L595.069 333.89H570.109L579.469 257.762H604.429L601.933 278.21C601.773 279.554 601.357 280.946 600.685 282.386C600.045 283.826 599.277 285.058 598.381 286.082L595.357 290.114ZM732.848 334.274C718.992 334.274 709.248 331.826 703.616 326.93C697.984 322.034 695.168 315.154 695.168 306.29C695.168 304.114 695.312 301.81 695.6 299.378L700.688 257.762H725.744L721.088 295.826C720.864 297.586 720.752 299.186 720.752 300.626C720.752 304.594 721.68 307.714 723.536 309.986C725.424 312.226 729.392 313.346 735.44 313.346C741.456 313.346 745.856 312.066 748.64 309.506C751.456 306.914 753.264 302.354 754.064 295.826L758.768 257.762H783.776L778.688 299.378C777.152 311.794 772.592 320.722 765.008 326.162C757.424 331.57 746.704 334.274 732.848 334.274ZM786.656 257.762H836.288C845.824 257.762 852.32 259.89 855.776 264.146C859.264 268.37 861.008 273.81 861.008 280.466C861.008 282.546 860.864 284.754 860.576 287.09C859.328 297.17 856.144 304.594 851.024 309.362C845.936 314.13 838.624 316.514 829.088 316.514H804.512L802.4 333.89H777.296L786.656 257.762ZM825.44 297.218C828.512 297.218 830.864 296.706 832.496 295.682C834.128 294.658 835.232 291.794 835.808 287.09C835.968 285.746 836.048 284.562 836.048 283.538C836.048 281.01 835.456 279.298 834.272 278.402C833.088 277.506 830.976 277.058 827.936 277.058H809.36L806.864 297.218H825.44ZM863.884 307.82L872.794 255.35H891.054L877.744 307.82H863.884ZM865.974 335.32C862.894 335.32 860.731 334.55 859.484 333.01C858.237 331.396 857.614 329.636 857.614 327.73C857.614 325.09 858.421 322.67 860.034 320.47C861.721 318.196 864.581 317.06 868.614 317.06C871.034 317.06 872.977 317.756 874.444 319.15C875.911 320.47 876.644 322.376 876.644 324.87C876.644 327.876 875.654 330.37 873.674 332.35C871.767 334.33 869.201 335.32 865.974 335.32Z" fill="white"/>
<path d="M292.036 354.612L877.654 361.441L877.592 343.688L292.036 354.612Z" fill="#FF1654"/>
<path d="M301.299 258.437L244.246 316.407L289.735 338.947L301.299 258.437Z" fill="#FF1654"/>
<path d="M314.093 242.64L344.59 220.298L351.898 242.734L314.093 242.64Z" fill="#FF1654"/>
<path d="M311.126 217.38L319.133 221.07L309.513 231.412L311.126 217.38Z" stroke="#FF1654"/>
<path d="M263.924 265.543L259.148 249.253L286.332 250.127L263.924 265.543Z" stroke="#FF1654"/>
<path d="M298.869 242.285L276.509 176.576L241.899 202.635L298.869 242.285Z" fill="#FF1654"/>
<circle cx="918" cy="849.906" r="31.0535" fill="#FF1654" fill-opacity="0.2" stroke="#FF1654"/>
<path d="M919.577 866.253V842.018C921.418 844.805 924.261 847.841 928.533 849.761L929.785 846.696C925.66 844.842 923.094 841.749 921.548 839.083C920.776 837.75 920.266 836.536 919.951 835.662C919.794 835.227 919.688 834.878 919.621 834.645C919.587 834.529 919.563 834.441 919.549 834.386C919.542 834.359 919.538 834.34 919.535 834.329C919.534 834.324 919.534 834.32 919.534 834.319V834.323C919.533 834.323 919.531 834.325 919.526 834.326L916.434 834.398L916.428 834.396V834.393C916.428 834.393 916.428 834.396 916.427 834.401C916.425 834.411 916.421 834.43 916.416 834.456C916.404 834.509 916.385 834.594 916.357 834.709C916.3 834.938 916.208 835.283 916.068 835.715C915.787 836.579 915.319 837.782 914.578 839.104C913.099 841.74 910.547 844.828 906.215 846.686L907.42 849.771C911.738 847.918 914.571 845.013 916.399 842.285V866.253H919.577Z" fill="white"/>
<circle cx="1001" cy="849.906" r="31.0535" fill="#FF1654" fill-opacity="0.2" stroke="#FF1654"/>
<path d="M1002.58 834.319V858.555C1004.42 855.767 1007.26 852.731 1011.53 850.811L1012.79 853.877C1008.66 855.731 1006.09 858.824 1004.55 861.49C1003.78 862.823 1003.27 864.037 1002.95 864.91C1002.79 865.346 1002.69 865.694 1002.62 865.928C1002.59 866.044 1002.56 866.132 1002.55 866.186C1002.54 866.214 1002.54 866.233 1002.54 866.243C1002.53 866.249 1002.53 866.252 1002.53 866.253V866.25C1002.53 866.25 1002.53 866.248 1002.53 866.247L999.434 866.175L999.428 866.177V866.18C999.428 866.179 999.428 866.177 999.427 866.172C999.425 866.162 999.421 866.143 999.416 866.116C999.404 866.063 999.385 865.978 999.357 865.864C999.3 865.635 999.208 865.289 999.068 864.858C998.787 863.994 998.319 862.79 997.578 861.469C996.099 858.832 993.547 855.745 989.215 853.886L990.42 850.802C994.738 852.655 997.571 855.559 999.399 858.288V834.319H1002.58Z" fill="white"/>
<defs>
<linearGradient id="paint0_linear_9_87" x1="543.818" y1="402.798" x2="650.606" y2="789.35" gradientUnits="userSpaceOnUse">
<stop stop-color="#0F0404"/>
<stop offset="1" stop-color="#FF1654"/>
</linearGradient>
<linearGradient id="paint1_linear_9_87" x1="543.818" y1="402.798" x2="650.606" y2="789.35" gradientUnits="userSpaceOnUse">
<stop stop-color="#FF1654"/>
<stop offset="1" stop-color="#0F0404"/>
</linearGradient>
</defs>
</svg>
