<svg preserveAspectRatio="none" width="100%" height="100%" overflow="visible" style="display: block;" viewBox="0 0 8.56088 12.4522" fill="none" xmlns="http://www.w3.org/2000/svg">
<path id="ARROW (Stroke)" d="M4.85319 0V9.45038C5.52184 8.36337 6.55448 7.17949 8.10594 6.4308L8.56088 7.62607C7.06231 8.34923 6.13041 9.55515 5.56914 10.5949C5.28864 11.1145 5.10333 11.5879 4.98905 11.9285C4.93207 12.0984 4.89323 12.2343 4.86898 12.3252C4.85686 12.3707 4.84812 12.4048 4.84305 12.4262C4.84052 12.4368 4.8389 12.4443 4.83797 12.4484C4.83751 12.4504 4.83741 12.4522 4.83741 12.4522V12.4509C4.83741 12.4509 4.83654 12.4502 4.83459 12.4496L3.71163 12.4217L3.70938 12.4223V12.4236C3.70938 12.4236 3.70916 12.4223 3.70881 12.4204C3.70812 12.4166 3.7069 12.4092 3.70487 12.3989C3.70078 12.3782 3.69361 12.345 3.68344 12.3005C3.66299 12.211 3.6295 12.0764 3.57859 11.9082C3.47657 11.5711 3.30657 11.1018 3.0374 10.5866C2.5003 9.55853 1.57345 8.35466 0 7.62988L0.437458 6.42699C2.006 7.14956 3.03475 8.28218 3.69867 9.34628V0H4.85319Z" fill="var(--fill-0, white)"/>
</svg>
