<svg preserveAspectRatio="none" width="100%" height="100%" overflow="visible" style="display: block;" viewBox="0 0 762.061 393.648" fill="none" xmlns="http://www.w3.org/2000/svg">
<path id="Star 1" d="M424.962 100.793L403.398 119.753L403.91 120.595L614.982 38.7227L532.977 142.139L532.311 142.979L533.383 142.949L758.495 136.603L569.181 196.347L567.669 196.824L569.181 197.301L758.495 257.045L533.383 250.698L532.311 250.668L532.977 251.509L614.949 354.883L441.483 284.637L419.009 272.957L417.726 272.29L418.322 273.606L425.259 288.907L380.979 392.492L323.283 284.567L323.072 284.173L322.656 284.34L147.098 354.893L223.812 257.812L254 250.885L253.853 249.899L213.11 252.765L3.47461 257.073L192.881 197.301L194.392 196.824L192.881 196.347L3.47266 136.573L214.06 140.926L240.697 157.331L241.35 156.592L187.506 89.7061L147.104 38.7568L322.656 109.309L323.072 109.476L323.283 109.08L380.987 1.14062L424.962 100.793Z" fill="url(#paint0_linear_3_43)" stroke="url(#paint1_linear_3_43)"/>
<defs>
<linearGradient id="paint0_linear_3_43" x1="381.03" y1="0" x2="381.03" y2="393.648" gradientUnits="userSpaceOnUse">
<stop stop-color="#0F0404"/>
<stop offset="1" stop-color="#990D32"/>
</linearGradient>
<linearGradient id="paint1_linear_3_43" x1="381.03" y1="0" x2="381.03" y2="393.648" gradientUnits="userSpaceOnUse">
<stop stop-color="#FF1654"/>
<stop offset="1" stop-color="#0F0404"/>
</linearGradient>
</defs>
</svg>
