<svg preserveAspectRatio="none" width="100%" height="100%" overflow="visible" style="display: block;" viewBox="0 0 63.1071 63.1071" fill="none" xmlns="http://www.w3.org/2000/svg">
<g id="BW ARROW">
<circle id="Ellipse 2" cx="31.5535" cy="31.5536" r="31.0535" fill="var(--fill-0, #FF1654)" fill-opacity="0.2" stroke="var(--stroke-0, #FF1654)"/>
<path id="ARROW (Stroke)" d="M33.2178 47.9004V23.6648C35.0706 26.4525 37.9321 29.4885 42.2312 31.4086L43.4918 28.3433C39.3393 26.4887 36.757 23.3961 35.2017 20.7298C34.4244 19.3973 33.9109 18.1832 33.5943 17.3097C33.4364 16.8741 33.3287 16.5254 33.2615 16.2923C33.228 16.1758 33.2038 16.0882 33.1897 16.0334C33.1827 16.0062 33.1782 15.987 33.1756 15.9765C33.1744 15.9712 33.1743 15.9676 33.1741 15.9667V15.97C33.1734 15.9702 33.1717 15.9718 33.1663 15.9732L30.0545 16.0448L30.0483 16.0432V16.04C30.0482 16.0405 30.0477 16.0432 30.0467 16.0481C30.0448 16.0579 30.0414 16.077 30.0358 16.1034C30.0245 16.1565 30.0046 16.2417 29.9764 16.3558C29.9198 16.5852 29.8269 16.9304 29.6859 17.3618C29.4032 18.2263 28.9321 19.4297 28.1863 20.751C26.6979 23.3875 24.1297 26.4748 19.7696 28.3335L20.9818 31.4183C25.3282 29.5653 28.1789 26.6607 30.0186 23.9318V47.9004H33.2178Z" fill="var(--fill-0, white)"/>
</g>
</svg>
