<svg preserveAspectRatio="none" width="100%" height="100%" overflow="visible" style="display: block;" viewBox="0 0 63.1071 63.1071" fill="none" xmlns="http://www.w3.org/2000/svg">
<g id="BW ARROW">
<circle id="Ellipse 2" cx="31.5535" cy="31.5536" r="31.0535" fill="var(--fill-0, #FF1654)" fill-opacity="0.2" stroke="var(--stroke-0, #FF1654)"/>
<path id="ARROW (Stroke)" d="M33.1311 47.9004V23.6648C34.972 26.4525 37.8152 29.4885 42.0867 31.4086L43.3392 28.3433C39.2133 26.4887 36.6476 23.3961 35.1023 20.7298C34.33 19.3973 33.8198 18.1832 33.5052 17.3097C33.3483 16.8741 33.2413 16.5254 33.1746 16.2923C33.1412 16.1758 33.1171 16.0882 33.1032 16.0334C33.0962 16.0062 33.0918 15.987 33.0892 15.9765C33.0879 15.9712 33.0879 15.9676 33.0877 15.9667V15.97C33.087 15.9702 33.0853 15.9718 33.0799 15.9732L29.9881 16.0448L29.9819 16.0432V16.04C29.9818 16.0405 29.9813 16.0432 29.9804 16.0481C29.9784 16.0579 29.9751 16.077 29.9695 16.1034C29.9582 16.1565 29.9385 16.2417 29.9105 16.3558C29.8542 16.5852 29.762 16.9304 29.6218 17.3618C29.341 18.2263 28.8729 19.4297 28.1318 20.751C26.653 23.3875 24.1012 26.4748 19.7691 28.3335L20.9736 31.4183C25.2921 29.5653 28.1245 26.6607 29.9524 23.9318V47.9004H33.1311Z" fill="var(--fill-0, white)"/>
</g>
</svg>
