<svg preserveAspectRatio="none" width="100%" height="100%" overflow="visible" style="display: block;" viewBox="0 0 63.1071 63.1071" fill="none" xmlns="http://www.w3.org/2000/svg">
<g id="FW ARROW">
<circle id="Ellipse 3" cx="31.5535" cy="31.5536" r="31.0535" fill="var(--fill-0, #FF1654)" fill-opacity="0.2" stroke="var(--stroke-0, #FF1654)"/>
<path id="ARROW (Stroke)" d="M33.1311 15.9667V40.2022C34.972 37.4146 37.8152 34.3785 42.0867 32.4585L43.3392 35.5238C39.2133 37.3783 36.6476 40.4709 35.1023 43.1373C34.33 44.4698 33.8198 45.6839 33.5052 46.5574C33.3483 46.993 33.2413 47.3417 33.1746 47.5748C33.1412 47.6913 33.1171 47.7788 33.1032 47.8336C33.0962 47.8608 33.0918 47.88 33.0892 47.8906C33.0879 47.8959 33.0879 47.8995 33.0877 47.9004V47.8971C33.087 47.8969 33.0853 47.8953 33.0799 47.8939L29.9881 47.8222L29.9819 47.8239V47.8271C29.9818 47.8266 29.9813 47.8238 29.9804 47.819C29.9784 47.8092 29.9751 47.7901 29.9695 47.7636C29.9582 47.7105 29.9385 47.6254 29.9105 47.5113C29.8542 47.2819 29.762 46.9367 29.6218 46.5053C29.341 45.6408 28.8729 44.4374 28.1318 43.1161C26.653 40.4796 24.1012 37.3923 19.7691 35.5335L20.9736 32.4487C25.2921 34.3018 28.1245 37.2064 29.9524 39.9353V15.9667H33.1311Z" fill="var(--fill-0, white)"/>
</g>
</svg>
