<svg preserveAspectRatio="none" width="100%" height="100%" overflow="visible" style="display: block;" viewBox="0 0 63.1071 63.1071" fill="none" xmlns="http://www.w3.org/2000/svg">
<g id="FW ARROW">
<circle id="Ellipse 3" cx="31.5535" cy="31.5536" r="31.0535" fill="var(--fill-0, #FF1654)" fill-opacity="0.2" stroke="var(--stroke-0, #FF1654)"/>
<path id="ARROW (Stroke)" d="M33.2178 15.9667V40.2022C35.0706 37.4146 37.9321 34.3785 42.2312 32.4585L43.4918 35.5238C39.3393 37.3783 36.757 40.4709 35.2017 43.1373C34.4244 44.4698 33.9109 45.6839 33.5943 46.5574C33.4364 46.993 33.3287 47.3417 33.2615 47.5748C33.228 47.6913 33.2038 47.7788 33.1897 47.8336C33.1827 47.8608 33.1782 47.88 33.1756 47.8906C33.1744 47.8959 33.1743 47.8995 33.1741 47.9004V47.8971C33.1734 47.8969 33.1717 47.8953 33.1663 47.8939L30.0545 47.8222L30.0483 47.8239V47.8271C30.0482 47.8266 30.0477 47.8238 30.0467 47.819C30.0448 47.8092 30.0414 47.7901 30.0358 47.7636C30.0245 47.7105 30.0046 47.6254 29.9764 47.5113C29.9198 47.2819 29.8269 46.9367 29.6859 46.5053C29.4032 45.6408 28.9321 44.4374 28.1863 43.1161C26.6979 40.4796 24.1297 37.3923 19.7696 35.5335L20.9818 32.4487C25.3282 34.3018 28.1789 37.2064 30.0186 39.9353V15.9667H33.2178Z" fill="var(--fill-0, white)"/>
</g>
</svg>
