<svg preserveAspectRatio="none" width="100%" height="100%" overflow="visible" style="display: block;" viewBox="0 0 2288.42 1373.5" fill="none" xmlns="http://www.w3.org/2000/svg">
<g id="Zaps">
<path id="LB ZAP" d="M317.78 1162.75L103.273 1322.33L8.98886 1220.33L138.149 1133.86L182.208 1161.81L104.995 1078.27L545.918 875.212L279.561 1100.15L244.428 1083.39L317.78 1162.75Z" fill="var(--fill-0, #FF1654)"/>
<path id="RB ZAP" d="M1970.64 1162.75L2185.15 1322.33L2279.43 1220.33L2150.27 1133.86L2106.21 1161.81L2183.43 1078.27L1742.5 875.212L2008.86 1100.15L2043.99 1083.39L1970.64 1162.75Z" fill="var(--fill-0, #FF1654)"/>
<path id="RT ZAP" d="M1973.05 196.038L2152.46 42.0506L2242.11 125.883L2133.48 210.131L2092.82 188.315L2166.23 256.969L1789.62 463.501L2010.72 248.726L2042.79 261.259L1973.05 196.038Z" fill="var(--fill-0, #FF1654)"/>
<path id="RL ZAP" d="M319.059 196.038L139.645 42.0506L50.002 125.883L158.634 210.131L199.29 188.315L125.877 256.969L502.494 463.501L281.39 248.726L249.317 261.259L319.059 196.038Z" fill="var(--fill-0, #FF1654)"/>
</g>
</svg>
