<svg preserveAspectRatio="none" width="100%" height="100%" overflow="visible" style="display: block;" viewBox="0 0 148.68 158" fill="none" xmlns="http://www.w3.org/2000/svg">
<g id="Ellipse 10">
<mask id="path-1-inside-1_84_433" fill="white">
<path d="M69.6795 0C83.6572 1.66682e-07 97.3847 3.70856 109.461 10.7472C121.537 17.7858 131.529 27.9025 138.418 40.0646C145.307 52.2268 148.846 65.999 148.674 79.9756C148.501 93.9523 144.623 107.633 137.436 119.621C130.249 131.609 120.009 141.476 107.763 148.214C95.5167 154.953 81.7019 158.321 67.7284 157.976C53.755 157.631 40.1233 153.584 28.2247 146.25C16.326 138.915 6.58647 128.554 -1.19496e-07 116.226L69.6795 79L69.6795 0Z"/>
</mask>
<path d="M69.6795 0C83.6572 1.66682e-07 97.3847 3.70856 109.461 10.7472C121.537 17.7858 131.529 27.9025 138.418 40.0646C145.307 52.2268 148.846 65.999 148.674 79.9756C148.501 93.9523 144.623 107.633 137.436 119.621C130.249 131.609 120.009 141.476 107.763 148.214C95.5167 154.953 81.7019 158.321 67.7284 157.976C53.755 157.631 40.1233 153.584 28.2247 146.25C16.326 138.915 6.58647 128.554 -1.19496e-07 116.226L69.6795 79L69.6795 0Z" stroke="var(--stroke-0, #FF1654)" stroke-width="44" stroke-linejoin="round" mask="url(#path-1-inside-1_84_433)"/>
</g>
</svg>
