<svg preserveAspectRatio="none" width="100%" height="100%" overflow="visible" style="display: block;" viewBox="0 0 16.3117 21.0712" fill="none" xmlns="http://www.w3.org/2000/svg">
<path id="ARROW (Stroke)" d="M9.24717 0V15.9916C10.5212 14.1522 12.4888 12.1489 15.4449 10.882L16.3117 12.9046C13.4564 14.1283 11.6807 16.1689 10.6113 17.9283C10.0769 18.8075 9.72377 19.6086 9.50603 20.185C9.39745 20.4724 9.32345 20.7025 9.27724 20.8563C9.25415 20.9332 9.2375 20.991 9.22783 21.0271C9.22303 21.0451 9.21993 21.0577 9.21817 21.0647C9.21729 21.0682 9.21724 21.0706 9.21709 21.0712V21.069C9.21661 21.0689 9.21544 21.0678 9.21172 21.0669L7.07206 21.0196L7.06776 21.0207V21.0228C7.06769 21.0225 7.06735 21.0207 7.06669 21.0175C7.06536 21.011 7.06305 20.9984 7.05917 20.9809C7.05138 20.9459 7.03773 20.8897 7.01835 20.8144C6.97938 20.6631 6.91556 20.4353 6.81856 20.1506C6.62419 19.5802 6.30026 18.7862 5.7874 17.9143C4.76401 16.1746 2.99803 14.1375 0 12.911L0.833523 10.8755C3.82219 12.0982 5.78235 14.0148 7.04735 15.8155V0H9.24717Z" fill="var(--fill-0, white)"/>
</svg>
