<svg preserveAspectRatio="none" width="100%" height="100%" overflow="visible" style="display: block;" viewBox="0 0 11 16" fill="none" xmlns="http://www.w3.org/2000/svg">
<path id="ARROW (Stroke)" d="M6.23594 0V12.1429C7.09509 10.7462 8.42195 9.22504 10.4154 8.26304L11 9.79885C9.07446 10.7281 7.87705 12.2776 7.15587 13.6135C6.79546 14.2811 6.55735 14.8895 6.41051 15.3271C6.33729 15.5454 6.28738 15.7201 6.25622 15.8369C6.24065 15.8953 6.22942 15.9391 6.2229 15.9666C6.21966 15.9802 6.21757 15.9898 6.21638 15.9951C6.21579 15.9978 6.21566 16 6.21566 16V15.9984C6.21566 15.9984 6.21455 15.9974 6.21204 15.9967L4.76913 15.9609L4.76623 15.9617V15.9633C4.76623 15.9633 4.76595 15.9617 4.76551 15.9592C4.76461 15.9543 4.76306 15.9448 4.76044 15.9315C4.75518 15.9049 4.74598 15.8622 4.73291 15.8051C4.70663 15.6901 4.66359 15.5172 4.59818 15.301C4.4671 14.8679 4.24866 14.2649 3.90281 13.6029C3.21267 12.2819 2.02175 10.735 0 9.80374L0.562097 8.25814C2.57754 9.18658 3.8994 10.6419 4.75247 12.0092V0H6.23594Z" fill="var(--fill-0, white)"/>
</svg>
