<svg preserveAspectRatio="none" width="100%" height="100%" overflow="visible" style="display: block;" viewBox="0 0 131.99 132.282" fill="none" xmlns="http://www.w3.org/2000/svg">
<g id="Star 3">
<mask id="path-1-inside-1_0_12" fill="white">
<path d="M65.9949 0L78.6982 35.4046L112.66 19.3723L96.6635 53.4097L131.99 66.1412L96.6635 78.8727L112.66 112.91L78.6982 96.8778L65.9949 132.282L53.2916 96.8778L19.3295 112.91L35.3263 78.8727L0 66.1412L35.3263 53.4097L19.3295 19.3723L53.2916 35.4046L65.9949 0Z"/>
</mask>
<path d="M65.9949 0L78.6982 35.4046L112.66 19.3723L96.6635 53.4097L131.99 66.1412L96.6635 78.8727L112.66 112.91L78.6982 96.8778L65.9949 132.282L53.2916 96.8778L19.3295 112.91L35.3263 78.8727L0 66.1412L35.3263 53.4097L19.3295 19.3723L53.2916 35.4046L65.9949 0Z" fill="url(#paint0_linear_0_12)"/>
<path d="M66.4655 -0.168862C66.1518 -0.0562872 65.838 0.0562872 65.5243 0.168862C68.9089 9.60204 72.2936 19.0352 75.6783 28.4684C76.5281 30.8368 77.3778 33.2051 78.2276 35.5735L78.4136 36.0919L78.9117 35.8568C90.2324 30.5127 101.553 25.1686 112.874 19.8245L112.208 19.1596C106.876 30.5054 101.543 41.8512 96.211 53.197L95.9774 53.6939L96.494 53.8801C108.269 58.1239 120.045 62.3678 131.82 66.6116V65.6708C120.045 69.9147 108.269 74.1585 96.494 78.4023L95.9774 78.5885L96.211 79.0854C101.543 90.4312 106.876 101.777 112.208 113.123L112.874 112.458C101.553 107.114 90.2324 101.77 78.9117 96.4256L78.4136 96.1905L78.2276 96.7089C78.224 96.719 78.2204 96.729 78.2168 96.7391C73.9859 108.531 69.7551 120.322 65.5243 132.114H66.4655C62.2311 120.312 57.9966 108.51 53.7622 96.7089L53.5762 96.1905L53.0781 96.4256C41.7574 101.77 30.4367 107.114 19.116 112.458L19.782 113.123C25.1143 101.777 30.4465 90.4312 35.7788 79.0854L36.0124 78.5885L35.4958 78.4023C23.7204 74.1585 11.945 69.9147 0.169525 65.6708V66.6116C11.945 62.3678 23.7204 58.1239 35.4958 53.8801L36.0124 53.6939L35.7788 53.197C30.4465 41.8512 25.1143 30.5054 19.782 19.1596L19.116 19.8245C30.4367 25.1686 41.7574 30.5127 53.0781 35.8568L53.5762 36.0919L53.7622 35.5735C54.612 33.2051 55.4617 30.8368 56.3115 28.4684C59.6962 19.0352 63.0809 9.60204 66.4655 0.168862C66.1518 0.0562872 65.838 -0.0562872 65.5243 -0.168862C62.1396 9.26432 58.7549 18.6975 55.3703 28.1307C54.5205 30.499 53.6707 32.8674 52.8209 35.2358L53.505 34.9525C42.1843 29.6084 30.8636 24.2643 19.5429 18.9202L18.2855 18.3266L18.8769 19.585C24.2092 30.9308 29.5415 42.2766 34.8738 53.6224L35.1568 52.9393C23.3813 57.1832 11.6059 61.427 -0.169525 65.6708L-1.47471 66.1412L-0.169525 66.6116C11.6059 70.8554 23.3813 75.0993 35.1568 79.3431L34.8738 78.66C29.5415 90.0058 24.2092 101.352 18.8769 112.697L18.2855 113.956L19.5429 113.362C30.8636 108.018 42.1843 102.674 53.505 97.3299L52.8209 97.0466C57.0554 108.848 61.2898 120.65 65.5243 132.451L65.9949 133.763L66.4655 132.451C70.6964 120.66 74.9272 108.868 79.158 97.0768C79.1616 97.0668 79.1653 97.0567 79.1689 97.0466L78.4848 97.3299C89.8055 102.674 101.126 108.018 112.447 113.362L113.704 113.956L113.113 112.697C107.781 101.352 102.448 90.0058 97.116 78.66L96.833 79.3431C108.608 75.0993 120.384 70.8554 132.159 66.6116L133.464 66.1412L132.159 65.6708C120.384 61.427 108.608 57.1832 96.833 52.9393L97.116 53.6224C102.448 42.2766 107.781 30.9308 113.113 19.585L113.704 18.3266L112.447 18.9202C101.126 24.2643 89.8055 29.6084 78.4848 34.9525L79.1689 35.2358C78.3191 32.8674 77.4693 30.499 76.6195 28.1307C73.2349 18.6975 69.8502 9.26432 66.4655 -0.168862ZM65.5243 0.168862L66.4655 -0.168862L65.9949 -1.4805L65.5243 -0.168862L66.4655 0.168862L65.5243 0.168862Z" fill="var(--stroke-0, #9C9C9C)" mask="url(#path-1-inside-1_0_12)"/>
</g>
<defs>
<linearGradient id="paint0_linear_0_12" x1="112.398" y1="114.28" x2="20.4391" y2="20.788" gradientUnits="userSpaceOnUse">
<stop stop-color="#9C9C9C"/>
<stop offset="1" stop-color="#0F0404"/>
</linearGradient>
</defs>
</svg>
