<svg preserveAspectRatio="none" width="100%" height="100%" overflow="visible" style="display: block;" viewBox="0 0 134.755 132.316" fill="none" xmlns="http://www.w3.org/2000/svg">
<g id="Star 3">
<mask id="path-1-inside-1_0_10" fill="white">
<path d="M67.3776 0L80.3471 35.4137L115.021 19.3773L98.6888 53.4234L134.755 66.1581L98.6888 78.8929L115.021 112.939L80.3471 96.9026L67.3776 132.316L54.4081 96.9026L19.7345 112.939L36.0665 78.8929L0 66.1581L36.0665 53.4234L19.7345 19.3773L54.4081 35.4137L67.3776 0Z"/>
</mask>
<path d="M67.3776 0L80.3471 35.4137L115.021 19.3773L98.6888 53.4234L134.755 66.1581L98.6888 78.8929L115.021 112.939L80.3471 96.9026L67.3776 132.316L54.4081 96.9026L19.7345 112.939L36.0665 78.8929L0 66.1581L36.0665 53.4234L19.7345 19.3773L54.4081 35.4137L67.3776 0Z" fill="var(--fill-0, #CD7F32)"/>
<path d="M67.3776 0L80.3471 35.4137L115.021 19.3773L98.6888 53.4234L134.755 66.1581L98.6888 78.8929L115.021 112.939L80.3471 96.9026L67.3776 132.316L54.4081 96.9026L19.7345 112.939L36.0665 78.8929L0 66.1581L36.0665 53.4234L19.7345 19.3773L54.4081 35.4137L67.3776 0Z" fill="url(#paint0_linear_0_10)"/>
<path d="M67.8471 -0.171946C67.5341 -0.0573153 67.2211 0.0573153 66.9081 0.171946C70.3912 9.6826 73.8743 19.1932 77.3573 28.7039C78.1974 30.9978 79.0375 33.2917 79.8776 35.5856L80.0643 36.0954L80.557 35.8675C92.1149 30.522 103.673 25.1766 115.231 19.8311L114.57 19.161C109.126 30.5097 103.682 41.8584 98.238 53.2071L97.997 53.7094L98.5223 53.8948C110.544 58.1398 122.567 62.3847 134.589 66.6296V65.6867C122.567 69.9316 110.544 74.1765 98.5223 78.4214L97.997 78.6069L98.238 79.1091C103.682 90.4578 109.126 101.807 114.57 113.155L115.231 112.485C103.754 107.177 92.2768 101.869 80.7999 96.5611C80.7189 96.5236 80.638 96.4862 80.557 96.4488L80.0643 96.2209L79.8776 96.7306C75.5545 108.535 71.2313 120.34 66.9081 132.144H67.8471C63.524 120.34 59.2008 108.535 54.8776 96.7306L54.6909 96.2209L54.1982 96.4488C42.6403 101.794 31.0825 107.14 19.5246 112.485L20.1853 113.155C25.6293 101.807 31.0733 90.4578 36.5173 79.1091L36.7582 78.6069L36.2329 78.4214C24.2108 74.1765 12.1886 69.9316 0.166473 65.6867V66.6296C12.1886 62.3847 24.2108 58.1398 36.2329 53.8948L36.7582 53.7094L36.5173 53.2071C31.0733 41.8584 25.6293 30.5097 20.1853 19.161L19.5246 19.8311C31.0825 25.1766 42.6403 30.522 54.1982 35.8675L54.6909 36.0954L54.8776 35.5856C55.7177 33.2917 56.5578 30.9978 57.3979 28.7039C60.881 19.1932 64.3641 9.6826 67.8471 0.171946C67.5341 0.0573153 67.2211 -0.0573153 66.9081 -0.171946C63.4251 9.3387 59.942 18.8494 56.4589 28.36C55.6188 30.6539 54.7787 32.9478 53.9386 35.2417L54.618 34.9599C43.0601 29.6144 31.5022 24.2689 19.9443 18.9235L18.6822 18.3397L19.2836 19.5935C24.7276 30.9422 30.1717 42.2909 35.6157 53.6396L35.9 52.9519C23.8778 57.1968 11.8557 61.4417 -0.166473 65.6867L-1.50174 66.1581L-0.166473 66.6296C11.8557 70.8745 23.8778 75.1194 35.9 79.3644L35.6157 78.6766C30.1717 90.0253 24.7276 101.374 19.2836 112.723L18.6822 113.977L19.9443 113.393C31.5022 108.047 43.0601 102.702 54.618 97.3564L53.9386 97.0745C58.2618 108.879 62.585 120.684 66.9081 132.488L67.3776 133.77L67.8471 132.488C72.1703 120.684 76.4935 108.879 80.8166 97.0745L80.1373 97.3564C80.2182 97.3938 80.2992 97.4313 80.3801 97.4687C91.857 102.777 103.334 108.085 114.811 113.393L116.073 113.977L115.472 112.723C110.028 101.374 104.584 90.0253 99.1396 78.6766L98.8553 79.3644C110.877 75.1194 122.9 70.8745 134.922 66.6296L136.257 66.1581L134.922 65.6867C122.9 61.4417 110.877 57.1968 98.8553 52.9519L99.1396 53.6396C104.584 42.2909 110.028 30.9422 115.472 19.5935L116.073 18.3397L114.811 18.9235C103.253 24.2689 91.6951 29.6144 80.1373 34.9599L80.8166 35.2417C79.9765 32.9478 79.1364 30.6539 78.2963 28.36C74.8133 18.8494 71.3302 9.3387 67.8471 -0.171946ZM66.9081 0.171946L67.8471 -0.171946L67.3776 -1.45394L66.9081 -0.171946L67.8471 0.171946H66.9081Z" fill="var(--stroke-0, #FF1654)" mask="url(#path-1-inside-1_0_10)"/>
</g>
<defs>
<linearGradient id="paint0_linear_0_10" x1="114.753" y1="114.309" x2="22.8209" y2="18.9106" gradientUnits="userSpaceOnUse">
<stop stop-color="#CD7F32"/>
<stop offset="1" stop-color="#0F0404"/>
</linearGradient>
</defs>
</svg>
