<svg preserveAspectRatio="none" width="100%" height="100%" overflow="visible" style="display: block;" viewBox="0 0 26 17" fill="none" xmlns="http://www.w3.org/2000/svg">
<g id="invites icon">
<path id="Vector 52" d="M26 17H0V0H26V17Z" fill="var(--fill-0, white)"/>
<mask id="mask0_0_15" style="mask-type:alpha" maskUnits="userSpaceOnUse" x="0" y="0" width="26" height="17">
<rect id="mask" width="26" height="17" fill="var(--fill-0, #D9D9D9)"/>
</mask>
<g mask="url(#mask0_0_15)">
<path id="Vector 53" d="M0.250714 -0.278869C0.0835712 -0.0929562 -0.0835712 0.0929562 -0.250714 0.278869C0.154763 0.699437 0.561632 1.11846 0.969894 1.53593C4.64425 5.29316 8.43143 8.9249 12.3314 12.4311L13 13.0322L13.6686 12.4311C17.5686 8.9249 21.3557 5.29316 25.0301 1.53593C25.4384 1.11846 25.8452 0.699438 26.2507 0.278869C26.0836 0.0929562 25.9164 -0.0929562 25.7493 -0.278869C25.2881 0.07973 24.8283 0.439877 24.3699 0.801573C20.2443 4.05684 16.2314 7.4376 12.3314 10.9439C12.3314 10.9439 12.3314 10.9439 12.3314 10.9439H13.6686C9.76857 7.4376 5.75575 4.05684 1.63011 0.801573C1.1717 0.439877 0.711904 0.0797293 0.250714 -0.278869Z" fill="var(--stroke-0, #625AFA)"/>
</g>
</g>
</svg>
