<svg preserveAspectRatio="none" width="100%" height="100%" overflow="visible" style="display: block;" viewBox="0 0 14 19" fill="none" xmlns="http://www.w3.org/2000/svg">
<path id="ARROW (Stroke)" opacity="0.7" d="M7.93665 0V14.4197C9.03012 12.7611 10.7188 10.9547 13.256 9.81236L14 11.6361C11.5493 12.7396 10.0253 14.5796 9.10747 16.166C8.64876 16.9589 8.34571 17.6812 8.15883 18.2009C8.06564 18.4601 8.00212 18.6676 7.96246 18.8063C7.94265 18.8756 7.92836 18.9277 7.92006 18.9603C7.91593 18.9765 7.91327 18.9879 7.91176 18.9942C7.91101 18.9973 7.91084 19 7.91084 19V18.9981C7.91084 18.9981 7.90942 18.997 7.90623 18.9961L6.0698 18.9535L6.06611 18.9545V18.9564C6.06611 18.9564 6.06576 18.9545 6.06519 18.9516C6.06405 18.9458 6.06207 18.9344 6.05874 18.9186C6.05205 18.8871 6.04034 18.8364 6.02371 18.7685C5.99026 18.632 5.93548 18.4266 5.85223 18.17C5.6854 17.6556 5.40738 16.9396 4.96721 16.1534C4.08885 14.5848 2.57314 12.7479 0 11.6419L0.715396 9.80655C3.28051 10.9091 4.96287 12.6373 6.0486 14.2609V0H7.93665Z" fill="var(--fill-0, white)"/>
</svg>
