<svg preserveAspectRatio="none" width="100%" height="100%" overflow="visible" style="display: block;" viewBox="0 0 53 53" fill="none" xmlns="http://www.w3.org/2000/svg">
<g id="send button">
<rect id="Rectangle 55" width="53" height="53" rx="10" fill="var(--fill-0, #1C1C1C)"/>
<path id="Vector 36" d="M23 29H19C17.8954 29 17 29.8954 17 31V36C17 37.1046 17.8954 38 19 38H35C36.1046 38 37 37.1046 37 36V31C37 29.8954 36.1046 29 35 29H31" stroke="var(--stroke-0, #9C9C9C)" stroke-width="2"/>
<path id="ARROW (Stroke)" d="M26.0633 34V19.5803C24.9699 21.2389 23.2812 23.0453 20.744 24.1876L20 22.3639C22.4507 21.2604 23.9747 19.4204 24.8925 17.834C25.3512 17.0411 25.6543 16.3188 25.8412 15.7991C25.9344 15.5399 25.9979 15.3324 26.0375 15.1937C26.0574 15.1244 26.0716 15.0723 26.0799 15.0397C26.0841 15.0235 26.0867 15.0121 26.0882 15.0058C26.089 15.0027 26.0892 15 26.0892 15V15.0019C26.0892 15.0019 26.0906 15.003 26.0938 15.0039L27.9302 15.0465L27.9339 15.0455V15.0436C27.9339 15.0436 27.9342 15.0455 27.9348 15.0484C27.9359 15.0542 27.9379 15.0656 27.9413 15.0814C27.9479 15.1129 27.9597 15.1636 27.9763 15.2315C28.0097 15.368 28.0645 15.5734 28.1478 15.83C28.3146 16.3444 28.5926 17.0604 29.0328 17.8466C29.9111 19.4152 31.4269 21.2521 34 22.3581L33.2846 24.1935C30.7195 23.0909 29.0371 21.3627 27.9514 19.7391V34H26.0633Z" fill="var(--fill-0, #9C9C9C)"/>
</g>
</svg>
