<svg preserveAspectRatio="none" width="100%" height="100%" overflow="visible" style="display: block;" viewBox="0 0 15.6529 21.0712" fill="none" xmlns="http://www.w3.org/2000/svg">
<path id="ARROW (Stroke)" d="M8.87367 0V15.9916C10.0962 14.1522 11.9843 12.1489 14.8211 10.882L15.6529 12.9046C12.9129 14.1283 11.2089 16.1689 10.1827 17.9283C9.66985 18.8075 9.33102 19.6086 9.12208 20.185C9.01788 20.4724 8.94687 20.7025 8.90253 20.8563C8.88037 20.9332 8.8644 20.991 8.85512 21.0271C8.8505 21.0451 8.84753 21.0577 8.84584 21.0647C8.84499 21.0682 8.84495 21.0706 8.84481 21.0712V21.069C8.84435 21.0689 8.84322 21.0678 8.83965 21.0669L6.78641 21.0196L6.78229 21.0207V21.0228C6.78223 21.0225 6.78189 21.0207 6.78126 21.0175C6.77999 21.011 6.77777 20.9984 6.77404 20.9809C6.76657 20.9459 6.75347 20.8897 6.73488 20.8145C6.69748 20.6631 6.63624 20.4353 6.54316 20.1506C6.35663 19.5802 6.04579 18.7862 5.55364 17.9143C4.57159 16.1746 2.87693 14.1375 0 12.911L0.799857 10.8755C3.66781 12.0983 5.54879 14.0148 6.76271 15.8155V0H8.87367Z" fill="var(--fill-0, white)"/>
</svg>
