<svg preserveAspectRatio="none" width="100%" height="100%" overflow="visible" style="display: block;" viewBox="0 0 19 27" fill="none" xmlns="http://www.w3.org/2000/svg">
<path id="ARROW (Stroke)" d="M10.7712 0V20.4912C12.2552 18.1343 14.547 15.5673 17.9903 13.9439L19 16.5356C15.6741 18.1036 13.6058 20.7184 12.3601 22.9728C11.7376 24.0994 11.3263 25.126 11.0727 25.8645C10.9462 26.2328 10.86 26.5276 10.8062 26.7247C10.7793 26.8232 10.7599 26.8973 10.7486 26.9436C10.7431 26.9666 10.7394 26.9828 10.7374 26.9917C10.7364 26.9962 10.7361 27 10.7361 27V26.9972C10.7361 26.9972 10.7342 26.9957 10.7299 26.9945L8.23759 26.9339L8.23258 26.9353V26.9381C8.23258 26.9381 8.2321 26.9353 8.23133 26.9312C8.22979 26.9229 8.2271 26.9068 8.22257 26.8844C8.2135 26.8395 8.1976 26.7675 8.17503 26.6711C8.12964 26.4771 8.0553 26.1852 7.94232 25.8205C7.7159 25.0895 7.33859 24.0721 6.74121 22.9549C5.54915 20.7257 3.49212 18.1154 0 16.5438L0.970894 13.9356C4.45211 15.5024 6.73532 17.9582 8.20881 20.2655V0H10.7712Z" fill="var(--fill-0, white)"/>
</svg>
