<svg preserveAspectRatio="none" width="100%" height="100%" overflow="visible" style="display: block;" viewBox="0 0 155.401 155.401" fill="none" xmlns="http://www.w3.org/2000/svg">
<g id="Star 2">
<mask id="path-1-inside-1_0_34" fill="white">
<path d="M77.7006 0L92.6571 41.5922L132.643 22.758L113.809 62.744L155.401 77.7006L113.809 92.6571L132.643 132.643L92.6571 113.809L77.7006 155.401L62.744 113.809L22.758 132.643L41.5922 92.6571L0 77.7006L41.5922 62.744L22.758 22.758L62.744 41.5922L77.7006 0Z"/>
</mask>
<path d="M77.7006 0L92.6571 41.5922L132.643 22.758L113.809 62.744L155.401 77.7006L113.809 92.6571L132.643 132.643L92.6571 113.809L77.7006 155.401L62.744 113.809L22.758 132.643L41.5922 92.6571L0 77.7006L41.5922 62.744L22.758 22.758L62.744 41.5922L77.7006 0Z" fill="var(--fill-0, #D4AF37)"/>
<path d="M77.7006 0L92.6571 41.5922L132.643 22.758L113.809 62.744L155.401 77.7006L113.809 92.6571L132.643 132.643L92.6571 113.809L77.7006 155.401L62.744 113.809L22.758 132.643L41.5922 92.6571L0 77.7006L41.5922 62.744L22.758 22.758L62.744 41.5922L77.7006 0Z" fill="url(#paint0_linear_0_34)"/>
<path d="M78.1711 -0.169193C77.8574 -0.0563977 77.5437 0.0563977 77.23 0.169193C81.2185 11.2605 85.2069 22.3517 89.1953 33.443C90.1924 36.2158 91.1895 38.9886 92.1866 41.7614L92.3727 42.2789L92.8702 42.0446C106.199 35.7665 119.528 29.4884 132.856 23.2103L132.191 22.5449C125.913 35.8736 119.635 49.2023 113.357 62.5309L113.122 63.0284L113.64 63.2145C127.504 68.2 141.368 73.1855 155.232 78.1711V77.23C141.368 82.2156 127.504 87.2011 113.64 92.1866L113.122 92.3727L113.357 92.8702C119.635 106.199 125.913 119.528 132.191 132.856L132.856 132.191C119.528 125.913 106.199 119.635 92.8702 113.357C92.8702 113.357 92.8702 113.357 92.8702 113.357L92.3727 113.122L92.1866 113.64C87.2011 127.504 82.2156 141.368 77.23 155.232H78.1711C73.1855 141.368 68.2 127.504 63.2145 113.64L63.0284 113.122L62.5309 113.357C49.2023 119.635 35.8736 125.913 22.5449 132.191L23.2103 132.856C29.4884 119.528 35.7665 106.199 42.0446 92.8702L42.2789 92.3727L41.7614 92.1866C27.8973 87.2011 14.0333 82.2156 0.169193 77.23L0.169193 78.1711C14.0333 73.1855 27.8973 68.2 41.7614 63.2145L42.2789 63.0284L42.0446 62.5309C35.7665 49.2023 29.4884 35.8736 23.2103 22.5449L22.5449 23.2103C35.8736 29.4884 49.2023 35.7665 62.5309 42.0446L63.0284 42.2789L63.2145 41.7614C64.2116 38.9886 65.2087 36.2158 66.2058 33.443C70.1942 22.3517 74.1826 11.2604 78.1711 0.169193C77.8574 0.0563977 77.5437 -0.0563977 77.23 -0.169193C73.2416 10.9221 69.2532 22.0133 65.2648 33.1046C64.2677 35.8774 63.2706 38.6502 62.2735 41.423L62.9571 41.1399C49.6284 34.8618 36.2997 28.5837 22.971 22.3056L21.7131 21.7131L22.3056 22.971C28.5837 36.2997 34.8618 49.6284 41.1399 62.9571L41.423 62.2735C27.559 67.259 13.6949 72.2445 -0.169193 77.23L-1.4776 77.7006L-0.169193 78.1711C13.6949 83.1566 27.559 88.1421 41.423 93.1276L41.1399 92.4441C34.8618 105.773 28.5837 119.101 22.3056 132.43L21.7131 133.688L22.971 133.095C36.2997 126.817 49.6284 120.539 62.9571 114.261L62.2735 113.978C67.259 127.842 72.2445 141.706 77.23 155.57L77.7006 156.879L78.1711 155.57C83.1566 141.706 88.1421 127.842 93.1276 113.978L92.4441 114.261C92.4441 114.261 92.4441 114.261 92.4441 114.261C105.773 120.539 119.101 126.817 132.43 133.095L133.688 133.688L133.095 132.43C126.817 119.101 120.539 105.773 114.261 92.4441L113.978 93.1276C127.842 88.1421 141.706 83.1566 155.57 78.1711L156.879 77.7006L155.57 77.23C141.706 72.2445 127.842 67.259 113.978 62.2735L114.261 62.9571C120.539 49.6284 126.817 36.2997 133.095 22.971L133.688 21.7131L132.43 22.3056C119.101 28.5837 105.773 34.8618 92.4441 41.1399L93.1276 41.423C92.1305 38.6502 91.1334 35.8774 90.1363 33.1046C86.1479 22.0133 82.1595 10.9221 78.1711 -0.169193ZM77.23 0.169193L78.1711 -0.169193L77.7006 -1.4776L77.23 -0.169193L78.1711 0.169193L77.23 0.169193Z" fill="var(--stroke-0, #FF1654)" mask="url(#path-1-inside-1_0_34)"/>
</g>
<defs>
<linearGradient id="paint0_linear_0_34" x1="132.335" y1="134.252" x2="24.3081" y2="24.1818" gradientUnits="userSpaceOnUse">
<stop stop-color="#D4AF37"/>
<stop offset="1" stop-color="#0F0404"/>
</linearGradient>
</defs>
</svg>
