<svg preserveAspectRatio="none" width="100%" height="100%" overflow="visible" style="display: block;" viewBox="0 0 185.305 215.327" fill="none" xmlns="http://www.w3.org/2000/svg">
<g id="logo">
<path id="Vector" d="M168.508 0H16.797C4.56879 0 0 4.57132 0 16.8736V165.374C0 166.786 0.0671881 168.063 0.201564 169.273C0.470317 171.962 0.537505 174.584 3.02346 177.542C3.29222 177.811 5.84536 179.761 5.84536 179.761C7.18912 180.433 8.12976 180.903 9.67508 181.576L84.321 212.903C88.218 214.65 89.8305 215.39 92.6524 215.323C95.4743 215.39 97.0868 214.718 100.984 212.903L175.63 181.576C177.175 180.971 178.116 180.433 179.459 179.761C179.459 179.761 182.013 177.878 182.281 177.542C184.767 174.584 184.834 171.962 185.103 169.273C185.238 168.063 185.305 166.786 185.305 165.374V16.8736C185.305 4.57132 180.803 0 168.508 0Z" fill="var(--fill-0, white)"/>
<path id="Vector_2" d="M158.295 149.308L158.228 149.644L158.161 150.047L158.094 150.383L157.96 150.72L157.892 151.056L157.758 151.392L157.624 151.728L157.489 151.997L157.355 152.333L157.153 152.602L156.952 152.871L156.75 153.14L156.549 153.409L156.347 153.677L156.078 153.946L155.877 154.148L155.608 154.417L155.339 154.619L155.07 154.82L154.802 154.955L154.533 155.156L154.197 155.358L153.861 155.492L153.525 155.694L153.189 155.829L152.853 155.963L152.517 156.098V156.03L152.181 156.165L151.845 156.232L151.241 156.366L150.905 156.434L150.569 156.501L150.233 156.568L149.897 156.635L149.494 156.703L149.158 156.77H147.814L147.478 156.703H147.075L146.739 156.635L146.403 156.568L146 156.501L145.664 156.434L145.328 156.366L144.992 156.299L144.656 156.232L144.32 156.165L143.984 156.098L143.648 155.963L143.313 155.896L142.977 155.761L142.641 155.627L142.305 155.492L141.969 155.358L141.633 155.224L141.297 155.089L140.961 154.955L140.625 154.82L140.289 154.686L139.953 154.551L139.617 154.35L139.348 154.148L139.013 153.946L138.744 153.745L138.475 153.543L138.206 153.341L137.937 153.14L137.669 152.938L137.4 152.736L137.131 152.535L136.862 152.266L137.064 151.997L137.333 151.728L137.534 151.459L137.803 151.19L138.005 150.921L138.206 150.652L138.475 150.383L138.677 150.114L138.945 149.846L139.147 149.577L139.416 149.308L139.617 149.039L139.819 148.77L140.088 148.501L140.289 148.232L140.558 147.963L140.759 147.694L141.028 147.896L141.364 148.098L141.633 148.299L141.969 148.501L142.238 148.703L142.573 148.904L142.842 149.106L143.178 149.241L143.447 149.442L143.783 149.577L144.119 149.711L144.455 149.846L144.791 149.98L145.127 150.114L145.463 150.249L145.799 150.383L146.134 150.518L146.47 150.585L147.142 150.72L147.545 150.787L147.881 150.854H148.217L148.62 150.921H149.359L149.763 150.854L150.099 150.787L150.434 150.72L150.77 150.652L151.039 150.518L151.308 150.383L151.577 150.182L151.778 149.913L151.913 149.644L152.047 149.308L152.114 148.972V148.904L152.047 148.501L151.913 148.165L151.711 147.896L151.442 147.694L151.174 147.493L150.905 147.358L150.569 147.224L150.233 147.089L149.83 146.888L149.561 146.82L149.292 146.753L148.956 146.619L148.62 146.552L148.284 146.417L147.949 146.35L147.545 146.215L147.209 146.148L146.806 146.014L146.47 145.947L146.134 145.812L145.799 145.745L145.463 145.61L145.127 145.476L144.791 145.409L144.455 145.274L144.119 145.14L143.783 145.005L143.38 144.871L143.044 144.736L142.708 144.602L142.372 144.468L142.036 144.266L141.7 144.064L141.431 143.863L141.095 143.661L140.827 143.459L140.558 143.257L140.289 143.056L140.02 142.787L139.752 142.518L139.55 142.249L139.348 141.98L139.147 141.711L138.945 141.442L138.744 141.106L138.609 140.837L138.475 140.568L138.408 140.232L138.273 139.963L138.206 139.627L138.139 139.291L138.072 138.955L138.005 138.619L137.937 138.216V137.409L138.005 137.073L138.072 136.737L138.139 136.401L138.206 136.064L138.273 135.728L138.408 135.392L138.475 135.056L138.609 134.72L138.744 134.384L138.878 134.048L139.08 133.711L139.281 133.375L139.483 133.106L139.684 132.838L139.953 132.569L140.222 132.3L140.491 132.031L140.759 131.762L141.028 131.56L141.297 131.359L141.566 131.157L141.834 130.955L142.17 130.754L142.506 130.619L142.842 130.417L143.178 130.283L143.514 130.149L143.85 130.014L144.186 129.88L144.455 129.812L144.791 129.745L145.127 129.678L145.463 129.611L145.799 129.544L146.134 129.476L146.47 129.409L146.806 129.342L147.142 129.275H148.62L149.024 129.342L149.427 129.409H149.763L150.166 129.476L150.502 129.544L150.905 129.611L151.241 129.678L151.577 129.745L151.913 129.812L152.249 129.88L152.585 129.947L152.92 130.081L153.256 130.216L153.592 130.283L153.928 130.417L154.264 130.552L154.6 130.686L154.936 130.821L155.272 130.955L155.608 131.157L155.877 131.291L156.213 131.493L156.549 131.695L156.817 131.896L157.153 132.098L157.422 132.3L157.691 132.501L157.96 132.703L158.228 132.905L158.027 133.174L157.825 133.443L157.624 133.711L157.422 133.98L157.22 134.317L157.019 134.585L156.817 134.854L156.616 135.123L156.414 135.392L156.213 135.661L156.011 135.93L155.81 136.199L155.608 136.535L155.406 136.804L155.205 137.073L154.533 138.552L154.331 138.821L154.063 138.619L153.727 138.417L153.458 138.216L153.189 138.014L152.853 137.879L152.585 137.678L152.249 137.543L151.98 137.409L151.644 137.274L151.375 137.14L151.039 137.006L150.77 136.871L150.367 136.737L150.031 136.602L149.695 136.468L149.359 136.401L149.158 136.535L148.822 136.468L148.486 136.401L148.15 136.333L147.814 136.266H147.075L146.672 136.333L146.336 136.401L146 136.468L145.731 136.602L145.463 136.737L145.127 137.006L144.925 137.342L144.791 137.678L144.723 138.014V138.081L144.791 138.552L144.925 138.955L145.059 139.157L145.328 139.426L145.664 139.627L145.933 139.829L146.269 139.963L146.672 140.098L147.075 140.232L147.344 140.3L147.613 140.434L147.949 140.501L148.284 140.636L148.62 140.703L149.024 140.837L149.427 140.972L149.83 141.106L150.233 141.174L150.569 141.308L150.972 141.442L151.308 141.51L151.644 141.644L151.98 141.779L152.316 141.913L152.652 142.047L152.988 142.182L153.324 142.249L153.727 142.384L154.063 142.585L154.399 142.72L154.735 142.921L155.07 143.123L155.406 143.325L155.675 143.526L155.944 143.728L156.213 143.93L156.481 144.199L156.75 144.468L157.019 144.736L157.288 145.005L157.489 145.274L157.691 145.61L157.892 145.879L158.094 146.215L158.228 146.484L158.363 146.82L158.43 147.157L158.497 147.493L158.631 148.165L158.699 148.501L158.766 148.904V149.711L158.295 149.308ZM134.444 156.165H114.892V131.224H134.578V136.871H121.409V140.972H133.234V146.283H121.409V150.518H134.78V156.165H134.444ZM109.517 156.165H103.268V141.442L103.067 141.711L102.865 142.047L102.664 142.316L102.462 142.585L102.261 142.921L102.059 143.19L101.857 143.459L101.656 143.795L101.454 144.064L101.253 144.333L101.051 144.602L100.85 144.938L100.648 145.207L100.447 145.476L100.245 145.812L100.043 146.081L99.8419 146.35L99.6403 146.686L99.5059 146.955L99.3043 147.224L99.1028 147.56L98.9012 147.829L98.6996 148.098L98.4981 148.434L98.2965 148.703L98.1622 148.972L97.9606 149.241L97.759 149.577L97.5575 149.846L97.3559 150.114L97.2215 150.451L97.0199 150.72L96.8184 150.988L96.6168 151.325L96.4153 151.593H96.2809L96.0793 151.257L95.8778 150.988L95.6762 150.652L95.4746 150.383L95.2731 150.047L95.0715 149.778L94.8699 149.442L94.6684 149.173L94.4668 148.837L94.3324 148.568L94.1309 148.232L93.9293 147.963L93.7277 147.627L94.0637 147.291L93.8621 146.955L93.6605 146.686L93.459 146.35L93.2574 146.081L93.0559 145.745L92.8543 145.476L92.7199 145.274L92.5183 145.005L92.3168 144.669L92.1152 144.4L91.9137 144.064L91.7121 143.795L91.5105 143.459L91.3762 143.257L91.1746 142.921L90.973 142.652L90.7715 142.316L90.5699 142.047L90.3683 141.711L90.1668 141.442V156.098H83.7167V131.157H90.7043L90.9058 131.426L91.1074 131.762L91.309 132.031L91.5105 132.367L91.7121 132.636L91.9137 132.972L92.1152 133.241L92.3168 133.577L92.5183 133.846L92.7199 134.115L92.9215 134.451L93.123 134.72L93.3246 135.056L93.5262 135.325L93.7277 135.661L93.9293 135.93L94.1309 136.199L94.3324 136.535L94.534 136.804L94.7356 137.14L94.9371 137.409L95.1387 137.745L95.3402 138.014L95.4746 138.35L95.6762 138.619L95.8106 138.888L96.0121 139.224L96.2137 139.493L96.4153 139.829L96.6168 140.098L96.7512 140.434L96.9528 140.703L97.1543 141.039L97.3559 141.308L97.5575 141.039L97.759 140.703L97.9606 140.434L98.1622 140.098L98.3637 139.829L98.5653 139.493L98.7668 139.224L98.9684 138.888L99.17 138.619L99.3043 138.35L99.5059 138.014L99.7075 137.745L99.909 137.409L100.111 137.14L100.312 136.804L100.514 136.535L100.715 136.199L100.917 135.93L101.118 135.661L101.32 135.325L101.522 135.056L101.723 134.72L101.925 134.451L102.126 134.115L102.261 133.846L102.462 133.577L102.664 133.241L102.865 132.972L103.067 132.636L103.268 132.367L103.47 132.031L103.672 131.762L103.873 131.426L104.075 131.157H111.062V156.098L109.517 156.165ZM70.0103 145.879L69.876 145.543L69.7416 145.207L69.6072 144.871L69.4728 144.535L69.3385 144.199L69.2041 143.863L69.0697 143.526L68.9353 143.19L68.801 142.854L68.6666 142.518L68.5322 142.182L68.3978 141.846L68.2634 141.51L68.1291 141.174L67.9947 140.837L67.8603 140.501L67.7259 140.165L67.5916 139.829L67.4572 139.493L67.3228 139.157L67.1884 138.821L67.0541 138.484L66.9197 138.821L66.7853 139.157L66.6509 139.493L66.5166 139.829L66.3822 140.165L66.2478 140.501L66.1134 140.837L65.9791 141.174L65.8447 141.51L65.7103 141.846L65.5759 142.182L65.4416 142.518L65.3072 142.854L65.1728 143.19L65.0384 143.526L64.904 143.863L64.7697 144.199L64.6353 144.535L64.5009 144.871L64.3665 145.207L64.2322 145.543L64.0978 145.879L63.9634 146.215H69.7416L70.0103 145.879ZM80.6932 156.165H74.0416L73.9072 155.829L73.7729 155.492L73.6385 155.156L73.5041 154.82L73.3697 154.484L73.2354 154.148L73.101 153.812L72.9666 153.476L72.8322 153.14L72.6979 152.803L72.5635 152.467L72.4291 152.131L72.2947 151.795L72.1604 151.459L72.026 151.123H62.3509L62.2165 151.459L62.0821 151.795L61.9478 152.131L61.8134 152.467L61.679 152.803L61.4103 153.409L61.2759 153.745L61.1415 154.081L61.0071 154.417L60.8728 154.753L60.7384 155.089L60.604 155.425L60.4696 155.761L60.3353 156.098H53.6165L53.7508 155.761L54.0196 155.156L54.154 154.82L54.2883 154.484L54.5571 153.879L54.6915 153.543L54.8258 153.207L54.9602 152.871L55.0946 152.669L55.229 152.333L55.3633 151.997L55.4977 151.661L55.6321 151.325L55.7665 150.988L55.9008 150.652L56.0352 150.316L56.1696 149.98L56.304 149.644L56.4383 149.308L56.5727 148.972L56.8415 148.367L56.9759 148.03L57.1102 147.694L57.2446 147.358L57.379 147.022L57.5134 146.686L57.6477 146.35L57.7821 146.014L57.9165 145.678L58.0509 145.341L58.1852 145.005L58.3196 144.669L58.454 144.333L58.5884 143.997L58.7227 143.661L58.8571 143.325L58.9915 142.989L59.1259 142.652L59.2602 142.316L59.3946 141.98L59.529 141.644L59.6634 141.308L59.7978 140.972L59.9321 140.636L60.0665 140.3L60.2009 139.963L60.3353 139.627L60.4696 139.291L60.604 138.955L60.7384 138.619L60.8728 138.283L61.0071 137.947L61.1415 137.611L61.4103 137.006L61.5446 136.669L61.679 136.333L61.8134 135.997L61.9478 135.661L62.0821 135.325L62.2165 134.989L62.3509 134.653L62.4853 134.317L62.6196 133.98L62.754 133.644L62.8212 133.308L62.9556 132.972L63.09 132.636L63.2243 132.3L63.3587 131.964L63.4931 131.628L63.6275 131.291L63.7619 130.955L63.8962 130.619L64.165 130.014L64.2994 129.678H70.615L70.7494 130.014L70.8838 130.35L71.0182 130.686L71.1525 131.022L71.2869 131.359L71.4213 131.695L71.5557 132.031L71.69 132.367L71.8244 132.703L71.9588 133.039L72.0932 133.375L72.2275 133.711L72.3619 134.048L72.4963 134.384L72.6307 134.72L72.7651 135.056L72.8994 135.392L73.0338 135.728L73.1682 136.064L73.3026 136.401L73.4369 136.737L73.5713 137.073L73.7057 137.409L73.8401 137.745L73.9744 138.081L74.1088 138.417L74.2432 138.753L74.3776 139.09L74.5119 139.426L74.6463 139.762L74.9151 140.367L75.0494 140.703L75.1838 141.039L75.3182 141.375L75.4526 141.711L75.587 142.047L75.7213 142.384L75.8557 142.72L75.9901 143.056L76.1245 143.392L76.2588 143.728L76.3932 144.064L76.5276 144.4L76.662 144.736L76.7963 145.073L76.9307 145.409L77.0651 145.745L77.1995 146.081L77.3338 146.417L77.4682 146.753L77.6026 147.089L77.737 147.425L77.8713 147.762L78.0057 148.098L78.1401 148.434L78.2745 148.77L78.4088 149.106L78.5432 149.442L78.6776 149.778L78.812 150.114L78.9464 150.451L79.0807 150.787L79.2151 151.123L79.3495 151.459L79.4839 151.795L79.6182 152.131L79.7526 152.467L79.887 152.803L80.0214 153.14L80.1557 153.476L80.2901 153.812L80.4245 154.148L80.5589 154.484L80.6932 154.82L80.8276 155.156L80.962 155.492L81.0964 155.829L81.3651 156.434L80.6932 156.165ZM50.8617 152.938L50.593 153.14L50.3242 153.341L50.0555 153.543L49.7867 153.745L49.518 153.946L49.2492 154.148L48.9805 154.35L48.6445 154.551L48.3086 154.753L47.9727 154.955L47.6367 155.089L47.3008 155.291L46.9648 155.425L46.6289 155.56L46.2929 155.694L45.957 155.829L45.6211 155.963L45.2851 156.098L44.9492 156.232L44.6132 156.366L44.2773 156.501L43.9414 156.568L43.6054 156.635L43.2695 156.703L42.9335 156.77L42.5976 156.837L42.1945 156.904L41.8585 156.971L41.4554 157.039L41.1195 157.106L40.7163 157.173H39.6413L39.3054 157.106L38.9023 157.039L38.5663 156.971L38.2304 156.904L37.8944 156.837L37.5585 156.77L37.2226 156.703L36.8866 156.635L36.5507 156.568L36.2147 156.501L35.8788 156.434L35.5429 156.299L35.2069 156.165L34.871 156.03L34.535 155.896L34.1991 155.761L33.8632 155.627L33.5272 155.492L33.1913 155.291L32.9225 155.156L32.5866 154.955L32.3178 154.753L32.0491 154.551L31.7803 154.35L31.5116 154.148L31.2428 153.946L30.9741 153.745L30.7053 153.543L30.4366 153.274L30.1678 153.072L29.8991 152.803L29.6303 152.535L29.4287 152.266L29.2272 151.997L29.0256 151.728L28.824 151.459L28.6225 151.19L28.4209 150.921L28.2865 150.652L28.085 150.316L27.8834 150.047L27.749 149.711L27.6147 149.375L27.4803 149.039L27.3459 148.703L27.2115 148.434L27.0772 148.098L27.01 147.762L26.8756 147.425L26.8084 147.089L26.674 146.753L26.6068 146.417V146.081L26.5397 145.745V145.409L26.4725 145.073V142.182L26.5397 141.779L26.6068 141.442L26.674 141.106L26.7412 140.77L26.8756 140.434L26.9428 140.098L27.0772 139.762L27.2115 139.426L27.3459 139.09L27.4803 138.753L27.6147 138.417L27.749 138.081L27.8834 137.745L28.0178 137.409L28.2194 137.073L28.4209 136.804L28.5553 136.535L28.7569 136.266L28.9584 135.997L29.16 135.728L29.3616 135.459L29.5631 135.19L29.7647 134.922L30.0334 134.653L30.235 134.384L30.5037 134.115L30.7725 133.846L31.0413 133.644L31.31 133.375L31.5788 133.174L31.8475 132.972L32.1163 132.77L32.385 132.569L32.6538 132.367L32.9225 132.165L33.2585 131.964L33.5944 131.762L33.9303 131.56L34.2663 131.426L34.6022 131.291L34.9382 131.09L35.2069 130.955L35.5429 130.821L35.8788 130.686L36.2147 130.619L36.5507 130.485L36.8866 130.417L37.2226 130.283L37.5585 130.216L37.8944 130.149L38.2304 130.081L38.5663 130.014L38.9023 129.947L39.2382 129.88L39.5741 129.812H40.9851L41.3882 129.88L41.7913 129.947H42.1273L42.4632 130.014L42.8664 130.081L43.2023 130.149L43.5382 130.216L43.8742 130.283L44.2101 130.35L44.5461 130.417L44.882 130.485L45.2179 130.619L45.5539 130.686L45.8226 130.821L46.1586 130.955L46.7633 131.224L47.0992 131.359L47.4351 131.56L47.7711 131.695L48.0398 131.896L48.3758 132.098L48.6445 132.3L48.9805 132.501L49.2492 132.703L49.518 132.905L49.7867 133.106L50.0555 133.308L50.3242 133.577L50.593 133.779L50.3914 134.048L50.1227 134.317L49.9211 134.585L49.6524 134.854L49.4508 135.123L49.2492 135.392L48.9805 135.661L48.7789 135.93L48.5773 136.199L48.3086 136.468L48.107 136.737L47.8383 137.006L47.6367 137.274L47.4351 137.543L47.1664 137.812L46.9648 138.081L46.6961 138.35L46.4945 138.619L46.2258 138.417L45.957 138.148L45.6883 137.947L45.4195 137.745L45.1507 137.543L44.882 137.342L44.6132 137.14L44.2773 136.938L44.0086 136.804L43.7398 136.669L43.471 136.535L43.1351 136.401L42.7992 136.266L42.4632 136.199L42.1273 136.132L41.7913 136.064L41.4554 135.997L41.0523 135.93L40.6491 135.863H39.9101L39.5741 135.93L39.2382 135.997L38.9023 136.064L38.5663 136.132L38.2304 136.266L37.8944 136.401L37.6257 137.207L37.2897 137.342L37.021 137.543L36.7522 137.745L36.4835 137.947L36.2147 138.148L35.946 138.35L35.6772 138.552L35.4757 138.821L35.2069 139.09L35.0053 139.358L34.8038 139.627L34.6022 139.896L34.4678 140.232L34.2663 140.501L34.1319 140.837L33.9975 141.174L33.8632 141.51L33.7288 141.846L33.6616 142.182L33.5944 142.518L33.5272 142.921V145.409L33.5944 145.745L33.6616 146.081L33.7288 146.417L33.8632 146.753L34.2663 146.619L34.4007 146.955L34.535 147.291L34.7366 147.627L35.0725 148.165L35.2741 148.434L35.4757 148.703L35.7444 148.972L35.946 149.241L36.2147 149.442L36.4835 149.644L36.7522 149.846L37.021 150.047L37.2897 150.249L37.6257 150.383L37.9616 150.518L38.2976 150.652L38.6335 150.787L38.9694 150.921L39.3054 150.988L39.6413 151.056L39.9773 151.123L40.3804 151.19H40.9851L41.3882 151.123L41.7913 151.056L42.1273 150.988L42.4632 150.921L42.7992 150.854L43.1351 150.787L43.471 150.72L43.807 150.585L44.0757 150.451L44.4117 150.316L44.6804 150.182L44.9492 149.98V146.619H39.9773V141.644H51.0633V152.803L50.8617 152.938ZM39.9101 74.8221H54.6915V63.3938H39.9101V40.0666H55.2962V28.6383H27.3459V111.124H55.4977V99.6955H39.9101V74.8221ZM145.664 77.3095V95.9309C145.664 99.2249 144.119 100.771 140.961 100.771H138.609C135.317 100.771 133.772 99.2249 133.772 95.9309V43.8312C133.772 40.5372 135.317 38.991 138.609 38.991H140.692C143.85 38.991 145.395 40.5372 145.395 43.8312V59.9653H157.691V43.0918C157.691 32.8735 152.786 27.8988 142.573 27.8988H136.459C126.247 27.8988 121.208 32.9407 121.208 43.2262V96.4687C121.208 106.754 126.247 111.796 136.459 111.796H142.641C152.853 111.796 157.892 106.754 157.892 96.4687V77.2422H145.664M102.126 28.6383H114.69V111.124H102.126V28.6383ZM83.9183 65.2761C83.9183 68.5702 82.3729 70.1163 79.2151 70.1163H74.0416V39.7305H79.2151C82.3729 39.7305 83.9183 41.2767 83.9183 44.5707V65.2761ZM81.2308 28.6383H61.5446V111.124H74.1088V81.2085H81.2308C91.4433 81.2085 96.4825 76.1666 96.4825 65.8811V43.9657C96.4825 33.6802 91.4433 28.6383 81.2308 28.6383ZM56.9087 185.677H128.733L92.1152 197.777L56.9087 185.677Z" fill="var(--fill-0, #1E1E1E)"/>
</g>
</svg>
