<svg preserveAspectRatio="none" width="100%" height="100%" overflow="visible" style="display: block;" viewBox="0 0 37 38" fill="none" xmlns="http://www.w3.org/2000/svg">
<path id="Shape" fill-rule="evenodd" clip-rule="evenodd" d="M18.5 3.45455C15.4348 3.45455 12.95 5.77453 12.95 8.63636C12.95 11.4982 15.4348 13.8182 18.5 13.8182C21.5652 13.8182 24.05 11.4982 24.05 8.63636C24.05 5.77453 21.5652 3.45455 18.5 3.45455ZM9.25 8.63636C9.25 3.86664 13.3914 0 18.5 0C23.6086 0 27.75 3.86664 27.75 8.63636C27.75 13.4061 23.6086 17.2727 18.5 17.2727C13.3914 17.2727 9.25 13.4061 9.25 8.63636ZM6.99012 22.7136C10.6817 21.1686 15.1404 20.7273 18.5 20.7273C21.8596 20.7273 26.3183 21.1686 30.0099 22.7136C33.768 24.2865 37 27.1562 37 31.9545V33.6818C37 36.0215 34.9739 38 32.4089 38H4.59112C2.02611 38 0 36.0215 0 33.6818V31.9545C0 27.1562 3.23205 24.2865 6.99012 22.7136ZM8.50363 25.8659C5.55545 27.0998 3.7 28.9801 3.7 31.9545V33.6818C3.7 34.169 4.12837 34.5455 4.59112 34.5455H32.4089C32.8716 34.5455 33.3 34.169 33.3 33.6818V31.9545C33.3 28.9801 31.4446 27.0998 28.4964 25.8659C25.4817 24.6042 21.6154 24.1818 18.5 24.1818C15.3846 24.1818 11.5183 24.6042 8.50363 25.8659Z" fill="var(--fill-0, white)"/>
</svg>
