<svg preserveAspectRatio="none" width="100%" height="100%" overflow="visible" style="display: block;" viewBox="0 0 114 76" fill="none" xmlns="http://www.w3.org/2000/svg">
<g id="Pivot">
<path id="Vector" d="M24.1739 10.4278C21.7555 10.4278 19.3915 11.1936 17.3809 12.6283C15.3702 14.0629 13.8032 16.102 12.8781 18.4876C11.953 20.8732 11.7114 23.4982 12.1838 26.0304C12.6562 28.5626 13.8214 30.8884 15.532 32.7135C17.2426 34.5387 19.4218 35.7811 21.7938 36.2838C24.1659 36.7864 26.6243 36.5267 28.8581 35.5374C31.0919 34.5481 33.0007 32.8738 34.3431 30.7261C35.6855 28.5784 36.4011 26.0539 36.3995 23.4719C36.3995 21.7582 36.0832 20.0613 35.4687 18.4781C34.8542 16.895 33.9535 15.4566 32.8182 14.2453C31.6828 13.0339 30.335 12.0733 28.8518 11.4182C27.3686 10.7632 25.779 10.4267 24.1739 10.4278ZM20.8852 13.6494C20.8852 13.4354 20.9248 13.2235 21.0018 13.0259C21.0787 12.8283 21.1915 12.6489 21.3336 12.498C21.4757 12.347 21.6444 12.2276 21.8299 12.1465C22.0154 12.0654 22.214 12.0243 22.4145 12.0254H25.8264C26.0269 12.0243 26.2255 12.0654 26.411 12.1465C26.5965 12.2276 26.7652 12.347 26.9073 12.498C27.0494 12.6489 27.1622 12.8283 27.2391 13.0259C27.3161 13.2235 27.3557 13.4354 27.3557 13.6494V18.4597C27.3429 18.9614 27.172 19.4439 26.8706 19.8291L24.5192 22.5678C24.469 22.6322 24.4062 22.6841 24.3352 22.7197C24.2641 22.7553 24.1866 22.7738 24.1081 22.7738C24.0296 22.7738 23.9521 22.7553 23.8811 22.7197C23.81 22.6841 23.7472 22.6322 23.697 22.5678L21.543 20.0485C21.3337 19.8468 21.1647 19.6022 21.046 19.3292C20.9274 19.0562 20.8615 18.7605 20.8523 18.4597L20.8852 13.6494ZM19.0847 26.9217H14.5792C14.1736 26.9217 13.7847 26.7496 13.4979 26.4434C13.2111 26.1373 13.05 25.722 13.05 25.2889V21.6461C13.05 21.2131 13.2111 20.7978 13.4979 20.4916C13.7847 20.1854 14.1736 20.0134 14.5792 20.0134H19.0847C19.5544 20.0283 20.0059 20.2106 20.3673 20.5313L22.9324 23.0418C22.9928 23.0953 23.0414 23.1624 23.0747 23.2383C23.1081 23.3141 23.1254 23.3969 23.1254 23.4807C23.1254 23.5645 23.1081 23.6472 23.0747 23.7231C23.0414 23.799 22.9928 23.866 22.9324 23.9196L20.5564 26.1843C20.3694 26.4056 20.1429 26.5849 19.8902 26.7115C19.6375 26.8381 19.3636 26.9095 19.0847 26.9217ZM27.3063 33.7948C27.3063 34.2278 27.1452 34.6431 26.8584 34.9493C26.5716 35.2555 26.1827 35.4275 25.7771 35.4275H22.398C21.9924 35.4275 21.6035 35.2555 21.3167 34.9493C21.0299 34.6431 20.8688 34.2278 20.8688 33.7948V28.9933C20.8779 28.6925 20.9438 28.3967 21.0625 28.1237C21.1812 27.8507 21.3502 27.6061 21.5594 27.4044L23.7135 24.8852C23.7636 24.8207 23.8265 24.7688 23.8975 24.7332C23.9686 24.6976 24.0461 24.6792 24.1246 24.6792C24.203 24.6792 24.2806 24.6976 24.3516 24.7332C24.4227 24.7688 24.4855 24.8207 24.5356 24.8852L26.887 27.6239C27.1874 28.0097 27.3581 28.4918 27.3721 28.9933L27.3063 33.7948ZM33.415 26.9217H28.9424C28.6607 26.9119 28.3837 26.8415 28.128 26.7148C27.8723 26.5881 27.6432 26.4077 27.4543 26.1843L25.1029 23.8845C25.0412 23.8318 24.9914 23.7651 24.9572 23.6891C24.923 23.6131 24.9052 23.5299 24.9052 23.4456C24.9052 23.3613 24.923 23.278 24.9572 23.2021C24.9914 23.1261 25.0412 23.0593 25.1029 23.0067L27.6599 20.4962C28.0213 20.1755 28.4728 19.9932 28.9424 19.9783H33.4479C33.8535 19.9783 34.2425 20.1503 34.5292 20.4565C34.816 20.7627 34.9771 21.178 34.9771 21.611V25.2538C34.9815 25.4712 34.9452 25.6873 34.8703 25.8894C34.7954 26.0916 34.6835 26.2757 34.541 26.4311C34.3986 26.5864 34.2285 26.7099 34.0408 26.7941C33.8531 26.8783 33.6515 26.9217 33.4479 26.9217H33.415Z" fill="var(--fill-0, white)"/>
<path id="Vector_2" d="M35.6514 16.2479V11.4551C35.6855 10.8617 35.9303 10.3046 36.3359 9.8973C36.7416 9.49002 37.2774 9.26325 37.8342 9.26325C38.391 9.26325 38.9269 9.49002 39.3325 9.8973C39.7381 10.3046 39.9829 10.8617 40.0171 11.4551V16.2479C40.0354 16.566 39.9925 16.8847 39.8911 17.1844C39.7896 17.4841 39.6318 17.7585 39.4273 17.9906C39.2228 18.2228 38.976 18.4078 38.702 18.5342C38.428 18.6607 38.1327 18.7259 37.8342 18.7259C37.5357 18.7259 37.2404 18.6607 36.9664 18.5342C36.6925 18.4078 36.4456 18.2228 36.2411 17.9906C36.0366 17.7585 35.8788 17.4841 35.7774 17.1844C35.676 16.8847 35.6331 16.566 35.6514 16.2479Z" fill="var(--fill-0, white)"/>
<path id="Vector_3" d="M45.4036 41.0017C45.4036 42.3441 45.0306 43.6564 44.3319 44.7724C43.6332 45.8884 42.6402 46.7581 41.4784 47.2714C40.3166 47.7847 39.0384 47.9186 37.8053 47.6561C36.5723 47.3935 35.4399 46.7464 34.5514 45.7966C33.6629 44.8468 33.0583 43.6369 32.814 42.3201C32.5697 41.0033 32.6967 39.6387 33.179 38.399C33.6613 37.1593 34.4772 36.1002 35.5234 35.3556C36.5696 34.6111 37.7991 34.2146 39.0565 34.2164C40.7406 34.2187 42.355 34.9346 43.545 36.2069C44.7351 37.4791 45.4036 39.2037 45.4036 41.0017Z" fill="var(--fill-0, white)"/>
<path id="Vector_4" d="M73.997 16.2478V11.455C73.997 10.8381 74.2266 10.2464 74.6352 9.81015C75.0438 9.37391 75.5979 9.12884 76.1758 9.12884C76.7536 9.12884 77.3078 9.37391 77.7164 9.81015C78.125 10.2464 78.3545 10.8381 78.3545 11.455V16.2478C78.3545 16.8647 78.125 17.4564 77.7164 17.8926C77.3078 18.3289 76.7536 18.5739 76.1758 18.5739C75.5979 18.5739 75.0438 18.3289 74.6352 17.8926C74.2266 17.4564 73.997 16.8647 73.997 16.2478Z" fill="var(--fill-0, white)"/>
<path id="Vector_5" d="M81.3069 41.0017C81.3069 42.3441 80.9339 43.6564 80.2352 44.7724C79.5365 45.8884 78.5435 46.7581 77.3817 47.2714C76.22 47.7847 74.9417 47.9186 73.7087 47.6561C72.4756 47.3935 71.3432 46.7464 70.4547 45.7966C69.5663 44.8468 68.9616 43.6369 68.7173 42.3201C68.473 41.0033 68.6001 39.6387 69.0823 38.399C69.5646 37.1593 70.3805 36.1002 71.4267 35.3556C72.4729 34.6111 73.7025 34.2146 74.9598 34.2164C76.6439 34.2187 78.2583 34.9346 79.4484 36.2069C80.6384 37.4791 81.3069 39.2037 81.3069 41.0017Z" fill="var(--fill-0, white)"/>
<path id="Vector_6" d="M89.8324 10.4278C87.4141 10.4278 85.0501 11.1936 83.0394 12.6283C81.0287 14.0629 79.4618 16.102 78.5367 18.4876C77.6116 20.8732 77.37 23.4982 77.8424 26.0304C78.3147 28.5626 79.4799 30.8884 81.1905 32.7135C82.9011 34.5387 85.0803 35.7811 87.4524 36.2838C89.8245 36.7864 92.2829 36.5267 94.5167 35.5374C96.7504 34.5481 98.6593 32.8738 100.002 30.7261C101.344 28.5784 102.06 26.0539 102.058 23.4719C102.058 21.7582 101.742 20.0613 101.127 18.4781C100.513 16.895 99.6121 15.4566 98.4767 14.2453C97.3414 13.0339 95.9936 12.0733 94.5103 11.4182C93.0271 10.7632 91.4375 10.4267 89.8324 10.4278ZM82.2192 27.0445C81.5147 27.0445 80.8261 26.8214 80.2405 26.4034C79.6549 25.9853 79.1986 25.3912 78.9294 24.6962C78.6602 24.0011 78.5902 23.2365 78.7282 22.4989C78.8663 21.7614 79.2061 21.0842 79.7048 20.553C80.2035 20.0218 80.8386 19.6604 81.5297 19.5148C82.2208 19.3691 82.9369 19.4456 83.5872 19.7347C84.2376 20.0237 84.793 20.5122 85.1832 21.1384C85.5734 21.7646 85.7808 22.5003 85.7792 23.2525C85.7802 23.7515 85.6888 24.2459 85.5102 24.707C85.3316 25.1682 85.0693 25.5871 84.7384 25.9396C84.4075 26.292 84.0145 26.5711 83.5822 26.7608C83.1498 26.9504 82.6866 27.0469 82.2192 27.0445ZM89.9393 35.2432C89.2352 35.2432 88.5469 35.0202 87.9615 34.6026C87.3761 34.185 86.9198 33.5914 86.6503 32.8968C86.3809 32.2023 86.3104 31.4381 86.4477 30.7008C86.5851 29.9635 86.9242 29.2863 87.422 28.7547C87.9199 28.2231 88.5542 27.8611 89.2448 27.7145C89.9354 27.5678 90.6512 27.6431 91.3017 27.9308C91.9522 28.2184 92.5081 28.7056 92.8993 29.3307C93.2905 29.9557 93.4993 30.6906 93.4993 31.4423C93.5004 31.9418 93.409 32.4365 93.2305 32.8982C93.052 33.3599 92.7898 33.7793 92.459 34.1325C92.1282 34.4857 91.7353 34.7656 91.3029 34.9562C90.8705 35.1468 90.4071 35.2443 89.9393 35.2432ZM89.9393 18.8635C89.2349 18.8635 88.5463 18.6403 87.9606 18.2223C87.375 17.8043 86.9187 17.2101 86.6495 16.5151C86.3803 15.8201 86.3103 15.0554 86.4484 14.3179C86.5864 13.5803 86.9263 12.9031 87.4249 12.3719C87.9236 11.8407 88.5587 11.4794 89.2498 11.3337C89.941 11.1881 90.657 11.2646 91.3074 11.5536C91.9577 11.8426 92.5131 12.3312 92.9033 12.9574C93.2935 13.5836 93.5009 14.3193 93.4993 15.0714C93.5004 15.5704 93.409 16.0648 93.2304 16.526C93.0517 16.9871 92.7894 17.406 92.4585 17.7585C92.1276 18.111 91.7347 18.3901 91.3023 18.5797C90.87 18.7694 90.4067 18.8658 89.9393 18.8635ZM97.8979 27.0445C97.1934 27.0445 96.5048 26.8214 95.9192 26.4034C95.3336 25.9853 94.8773 25.3912 94.6081 24.6962C94.3389 24.0011 94.2689 23.2365 94.4069 22.4989C94.5449 21.7614 94.8848 21.0842 95.3835 20.553C95.8822 20.0218 96.5173 19.6604 97.2084 19.5148C97.8995 19.3691 98.6156 19.4456 99.2659 19.7347C99.9163 20.0237 100.472 20.5122 100.862 21.1384C101.252 21.7646 101.459 22.5003 101.458 23.2525C101.459 23.7515 101.368 24.2459 101.189 24.707C101.01 25.1682 100.748 25.5871 100.417 25.9396C100.086 26.292 99.6932 26.5711 99.2609 26.7608C98.8285 26.9504 98.3653 27.0469 97.8979 27.0445Z" fill="var(--fill-0, white)"/>
<path id="Vector_7" d="M113.56 51.9653C112.944 45.8997 111.916 40.0536 110.872 34.6376C109.647 28.2735 108.405 22.7785 106.966 17.8453C106.263 15.0774 105.18 12.4358 103.752 10.0066C103.374 9.40089 103.012 8.82155 102.658 8.25098L102.379 7.8033C101.795 6.8465 101.187 5.86337 100.57 4.90657C100.24 4.40658 99.8243 3.97771 99.345 3.64254C99.0909 3.16312 98.7532 2.74002 98.3502 2.39607C97.9037 2.03592 97.4143 1.74073 96.8949 1.51828C92.5616 -0.432787 87.687 -0.505203 83.3045 1.31638C82.3919 1.67664 81.648 2.40467 81.2327 3.34409C80.8826 3.43537 80.5242 3.48541 80.1639 3.49332H72.7644C72.3017 2.77092 71.681 2.17991 70.9561 1.7715C70.2312 1.36309 69.4239 1.14962 68.6042 1.1496H45.4027C44.5831 1.14962 43.7758 1.36309 43.0509 1.7715C42.3259 2.17991 41.7052 2.77092 41.2426 3.49332H33.8431C33.4968 3.49491 33.1516 3.45069 32.8154 3.36165C32.4032 2.41776 31.6586 1.68585 30.7435 1.32516C26.3605 -0.506255 21.4808 -0.436957 17.1449 1.51828C16.6269 1.73802 16.1399 2.03343 15.6979 2.39607C15.3116 2.74064 14.9835 3.15333 14.7278 3.61621C14.2436 3.95518 13.825 4.39025 13.4945 4.89779C12.7792 6.00382 12.0804 7.14496 11.4062 8.25098L11.25 8.49676L10.3292 9.9978C8.89239 12.4274 7.80335 15.0724 7.09808 17.8453C5.66751 22.9277 4.39316 28.3789 3.20102 34.6288C2.10754 40.0624 1.05517 45.926 0.438545 51.9828C0.123082 54.9551 -0.022437 57.9452 0.00279718 60.9364C0.00279718 65.2288 0.96473 68.8365 5.3222 72.7164C7.93632 74.8664 11.1485 76.0219 14.4482 75.9994C19.003 75.9994 23.6154 73.919 25.4241 71.0661C27.2329 68.2133 28.7786 63.8945 30.1023 59.804L30.2009 59.4792C30.9573 57.1092 31.7384 54.6601 32.503 52.2198C34.7826 53.4789 37.3467 54.0319 39.9053 53.8163C42.4639 53.6006 44.9149 52.625 46.9813 50.9997H67.0257C69.3981 52.8452 72.2545 53.8464 75.1898 53.8613C77.3873 53.8537 79.5516 53.2881 81.504 52.2111C82.0795 54.072 82.6797 55.9593 83.2634 57.7939L83.469 58.4259L83.9047 59.7952C85.212 63.8858 86.6919 68.0816 88.5828 71.0661C90.3916 73.919 95.0122 75.9994 99.5587 75.9994C102.825 76.0314 106.008 74.8976 108.603 72.7778C113.026 68.8804 113.955 65.2288 113.996 60.9364C114.027 57.9392 113.881 54.9429 113.56 51.9653ZM45.2219 6.5305C45.201 6.21977 45.2939 5.91253 45.481 5.67348C45.6681 5.43443 45.9348 5.28223 46.2249 5.24891H67.8232C68.1185 5.27141 68.3934 5.41804 68.5876 5.65665C68.7818 5.89526 68.8794 6.20636 68.8591 6.52172V18.5739C68.8794 18.8892 68.7818 19.2003 68.5876 19.4389C68.3934 19.6776 68.1185 19.8242 67.8232 19.8467H46.2249C45.9363 19.8134 45.6709 19.6624 45.484 19.4253C45.2971 19.1882 45.2032 18.8831 45.2219 18.5739V6.5305ZM106.259 69.53C104.346 71.0819 102.002 71.9068 99.5998 71.8737C95.8179 71.8737 92.6526 70.0567 91.8222 68.7488C90.1778 66.1154 88.6897 61.8756 87.6045 58.4698L87.2509 57.355C86.4288 54.7216 85.6066 52.1759 84.7844 49.5777C84.5758 49.0504 84.2593 48.5796 83.8581 48.1999C83.457 47.8201 82.9813 47.5411 82.4659 47.3832C82.3365 47.3223 82.1962 47.2923 82.0549 47.2954C81.7569 47.3083 81.4699 47.4186 81.2327 47.6114C79.49 48.9969 77.379 49.7533 75.2062 49.7708C72.9223 49.756 70.7107 48.9143 68.9331 47.3832C68.5512 47.0686 68.0835 46.896 67.6012 46.8916H46.4058C45.9197 46.8966 45.4487 47.0725 45.0657 47.392C43.3392 48.883 41.1948 49.7138 38.9745 49.752C36.7543 49.7902 34.5859 49.0335 32.8154 47.6026C32.5764 47.4119 32.2909 47.2991 31.9932 47.2778C31.8456 47.2733 31.699 47.3064 31.5657 47.3744C31.0543 47.5389 30.5844 47.8249 30.1914 48.2111C29.7984 48.5973 29.4924 49.0735 29.2965 49.604C28.3675 52.5797 27.4056 55.5818 26.4765 58.4785C25.3912 61.8932 23.9278 66.1417 22.2588 68.7663C21.4366 70.0742 18.2631 71.8913 14.4811 71.8913C12.069 71.9205 9.71671 71.0895 7.79692 69.53C4.54937 66.6947 3.9163 64.2895 3.87519 60.8925C3.85212 58.0658 3.98665 55.2401 4.27805 52.4305C4.88646 46.5142 5.92238 40.7821 6.93365 35.4627C8.0929 29.3708 9.34259 23.9987 10.732 19.0391C11.3426 16.6528 12.273 14.3733 13.4945 12.2713L14.44 10.7264C15.1553 9.57645 15.887 8.38265 16.627 7.21518C16.791 7.05479 16.9767 6.92163 17.1778 6.82017C17.3925 6.70338 17.5787 6.53461 17.7215 6.32733C17.8642 6.12005 17.9596 5.88001 18 5.62637C18.1556 5.50859 18.324 5.41133 18.5015 5.33669C21.9008 3.7742 25.7387 3.69855 29.1896 5.12602C29.1922 5.54973 29.3382 5.95816 29.6007 6.27594C29.8629 6.60017 30.2298 6.80703 30.6284 6.85528C31.6288 7.36533 32.7264 7.62073 33.8349 7.60141H41.4481V19.4868C41.4503 20.6222 41.8737 21.7104 42.6257 22.5132C43.3776 23.3161 44.3969 23.7681 45.4603 23.7704H68.6453C69.708 23.7681 70.7264 23.3158 71.4771 22.5127C72.2277 21.7096 72.6493 20.6214 72.6493 19.4868V7.60141H80.1885C81.3064 7.62706 82.414 7.3683 83.4196 6.8465C83.8088 6.80235 84.1675 6.60144 84.4227 6.28471C84.6712 5.95485 84.7996 5.54024 84.7844 5.11724C88.2233 3.70173 92.0441 3.77733 95.4315 5.32792C95.6105 5.39902 95.7793 5.49652 95.933 5.61759C95.9773 5.88395 96.0832 6.13428 96.2412 6.34582C96.3991 6.55737 96.604 6.72344 96.8374 6.82895C97.031 6.93057 97.2085 7.06384 97.3636 7.22396C98.0542 8.29487 98.7366 9.39212 99.3861 10.463L100.529 12.2713C101.742 14.3693 102.667 16.6426 103.275 19.0216C104.64 23.867 105.889 29.2391 107.082 35.4539C108.101 40.7997 109.129 46.5493 109.729 52.413C110.028 55.2219 110.163 58.0481 110.132 60.8749C110.099 64.2896 109.458 66.6947 106.218 69.53H106.259Z" fill="var(--fill-0, white)"/>
</g>
</svg>
