<svg preserveAspectRatio="none" width="100%" height="100%" overflow="visible" style="display: block;" viewBox="0 0 50 33" fill="none" xmlns="http://www.w3.org/2000/svg">
<g id="Pivot">
<path id="Vector" d="M10.6028 4.52789C9.54215 4.52789 8.5053 4.86039 7.62343 5.48333C6.74156 6.10627 6.05428 6.99167 5.64855 8.02752C5.24281 9.06338 5.13683 10.2032 5.34402 11.3027C5.55121 12.4022 6.06226 13.4121 6.81252 14.2046C7.56279 14.9971 8.51856 15.5366 9.55894 15.7548C10.5993 15.9731 11.6776 15.8603 12.6573 15.4307C13.637 15.0012 14.4742 14.2741 15.063 13.3416C15.6518 12.409 15.9656 11.3129 15.9649 10.1918C15.9649 9.44765 15.8262 8.71083 15.5567 8.02341C15.2872 7.33599 14.8921 6.71144 14.3942 6.18545C13.8962 5.65946 13.3051 5.24234 12.6545 4.95793C12.004 4.67352 11.3068 4.52739 10.6028 4.52789ZM9.16043 5.9267C9.16043 5.83378 9.1778 5.74178 9.21155 5.65598C9.2453 5.57018 9.29477 5.49228 9.3571 5.42675C9.41942 5.36122 9.49339 5.30936 9.57475 5.27415C9.6561 5.23894 9.74324 5.22107 9.83114 5.22158H11.3276C11.4155 5.22107 11.5027 5.23894 11.584 5.27415C11.6654 5.30936 11.7393 5.36122 11.8017 5.42675C11.864 5.49228 11.9135 5.57018 11.9472 5.65598C11.981 5.74178 11.9983 5.83378 11.9983 5.9267V8.0154C11.9928 8.23326 11.9178 8.44275 11.7856 8.60999L10.7543 9.79917C10.7323 9.82716 10.7047 9.84969 10.6736 9.86514C10.6424 9.8806 10.6084 9.88862 10.574 9.88862C10.5396 9.88862 10.5056 9.8806 10.4744 9.86514C10.4432 9.84969 10.4157 9.82716 10.3937 9.79917L9.44891 8.70528C9.35714 8.61771 9.28301 8.51149 9.23097 8.39295C9.17892 8.27442 9.15003 8.14601 9.14601 8.0154L9.16043 5.9267ZM8.37072 11.6897H6.39464C6.21676 11.6897 6.04616 11.615 5.92037 11.482C5.79459 11.3491 5.72393 11.1688 5.72393 10.9807V9.39897C5.72393 9.21095 5.79459 9.03063 5.92037 8.89767C6.04616 8.76472 6.21676 8.69003 6.39464 8.69003H8.37072C8.57672 8.69652 8.77475 8.77568 8.93325 8.91491L10.0583 10.005C10.0848 10.0282 10.1061 10.0574 10.1207 10.0903C10.1354 10.1232 10.1429 10.1592 10.1429 10.1956C10.1429 10.232 10.1354 10.2679 10.1207 10.3008C10.1061 10.3338 10.0848 10.3629 10.0583 10.3861L9.01619 11.3695C8.93419 11.4656 8.83485 11.5434 8.72401 11.5984C8.61317 11.6534 8.49306 11.6844 8.37072 11.6897ZM11.9767 14.6741C11.9767 14.8621 11.906 15.0424 11.7803 15.1754C11.6545 15.3083 11.4839 15.383 11.306 15.383H9.82393C9.64605 15.383 9.47545 15.3083 9.34967 15.1754C9.22388 15.0424 9.15322 14.8621 9.15322 14.6741V12.5892C9.15724 12.4586 9.18613 12.3302 9.23818 12.2116C9.29022 12.0931 9.36435 11.9869 9.45612 11.8993L10.4009 10.8054C10.4229 10.7774 10.4504 10.7549 10.4816 10.7394C10.5128 10.724 10.5468 10.716 10.5812 10.716C10.6156 10.716 10.6496 10.724 10.6808 10.7394C10.7119 10.7549 10.7395 10.7774 10.7615 10.8054L11.7928 11.9946C11.9245 12.1621 11.9994 12.3714 12.0056 12.5892L11.9767 14.6741ZM14.656 11.6897H12.6943C12.5707 11.6854 12.4492 11.6549 12.3371 11.5999C12.225 11.5449 12.1245 11.4665 12.0416 11.3695L11.0103 10.3709C10.9832 10.348 10.9614 10.3191 10.9464 10.2861C10.9314 10.2531 10.9236 10.2169 10.9236 10.1803C10.9236 10.1437 10.9314 10.1076 10.9464 10.0746C10.9614 10.0416 10.9832 10.0126 11.0103 9.98975L12.1318 8.89966C12.2903 8.76043 12.4883 8.68127 12.6943 8.67479H14.6704C14.8483 8.67479 15.0189 8.74948 15.1446 8.88243C15.2704 9.01538 15.3411 9.1957 15.3411 9.38372V10.9655C15.343 11.0599 15.3271 11.1537 15.2942 11.2415C15.2614 11.3293 15.2123 11.4092 15.1498 11.4767C15.0873 11.5441 15.0128 11.5977 14.9304 11.6343C14.8481 11.6709 14.7597 11.6897 14.6704 11.6897H14.656Z" fill="var(--fill-0, white)"/>
<path id="Vector_2" d="M15.6371 7.05499V4.97392C15.652 4.71627 15.7594 4.47436 15.9373 4.29751C16.1152 4.12066 16.3502 4.0222 16.5944 4.0222C16.8387 4.0222 17.0737 4.12066 17.2516 4.29751C17.4295 4.47436 17.5369 4.71627 17.5518 4.97392V7.05499C17.5599 7.19311 17.541 7.3315 17.4966 7.46164C17.4521 7.59178 17.3829 7.71092 17.2932 7.81172C17.2035 7.91251 17.0952 7.99284 16.9751 8.04775C16.8549 8.10266 16.7254 8.13098 16.5944 8.13098C16.4635 8.13098 16.334 8.10266 16.2138 8.04775C16.0937 7.99284 15.9854 7.91251 15.8957 7.81172C15.806 7.71092 15.7368 7.59178 15.6923 7.46164C15.6478 7.3315 15.629 7.19311 15.6371 7.05499Z" fill="var(--fill-0, white)"/>
<path id="Vector_3" d="M19.9137 17.8034C19.9137 18.3863 19.7502 18.9561 19.4437 19.4407C19.1373 19.9252 18.7017 20.3029 18.1922 20.5258C17.6826 20.7486 17.122 20.8068 16.5812 20.6928C16.0404 20.5788 15.5437 20.2978 15.154 19.8854C14.7643 19.4729 14.4991 18.9476 14.392 18.3758C14.2848 17.8041 14.3406 17.2116 14.5521 16.6733C14.7636 16.135 15.1214 15.6751 15.5803 15.3518C16.0392 15.0285 16.5784 14.8564 17.1299 14.8571C17.8685 14.8581 18.5766 15.169 19.0986 15.7214C19.6205 16.2738 19.9137 17.0226 19.9137 17.8034Z" fill="var(--fill-0, white)"/>
<path id="Vector_4" d="M32.4556 7.05496V4.97388C32.4556 4.706 32.5562 4.4491 32.7355 4.25968C32.9147 4.07026 33.1577 3.96384 33.4112 3.96384C33.6646 3.96384 33.9076 4.07026 34.0869 4.25968C34.2661 4.4491 34.3667 4.706 34.3667 4.97388V7.05496C34.3667 7.32284 34.2661 7.57975 34.0869 7.76917C33.9076 7.95859 33.6646 8.065 33.4112 8.065C33.1577 8.065 32.9147 7.95859 32.7355 7.76917C32.5562 7.57975 32.4556 7.32284 32.4556 7.05496Z" fill="var(--fill-0, white)"/>
<path id="Vector_5" d="M35.6613 17.8034C35.6613 18.3863 35.4977 18.9561 35.1913 19.4407C34.8848 19.9252 34.4493 20.3029 33.9397 20.5258C33.4302 20.7486 32.8695 20.8068 32.3287 20.6928C31.7879 20.5788 31.2913 20.2978 30.9016 19.8854C30.5119 19.4729 30.2467 18.9476 30.1395 18.3758C30.0324 17.8041 30.0881 17.2116 30.2996 16.6733C30.5112 16.135 30.869 15.6751 31.3279 15.3518C31.7867 15.0285 32.326 14.8564 32.8775 14.8571C33.6161 14.8581 34.3242 15.169 34.8461 15.7214C35.3681 16.2738 35.6613 17.0226 35.6613 17.8034Z" fill="var(--fill-0, white)"/>
<path id="Vector_6" d="M39.4002 4.52789C38.3395 4.52789 37.3027 4.86039 36.4208 5.48333C35.5389 6.10627 34.8516 6.99167 34.4459 8.02752C34.0402 9.06338 33.9342 10.2032 34.1414 11.3027C34.3486 12.4022 34.8596 13.4121 35.6099 14.2046C36.3602 14.9971 37.3159 15.5366 38.3563 15.7548C39.3967 15.9731 40.4749 15.8603 41.4547 15.4307C42.4344 15.0012 43.2716 14.2741 43.8604 13.3416C44.4491 12.409 44.763 11.3129 44.7623 10.1918C44.7623 9.44765 44.6236 8.71083 44.3541 8.02341C44.0845 7.33599 43.6895 6.71144 43.1915 6.18545C42.6936 5.65946 42.1024 5.24234 41.4519 4.95793C40.8014 4.67352 40.1042 4.52739 39.4002 4.52789ZM36.061 11.743C35.7521 11.743 35.4501 11.6461 35.1932 11.4646C34.9364 11.2831 34.7362 11.0251 34.6182 10.7233C34.5001 10.4216 34.4694 10.0895 34.5299 9.76928C34.5905 9.44904 34.7395 9.15498 34.9583 8.92432C35.177 8.69366 35.4555 8.53678 35.7586 8.47353C36.0618 8.41028 36.3758 8.44351 36.6611 8.56901C36.9463 8.69451 37.1899 8.90663 37.3611 9.17853C37.5322 9.45044 37.6232 9.7699 37.6224 10.0965C37.6229 10.3132 37.5828 10.5278 37.5045 10.7281C37.4261 10.9283 37.3111 11.1102 37.166 11.2632C37.0208 11.4163 36.8485 11.5375 36.6589 11.6198C36.4692 11.7022 36.2661 11.744 36.061 11.743ZM39.4471 15.303C39.1383 15.303 38.8364 15.2062 38.5796 15.0248C38.3228 14.8435 38.1227 14.5857 38.0045 14.2842C37.8864 13.9826 37.8554 13.6508 37.9157 13.3306C37.9759 13.0105 38.1246 12.7164 38.343 12.4856C38.5614 12.2548 38.8396 12.0976 39.1425 12.0339C39.4453 11.9702 39.7593 12.0029 40.0446 12.1278C40.3299 12.2528 40.5737 12.4643 40.7453 12.7357C40.9169 13.0071 41.0085 13.3262 41.0085 13.6526C41.0089 13.8695 40.9689 14.0843 40.8906 14.2848C40.8123 14.4852 40.6973 14.6673 40.5522 14.8207C40.4071 14.9741 40.2348 15.0956 40.0451 15.1784C39.8555 15.2611 39.6522 15.3035 39.4471 15.303ZM39.4471 8.19073C39.1381 8.19073 38.8361 8.09384 38.5792 7.91232C38.3224 7.73081 38.1223 7.47283 38.0042 7.17104C37.8861 6.86925 37.8554 6.53722 37.9159 6.21698C37.9765 5.89673 38.1256 5.60267 38.3443 5.37201C38.563 5.14136 38.8416 4.98447 39.1447 4.92123C39.4478 4.85798 39.7618 4.8912 40.0471 5.0167C40.3323 5.1422 40.5759 5.35432 40.7471 5.62623C40.9182 5.89813 41.0092 6.21759 41.0085 6.54416C41.0089 6.76086 40.9688 6.97551 40.8905 7.17575C40.8122 7.376 40.6971 7.55789 40.552 7.71094C40.4069 7.86398 40.2345 7.98517 40.0449 8.06751C39.8552 8.14986 39.6521 8.19173 39.4471 8.19073ZM42.9377 11.743C42.6287 11.743 42.3267 11.6461 42.0698 11.4646C41.813 11.2831 41.6129 11.0251 41.4948 10.7233C41.3767 10.4216 41.346 10.0895 41.4065 9.76928C41.4671 9.44904 41.6161 9.15498 41.8349 8.92432C42.0536 8.69366 42.3321 8.53678 42.6353 8.47353C42.9384 8.41028 43.2524 8.44351 43.5377 8.56901C43.8229 8.69451 44.0665 8.90663 44.2377 9.17853C44.4088 9.45044 44.4998 9.7699 44.4991 10.0965C44.4995 10.3132 44.4594 10.5278 44.3811 10.7281C44.3028 10.9283 44.1877 11.1102 44.0426 11.2632C43.8974 11.4163 43.7251 11.5375 43.5355 11.6198C43.3458 11.7022 43.1427 11.744 42.9377 11.743Z" fill="var(--fill-0, white)"/>
<path id="Vector_7" d="M49.8071 22.5639C49.5367 19.9301 49.0859 17.3917 48.628 15.04C48.0907 12.2767 47.5462 9.89069 46.9151 7.74863C46.6066 6.54676 46.1315 5.39978 45.5052 4.34497C45.3393 4.08198 45.1806 3.83042 45.0256 3.58267L44.903 3.38829C44.6469 2.97284 44.3801 2.54595 44.1097 2.1305C43.9649 1.9134 43.7826 1.72718 43.5724 1.58164C43.4609 1.37347 43.3128 1.18976 43.136 1.04041C42.9402 0.884028 42.7256 0.755856 42.4978 0.659263C40.5972 -0.187909 38.4592 -0.219353 36.5371 0.571598C36.1368 0.728024 35.8105 1.04414 35.6284 1.45205C35.4748 1.49168 35.3176 1.51341 35.1596 1.51685H31.9142C31.7113 1.20318 31.4391 0.946549 31.1211 0.769215C30.8032 0.591881 30.4491 0.499191 30.0896 0.49918H19.9135C19.554 0.499191 19.1999 0.591881 18.882 0.769215C18.564 0.946549 18.2918 1.20318 18.0889 1.51685H14.8435C14.6916 1.51754 14.5402 1.49834 14.3927 1.45967C14.2119 1.04983 13.8854 0.732024 13.484 0.57541C11.5616 -0.21981 9.42139 -0.18972 7.51971 0.659263C7.2925 0.754676 7.07891 0.882949 6.88505 1.04041C6.71563 1.19003 6.57172 1.36922 6.45955 1.57021C6.24721 1.71739 6.06358 1.9063 5.91865 2.12669C5.60493 2.60693 5.29842 3.10243 5.00273 3.58267L4.93422 3.6894L4.53035 4.34116C3.90017 5.39611 3.42252 6.54459 3.11319 7.74863C2.48575 9.95548 1.92682 12.3224 1.40396 15.0362C0.924359 17.3955 0.462793 19.9416 0.192344 22.5715C0.0539833 23.8621 -0.00984077 25.1604 0.00122683 26.4592C0.00122683 28.323 0.423127 29.8896 2.3343 31.5742C3.48084 32.5078 4.88969 33.0095 6.33694 32.9997C8.33466 32.9997 10.3576 32.0964 11.1509 30.8577C11.9443 29.6189 12.6222 27.7437 13.2027 25.9675L13.246 25.8265C13.5778 24.7974 13.9203 23.734 14.2557 22.6744C15.2555 23.2211 16.3801 23.4612 17.5023 23.3676C18.6245 23.274 19.6995 22.8503 20.6058 22.1446H29.3972C30.4378 22.946 31.6906 23.3807 32.978 23.3872C33.9418 23.3839 34.8911 23.1382 35.7474 22.6706C35.9998 23.4786 36.263 24.2981 36.519 25.0947L36.6092 25.3691L36.8003 25.9637C37.3737 27.7399 38.0227 29.5618 38.8521 30.8577C39.6454 32.0964 41.672 32.9997 43.6661 32.9997C45.0988 33.0136 46.4949 32.5213 47.6327 31.6009C49.5727 29.9086 49.9802 28.323 49.9982 26.4592C50.0118 25.1578 49.9479 23.8568 49.8071 22.5639ZM19.8342 2.83562C19.825 2.7007 19.8658 2.5673 19.9478 2.4635C20.0299 2.3597 20.1468 2.29361 20.2741 2.27914H29.747C29.8765 2.28891 29.9971 2.35258 30.0823 2.45619C30.1675 2.55979 30.2103 2.69488 30.2014 2.83181V8.06498C30.2103 8.20192 30.1675 8.337 30.0823 8.44061C29.9971 8.54421 29.8765 8.60788 29.747 8.61765H20.2741C20.1475 8.60319 20.0311 8.53765 19.9491 8.43468C19.8672 8.33171 19.826 8.19927 19.8342 8.06498V2.83562ZM46.605 30.1907C45.7659 30.8645 44.7379 31.2227 43.6841 31.2083C42.0254 31.2083 40.6371 30.4194 40.2729 29.8514C39.5517 28.708 38.899 26.8671 38.423 25.3882L38.268 24.9041C37.9074 23.7607 37.5468 22.6554 37.1862 21.5272C37.0947 21.2982 36.9558 21.0938 36.7799 20.9289C36.6039 20.764 36.3953 20.6429 36.1693 20.5743C36.1125 20.5478 36.051 20.5348 35.989 20.5362C35.8583 20.5418 35.7324 20.5897 35.6284 20.6734C34.864 21.275 33.9381 21.6034 32.9852 21.611C31.9835 21.6046 31.0135 21.2391 30.2338 20.5743C30.0663 20.4377 29.8612 20.3628 29.6496 20.3608H20.3534C20.1402 20.363 19.9337 20.4394 19.7656 20.5781C19.0084 21.2255 18.0679 21.5863 17.0941 21.6028C16.1203 21.6194 15.1693 21.2909 14.3927 20.6696C14.2879 20.5868 14.1627 20.5378 14.0321 20.5285C13.9674 20.5266 13.9031 20.5409 13.8446 20.5705C13.6203 20.6419 13.4142 20.7661 13.2418 20.9338C13.0695 21.1015 12.9353 21.3082 12.8494 21.5386C12.4419 22.8307 12.02 24.1342 11.6125 25.392C11.1365 26.8747 10.4946 28.7194 9.76263 29.8591C9.40203 30.427 8.01012 31.216 6.35137 31.216C5.29342 31.2286 4.26171 30.8678 3.4197 30.1907C1.99534 28.9596 1.71768 27.9152 1.69965 26.4402C1.68953 25.2128 1.74853 23.9859 1.87634 22.7659C2.14318 20.1969 2.59754 17.708 3.04107 15.3983C3.54952 12.7531 4.09763 10.4205 4.70704 8.26699C4.97482 7.23084 5.38291 6.24106 5.91865 5.32833L6.33334 4.65751C6.64706 4.15821 6.96799 3.63985 7.29253 3.13292C7.36448 3.06327 7.44592 3.00546 7.53413 2.9614C7.62831 2.91069 7.70996 2.83741 7.77257 2.7474C7.83518 2.6574 7.87701 2.55317 7.89473 2.44304C7.96299 2.3919 8.03685 2.34967 8.1147 2.31726C9.60561 1.63881 11.2889 1.60596 12.8025 2.22578C12.8036 2.40976 12.8676 2.58711 12.9828 2.72509C13.0978 2.86587 13.2587 2.95569 13.4335 2.97665C13.8723 3.19812 14.3537 3.30901 14.8399 3.30062H18.179V8.46138C18.18 8.95437 18.3657 9.42689 18.6955 9.77549C19.0253 10.1241 19.4723 10.3204 19.9387 10.3214H30.1076C30.5737 10.3204 31.0204 10.124 31.3496 9.77525C31.6788 9.42655 31.8637 8.95402 31.8637 8.46138V3.30062H35.1704C35.6607 3.31176 36.1465 3.1994 36.5876 2.97284C36.7582 2.95366 36.9156 2.86643 37.0275 2.7289C37.1365 2.58567 37.1928 2.40564 37.1862 2.22197C38.6944 1.60734 40.3702 1.64017 41.8559 2.31345C41.9344 2.34432 42.0085 2.38666 42.0759 2.43923C42.0953 2.55488 42.1418 2.66358 42.211 2.75543C42.2803 2.84729 42.3702 2.9194 42.4725 2.96521C42.5574 3.00934 42.6353 3.06721 42.7033 3.13673C43.0062 3.60173 43.3055 4.07817 43.5904 4.54317L44.0916 5.32833C44.6239 6.23929 45.0295 7.2264 45.296 8.25937C45.8946 10.3633 46.4427 12.6959 46.9656 15.3945C47.4127 17.7157 47.8635 20.2122 48.1267 22.7583C48.258 23.9779 48.3171 25.2051 48.3034 26.4325C48.289 27.9152 48.0077 28.9596 46.587 30.1907H46.605Z" fill="var(--fill-0, white)"/>
</g>
</svg>
