<svg preserveAspectRatio="none" width="100%" height="100%" overflow="visible" style="display: block;" viewBox="0 0 1073 494.803" fill="none" xmlns="http://www.w3.org/2000/svg">
<g id="Rectangle 32" filter="url(#filter0_d_0_21)">
<path d="M4.5 16.5C4.5 7.66343 11.6634 0.5 20.5 0.5H1052.5C1061.34 0.5 1068.5 7.66344 1068.5 16.5V457.694C1068.5 466.455 1061.46 473.586 1052.7 473.693L20.6955 486.302C11.7831 486.411 4.5 479.216 4.5 470.303V16.5Z" fill="var(--fill-0, #282828)"/>
<path d="M4.5 16.5C4.5 7.66343 11.6634 0.5 20.5 0.5H1052.5C1061.34 0.5 1068.5 7.66344 1068.5 16.5V457.694C1068.5 466.455 1061.46 473.586 1052.7 473.693L20.6955 486.302C11.7831 486.411 4.5 479.216 4.5 470.303V16.5Z" stroke="var(--stroke-0, #FF1654)"/>
</g>
<defs>
<filter id="filter0_d_0_21" x="0" y="0" width="1073" height="494.803" filterUnits="userSpaceOnUse" color-interpolation-filters="sRGB">
<feFlood flood-opacity="0" result="BackgroundImageFix"/>
<feColorMatrix in="SourceAlpha" type="matrix" values="0 0 0 0 0 0 0 0 0 0 0 0 0 0 0 0 0 0 127 0" result="hardAlpha"/>
<feOffset dy="4"/>
<feGaussianBlur stdDeviation="2"/>
<feComposite in2="hardAlpha" operator="out"/>
<feColorMatrix type="matrix" values="0 0 0 0 0 0 0 0 0 0 0 0 0 0 0 0 0 0 0.25 0"/>
<feBlend mode="normal" in2="BackgroundImageFix" result="effect1_dropShadow_0_21"/>
<feBlend mode="normal" in="SourceGraphic" in2="effect1_dropShadow_0_21" result="shape"/>
</filter>
</defs>
</svg>
